<?xml version="1.0" encoding="utf-8" standalone="no"?>
<!DOCTYPE svg PUBLIC "-//W3C//DTD SVG 1.1//EN"
  "http://www.w3.org/Graphics/SVG/1.1/DTD/svg11.dtd">
<svg xmlns:xlink="http://www.w3.org/1999/xlink" width="648pt" height="504pt" viewBox="0 0 648 504" xmlns="http://www.w3.org/2000/svg" version="1.1">
 <metadata>
  <rdf:RDF xmlns:dc="http://purl.org/dc/elements/1.1/" xmlns:cc="http://creativecommons.org/ns#" xmlns:rdf="http://www.w3.org/1999/02/22-rdf-syntax-ns#">
   <cc:Work>
    <dc:type rdf:resource="http://purl.org/dc/dcmitype/StillImage"/>
    <dc:date>2022-10-20T12:12:03.957247</dc:date>
    <dc:format>image/svg+xml</dc:format>
    <dc:creator>
     <cc:Agent>
      <dc:title>Matplotlib v3.5.2, https://matplotlib.org/</dc:title>
     </cc:Agent>
    </dc:creator>
   </cc:Work>
  </rdf:RDF>
 </metadata>
 <defs>
  <style type="text/css">*{stroke-linejoin: round; stroke-linecap: butt}</style>
 </defs>
 <g id="figure_1">
  <g id="patch_1">
   <path d="M 0 504 
L 648 504 
L 648 0 
L 0 0 
z
" style="fill: #ffffff"/>
  </g>
  <g id="axes_1">
   <g id="patch_2">
    <path d="M 81 448.56 
L 583.2 448.56 
L 583.2 60.48 
L 81 60.48 
z
" style="fill: #ffffff"/>
   </g>
   <g id="matplotlib.axis_1">
    <g id="xtick_1">
     <g id="line2d_1">
      <defs>
       <path id="md33e5cf128" d="M 0 0 
L 0 3.5 
" style="stroke: #000000; stroke-width: 0.8"/>
      </defs>
      <g>
       <use xlink:href="#md33e5cf128" x="103.827273" y="448.56" style="stroke: #000000; stroke-width: 0.8"/>
      </g>
     </g>
     <g id="text_1">
      <!-- 0 -->
      <g transform="translate(98.101023 469.237188)scale(0.18 -0.18)">
       <defs>
        <path id="DejaVuSans-30" d="M 2034 4250 
Q 1547 4250 1301 3770 
Q 1056 3291 1056 2328 
Q 1056 1369 1301 889 
Q 1547 409 2034 409 
Q 2525 409 2770 889 
Q 3016 1369 3016 2328 
Q 3016 3291 2770 3770 
Q 2525 4250 2034 4250 
z
M 2034 4750 
Q 2819 4750 3233 4129 
Q 3647 3509 3647 2328 
Q 3647 1150 3233 529 
Q 2819 -91 2034 -91 
Q 1250 -91 836 529 
Q 422 1150 422 2328 
Q 422 3509 836 4129 
Q 1250 4750 2034 4750 
z
" transform="scale(0.015625)"/>
       </defs>
       <use xlink:href="#DejaVuSans-30"/>
      </g>
     </g>
    </g>
    <g id="xtick_2">
     <g id="line2d_2">
      <g>
       <use xlink:href="#md33e5cf128" x="167.148418" y="448.56" style="stroke: #000000; stroke-width: 0.8"/>
      </g>
     </g>
     <g id="text_2">
      <!-- 500 -->
      <g transform="translate(149.969668 469.237188)scale(0.18 -0.18)">
       <defs>
        <path id="DejaVuSans-35" d="M 691 4666 
L 3169 4666 
L 3169 4134 
L 1269 4134 
L 1269 2991 
Q 1406 3038 1543 3061 
Q 1681 3084 1819 3084 
Q 2600 3084 3056 2656 
Q 3513 2228 3513 1497 
Q 3513 744 3044 326 
Q 2575 -91 1722 -91 
Q 1428 -91 1123 -41 
Q 819 9 494 109 
L 494 744 
Q 775 591 1075 516 
Q 1375 441 1709 441 
Q 2250 441 2565 725 
Q 2881 1009 2881 1497 
Q 2881 1984 2565 2268 
Q 2250 2553 1709 2553 
Q 1456 2553 1204 2497 
Q 953 2441 691 2322 
L 691 4666 
z
" transform="scale(0.015625)"/>
       </defs>
       <use xlink:href="#DejaVuSans-35"/>
       <use xlink:href="#DejaVuSans-30" x="63.623047"/>
       <use xlink:href="#DejaVuSans-30" x="127.246094"/>
      </g>
     </g>
    </g>
    <g id="xtick_3">
     <g id="line2d_3">
      <g>
       <use xlink:href="#md33e5cf128" x="230.469562" y="448.56" style="stroke: #000000; stroke-width: 0.8"/>
      </g>
     </g>
     <g id="text_3">
      <!-- 1000 -->
      <g transform="translate(207.564562 469.237188)scale(0.18 -0.18)">
       <defs>
        <path id="DejaVuSans-31" d="M 794 531 
L 1825 531 
L 1825 4091 
L 703 3866 
L 703 4441 
L 1819 4666 
L 2450 4666 
L 2450 531 
L 3481 531 
L 3481 0 
L 794 0 
L 794 531 
z
" transform="scale(0.015625)"/>
       </defs>
       <use xlink:href="#DejaVuSans-31"/>
       <use xlink:href="#DejaVuSans-30" x="63.623047"/>
       <use xlink:href="#DejaVuSans-30" x="127.246094"/>
       <use xlink:href="#DejaVuSans-30" x="190.869141"/>
      </g>
     </g>
    </g>
    <g id="xtick_4">
     <g id="line2d_4">
      <g>
       <use xlink:href="#md33e5cf128" x="293.790707" y="448.56" style="stroke: #000000; stroke-width: 0.8"/>
      </g>
     </g>
     <g id="text_4">
      <!-- 1500 -->
      <g transform="translate(270.885707 469.237188)scale(0.18 -0.18)">
       <use xlink:href="#DejaVuSans-31"/>
       <use xlink:href="#DejaVuSans-35" x="63.623047"/>
       <use xlink:href="#DejaVuSans-30" x="127.246094"/>
       <use xlink:href="#DejaVuSans-30" x="190.869141"/>
      </g>
     </g>
    </g>
    <g id="xtick_5">
     <g id="line2d_5">
      <g>
       <use xlink:href="#md33e5cf128" x="357.111852" y="448.56" style="stroke: #000000; stroke-width: 0.8"/>
      </g>
     </g>
     <g id="text_5">
      <!-- 2000 -->
      <g transform="translate(334.206852 469.237188)scale(0.18 -0.18)">
       <defs>
        <path id="DejaVuSans-32" d="M 1228 531 
L 3431 531 
L 3431 0 
L 469 0 
L 469 531 
Q 828 903 1448 1529 
Q 2069 2156 2228 2338 
Q 2531 2678 2651 2914 
Q 2772 3150 2772 3378 
Q 2772 3750 2511 3984 
Q 2250 4219 1831 4219 
Q 1534 4219 1204 4116 
Q 875 4013 500 3803 
L 500 4441 
Q 881 4594 1212 4672 
Q 1544 4750 1819 4750 
Q 2544 4750 2975 4387 
Q 3406 4025 3406 3419 
Q 3406 3131 3298 2873 
Q 3191 2616 2906 2266 
Q 2828 2175 2409 1742 
Q 1991 1309 1228 531 
z
" transform="scale(0.015625)"/>
       </defs>
       <use xlink:href="#DejaVuSans-32"/>
       <use xlink:href="#DejaVuSans-30" x="63.623047"/>
       <use xlink:href="#DejaVuSans-30" x="127.246094"/>
       <use xlink:href="#DejaVuSans-30" x="190.869141"/>
      </g>
     </g>
    </g>
    <g id="xtick_6">
     <g id="line2d_6">
      <g>
       <use xlink:href="#md33e5cf128" x="420.432997" y="448.56" style="stroke: #000000; stroke-width: 0.8"/>
      </g>
     </g>
     <g id="text_6">
      <!-- 2500 -->
      <g transform="translate(397.527997 469.237188)scale(0.18 -0.18)">
       <use xlink:href="#DejaVuSans-32"/>
       <use xlink:href="#DejaVuSans-35" x="63.623047"/>
       <use xlink:href="#DejaVuSans-30" x="127.246094"/>
       <use xlink:href="#DejaVuSans-30" x="190.869141"/>
      </g>
     </g>
    </g>
    <g id="xtick_7">
     <g id="line2d_7">
      <g>
       <use xlink:href="#md33e5cf128" x="483.754142" y="448.56" style="stroke: #000000; stroke-width: 0.8"/>
      </g>
     </g>
     <g id="text_7">
      <!-- 3000 -->
      <g transform="translate(460.849142 469.237188)scale(0.18 -0.18)">
       <defs>
        <path id="DejaVuSans-33" d="M 2597 2516 
Q 3050 2419 3304 2112 
Q 3559 1806 3559 1356 
Q 3559 666 3084 287 
Q 2609 -91 1734 -91 
Q 1441 -91 1130 -33 
Q 819 25 488 141 
L 488 750 
Q 750 597 1062 519 
Q 1375 441 1716 441 
Q 2309 441 2620 675 
Q 2931 909 2931 1356 
Q 2931 1769 2642 2001 
Q 2353 2234 1838 2234 
L 1294 2234 
L 1294 2753 
L 1863 2753 
Q 2328 2753 2575 2939 
Q 2822 3125 2822 3475 
Q 2822 3834 2567 4026 
Q 2313 4219 1838 4219 
Q 1578 4219 1281 4162 
Q 984 4106 628 3988 
L 628 4550 
Q 988 4650 1302 4700 
Q 1616 4750 1894 4750 
Q 2613 4750 3031 4423 
Q 3450 4097 3450 3541 
Q 3450 3153 3228 2886 
Q 3006 2619 2597 2516 
z
" transform="scale(0.015625)"/>
       </defs>
       <use xlink:href="#DejaVuSans-33"/>
       <use xlink:href="#DejaVuSans-30" x="63.623047"/>
       <use xlink:href="#DejaVuSans-30" x="127.246094"/>
       <use xlink:href="#DejaVuSans-30" x="190.869141"/>
      </g>
     </g>
    </g>
    <g id="xtick_8">
     <g id="line2d_8">
      <g>
       <use xlink:href="#md33e5cf128" x="547.075287" y="448.56" style="stroke: #000000; stroke-width: 0.8"/>
      </g>
     </g>
     <g id="text_8">
      <!-- 3500 -->
      <g transform="translate(524.170287 469.237188)scale(0.18 -0.18)">
       <use xlink:href="#DejaVuSans-33"/>
       <use xlink:href="#DejaVuSans-35" x="63.623047"/>
       <use xlink:href="#DejaVuSans-30" x="127.246094"/>
       <use xlink:href="#DejaVuSans-30" x="190.869141"/>
      </g>
     </g>
    </g>
    <g id="text_9">
     <!-- epochs -->
     <g transform="translate(300.000938 490.657812)scale(0.18 -0.18)">
      <defs>
       <path id="DejaVuSans-65" d="M 3597 1894 
L 3597 1613 
L 953 1613 
Q 991 1019 1311 708 
Q 1631 397 2203 397 
Q 2534 397 2845 478 
Q 3156 559 3463 722 
L 3463 178 
Q 3153 47 2828 -22 
Q 2503 -91 2169 -91 
Q 1331 -91 842 396 
Q 353 884 353 1716 
Q 353 2575 817 3079 
Q 1281 3584 2069 3584 
Q 2775 3584 3186 3129 
Q 3597 2675 3597 1894 
z
M 3022 2063 
Q 3016 2534 2758 2815 
Q 2500 3097 2075 3097 
Q 1594 3097 1305 2825 
Q 1016 2553 972 2059 
L 3022 2063 
z
" transform="scale(0.015625)"/>
       <path id="DejaVuSans-70" d="M 1159 525 
L 1159 -1331 
L 581 -1331 
L 581 3500 
L 1159 3500 
L 1159 2969 
Q 1341 3281 1617 3432 
Q 1894 3584 2278 3584 
Q 2916 3584 3314 3078 
Q 3713 2572 3713 1747 
Q 3713 922 3314 415 
Q 2916 -91 2278 -91 
Q 1894 -91 1617 61 
Q 1341 213 1159 525 
z
M 3116 1747 
Q 3116 2381 2855 2742 
Q 2594 3103 2138 3103 
Q 1681 3103 1420 2742 
Q 1159 2381 1159 1747 
Q 1159 1113 1420 752 
Q 1681 391 2138 391 
Q 2594 391 2855 752 
Q 3116 1113 3116 1747 
z
" transform="scale(0.015625)"/>
       <path id="DejaVuSans-6f" d="M 1959 3097 
Q 1497 3097 1228 2736 
Q 959 2375 959 1747 
Q 959 1119 1226 758 
Q 1494 397 1959 397 
Q 2419 397 2687 759 
Q 2956 1122 2956 1747 
Q 2956 2369 2687 2733 
Q 2419 3097 1959 3097 
z
M 1959 3584 
Q 2709 3584 3137 3096 
Q 3566 2609 3566 1747 
Q 3566 888 3137 398 
Q 2709 -91 1959 -91 
Q 1206 -91 779 398 
Q 353 888 353 1747 
Q 353 2609 779 3096 
Q 1206 3584 1959 3584 
z
" transform="scale(0.015625)"/>
       <path id="DejaVuSans-63" d="M 3122 3366 
L 3122 2828 
Q 2878 2963 2633 3030 
Q 2388 3097 2138 3097 
Q 1578 3097 1268 2742 
Q 959 2388 959 1747 
Q 959 1106 1268 751 
Q 1578 397 2138 397 
Q 2388 397 2633 464 
Q 2878 531 3122 666 
L 3122 134 
Q 2881 22 2623 -34 
Q 2366 -91 2075 -91 
Q 1284 -91 818 406 
Q 353 903 353 1747 
Q 353 2603 823 3093 
Q 1294 3584 2113 3584 
Q 2378 3584 2631 3529 
Q 2884 3475 3122 3366 
z
" transform="scale(0.015625)"/>
       <path id="DejaVuSans-68" d="M 3513 2113 
L 3513 0 
L 2938 0 
L 2938 2094 
Q 2938 2591 2744 2837 
Q 2550 3084 2163 3084 
Q 1697 3084 1428 2787 
Q 1159 2491 1159 1978 
L 1159 0 
L 581 0 
L 581 4863 
L 1159 4863 
L 1159 2956 
Q 1366 3272 1645 3428 
Q 1925 3584 2291 3584 
Q 2894 3584 3203 3211 
Q 3513 2838 3513 2113 
z
" transform="scale(0.015625)"/>
       <path id="DejaVuSans-73" d="M 2834 3397 
L 2834 2853 
Q 2591 2978 2328 3040 
Q 2066 3103 1784 3103 
Q 1356 3103 1142 2972 
Q 928 2841 928 2578 
Q 928 2378 1081 2264 
Q 1234 2150 1697 2047 
L 1894 2003 
Q 2506 1872 2764 1633 
Q 3022 1394 3022 966 
Q 3022 478 2636 193 
Q 2250 -91 1575 -91 
Q 1294 -91 989 -36 
Q 684 19 347 128 
L 347 722 
Q 666 556 975 473 
Q 1284 391 1588 391 
Q 1994 391 2212 530 
Q 2431 669 2431 922 
Q 2431 1156 2273 1281 
Q 2116 1406 1581 1522 
L 1381 1569 
Q 847 1681 609 1914 
Q 372 2147 372 2553 
Q 372 3047 722 3315 
Q 1072 3584 1716 3584 
Q 2034 3584 2315 3537 
Q 2597 3491 2834 3397 
z
" transform="scale(0.015625)"/>
      </defs>
      <use xlink:href="#DejaVuSans-65"/>
      <use xlink:href="#DejaVuSans-70" x="61.523438"/>
      <use xlink:href="#DejaVuSans-6f" x="125"/>
      <use xlink:href="#DejaVuSans-63" x="186.181641"/>
      <use xlink:href="#DejaVuSans-68" x="241.162109"/>
      <use xlink:href="#DejaVuSans-73" x="304.541016"/>
     </g>
    </g>
   </g>
   <g id="matplotlib.axis_2">
    <g id="ytick_1">
     <g id="line2d_9">
      <defs>
       <path id="m72d8555919" d="M 0 0 
L -3.5 0 
" style="stroke: #000000; stroke-width: 0.8"/>
      </defs>
      <g>
       <use xlink:href="#m72d8555919" x="81" y="393.869004" style="stroke: #000000; stroke-width: 0.8"/>
      </g>
     </g>
     <g id="text_10">
      <!-- -4000 -->
      <g transform="translate(21.695937 400.707598)scale(0.18 -0.18)">
       <defs>
        <path id="DejaVuSans-2d" d="M 313 2009 
L 1997 2009 
L 1997 1497 
L 313 1497 
L 313 2009 
z
" transform="scale(0.015625)"/>
        <path id="DejaVuSans-34" d="M 2419 4116 
L 825 1625 
L 2419 1625 
L 2419 4116 
z
M 2253 4666 
L 3047 4666 
L 3047 1625 
L 3713 1625 
L 3713 1100 
L 3047 1100 
L 3047 0 
L 2419 0 
L 2419 1100 
L 313 1100 
L 313 1709 
L 2253 4666 
z
" transform="scale(0.015625)"/>
       </defs>
       <use xlink:href="#DejaVuSans-2d"/>
       <use xlink:href="#DejaVuSans-34" x="36.083984"/>
       <use xlink:href="#DejaVuSans-30" x="99.707031"/>
       <use xlink:href="#DejaVuSans-30" x="163.330078"/>
       <use xlink:href="#DejaVuSans-30" x="226.953125"/>
      </g>
     </g>
    </g>
    <g id="ytick_2">
     <g id="line2d_10">
      <g>
       <use xlink:href="#m72d8555919" x="81" y="321.303461" style="stroke: #000000; stroke-width: 0.8"/>
      </g>
     </g>
     <g id="text_11">
      <!-- -3000 -->
      <g transform="translate(21.695937 328.142055)scale(0.18 -0.18)">
       <use xlink:href="#DejaVuSans-2d"/>
       <use xlink:href="#DejaVuSans-33" x="36.083984"/>
       <use xlink:href="#DejaVuSans-30" x="99.707031"/>
       <use xlink:href="#DejaVuSans-30" x="163.330078"/>
       <use xlink:href="#DejaVuSans-30" x="226.953125"/>
      </g>
     </g>
    </g>
    <g id="ytick_3">
     <g id="line2d_11">
      <g>
       <use xlink:href="#m72d8555919" x="81" y="248.737918" style="stroke: #000000; stroke-width: 0.8"/>
      </g>
     </g>
     <g id="text_12">
      <!-- -2000 -->
      <g transform="translate(21.695937 255.576512)scale(0.18 -0.18)">
       <use xlink:href="#DejaVuSans-2d"/>
       <use xlink:href="#DejaVuSans-32" x="36.083984"/>
       <use xlink:href="#DejaVuSans-30" x="99.707031"/>
       <use xlink:href="#DejaVuSans-30" x="163.330078"/>
       <use xlink:href="#DejaVuSans-30" x="226.953125"/>
      </g>
     </g>
    </g>
    <g id="ytick_4">
     <g id="line2d_12">
      <g>
       <use xlink:href="#m72d8555919" x="81" y="176.172376" style="stroke: #000000; stroke-width: 0.8"/>
      </g>
     </g>
     <g id="text_13">
      <!-- -1000 -->
      <g transform="translate(21.695937 183.010969)scale(0.18 -0.18)">
       <use xlink:href="#DejaVuSans-2d"/>
       <use xlink:href="#DejaVuSans-31" x="36.083984"/>
       <use xlink:href="#DejaVuSans-30" x="99.707031"/>
       <use xlink:href="#DejaVuSans-30" x="163.330078"/>
       <use xlink:href="#DejaVuSans-30" x="226.953125"/>
      </g>
     </g>
    </g>
    <g id="ytick_5">
     <g id="line2d_13">
      <g>
       <use xlink:href="#m72d8555919" x="81" y="103.606833" style="stroke: #000000; stroke-width: 0.8"/>
      </g>
     </g>
     <g id="text_14">
      <!-- 0 -->
      <g transform="translate(62.5475 110.445427)scale(0.18 -0.18)">
       <use xlink:href="#DejaVuSans-30"/>
      </g>
     </g>
    </g>
    <g id="text_15">
     <!-- scores -->
     <g transform="translate(13.9525 283.3875)rotate(-90)scale(0.18 -0.18)">
      <defs>
       <path id="DejaVuSans-72" d="M 2631 2963 
Q 2534 3019 2420 3045 
Q 2306 3072 2169 3072 
Q 1681 3072 1420 2755 
Q 1159 2438 1159 1844 
L 1159 0 
L 581 0 
L 581 3500 
L 1159 3500 
L 1159 2956 
Q 1341 3275 1631 3429 
Q 1922 3584 2338 3584 
Q 2397 3584 2469 3576 
Q 2541 3569 2628 3553 
L 2631 2963 
z
" transform="scale(0.015625)"/>
      </defs>
      <use xlink:href="#DejaVuSans-73"/>
      <use xlink:href="#DejaVuSans-63" x="52.099609"/>
      <use xlink:href="#DejaVuSans-6f" x="107.080078"/>
      <use xlink:href="#DejaVuSans-72" x="168.261719"/>
      <use xlink:href="#DejaVuSans-65" x="207.125"/>
      <use xlink:href="#DejaVuSans-73" x="268.648438"/>
     </g>
    </g>
   </g>
   <g id="line2d_14">
    <path d="M 103.827273 91.619005 
L 104.080557 88.181213 
L 104.2072 87.669625 
L 104.333842 88.593022 
L 104.460484 91.531926 
L 104.587126 88.502232 
L 104.713769 88.736339 
L 104.840411 85.572481 
L 104.967053 85.552526 
L 105.093696 86.960297 
L 105.220338 253.2114 
L 105.34698 85.302175 
L 105.600265 86.853511 
L 105.726907 84.710765 
L 105.853549 89.989696 
L 105.980192 270.46985 
L 106.106834 82.820433 
L 106.233476 98.8118 
L 106.360119 83.767119 
L 106.486761 85.645047 
L 106.740045 85.07087 
L 106.866688 85.557066 
L 106.99333 82.278006 
L 107.119972 83.678521 
L 107.246615 82.707956 
L 107.373257 89.023604 
L 107.499899 81.751905 
L 107.626541 82.916582 
L 107.753184 85.800328 
L 107.879826 81.282044 
L 108.006468 88.832033 
L 108.133111 84.034092 
L 108.259753 84.549307 
L 108.386395 86.918572 
L 108.513037 81.530581 
L 108.63968 81.632172 
L 108.766322 85.577924 
L 109.019607 79.27742 
L 109.272891 83.119766 
L 109.399533 80.765014 
L 109.526176 80.881119 
L 109.652818 80.757757 
L 109.906103 83.593256 
L 110.159387 81.204036 
L 110.28603 91.689353 
L 110.412672 271.750941 
L 110.539314 83.228614 
L 110.665956 297.927271 
L 110.792599 229.027174 
L 110.919241 80.844836 
L 111.045883 80.304223 
L 111.172526 81.283858 
L 111.299168 79.821662 
L 111.42581 87.046033 
L 111.679095 80.050243 
L 111.805737 82.847645 
L 111.932379 79.266536 
L 112.059022 81.25846 
L 112.185664 130.843113 
L 112.312306 79.669274 
L 112.438948 97.467671 
L 112.565591 420.821187 
L 112.692233 83.318803 
L 112.818875 78.566278 
L 112.945518 82.200536 
L 113.07216 81.918806 
L 113.198802 79.06698 
L 113.325444 403.000642 
L 113.452087 81.968859 
L 113.578729 79.651133 
L 113.705371 80.278825 
L 113.832014 371.663837 
L 113.958656 97.947714 
L 114.21194 80.634396 
L 114.338583 281.159235 
L 114.465225 79.876086 
L 114.591867 81.860754 
L 114.71851 89.349832 
L 114.971794 80.79404 
L 115.098437 85.207839 
L 115.225079 84.170152 
L 115.478363 84.081259 
L 115.605006 86.782024 
L 115.731648 79.799892 
L 115.85829 238.029986 
L 115.984933 85.799249 
L 116.111575 86.425126 
L 116.238217 86.377959 
L 116.364859 263.692927 
L 116.491502 85.236866 
L 116.618144 86.143935 
L 116.744786 88.384396 
L 116.871429 271.368322 
L 116.998071 87.246931 
L 117.124713 87.370293 
L 117.251355 88.023382 
L 117.377998 86.577514 
L 117.50464 267.794976 
L 117.631282 87.41746 
L 117.757925 87.613387 
L 118.011209 89.238855 
L 118.137851 88.124974 
L 118.264494 88.349927 
L 118.391136 88.181213 
L 118.517778 89.189874 
L 118.644421 263.187165 
L 118.771063 90.573496 
L 119.024347 89.169918 
L 119.15099 263.959487 
L 119.277632 87.707722 
L 119.404274 85.333015 
L 119.530917 293.874779 
L 119.657559 90.276543 
L 119.784201 90.987685 
L 119.910844 90.354551 
L 120.037486 268.821016 
L 120.164128 89.179426 
L 120.417413 88.85063 
L 120.544055 89.282395 
L 120.670697 87.54445 
L 120.79734 89.5654 
L 120.923982 88.573066 
L 121.050624 86.495878 
L 121.303909 89.735929 
L 121.430551 96.053512 
L 121.557193 88.357184 
L 121.683836 89.362217 
L 121.93712 88.056037 
L 122.063762 88.77625 
L 122.190405 91.656004 
L 122.317047 88.297317 
L 122.443689 90.289323 
L 122.696974 87.872809 
L 122.823616 91.031224 
L 122.950258 89.351332 
L 123.076901 90.592203 
L 123.330185 90.214862 
L 123.456828 104.827341 
L 123.58347 91.005826 
L 123.710112 90.933261 
L 123.836755 91.880241 
L 123.963397 91.372282 
L 124.090039 92.068911 
L 124.216681 90.806271 
L 124.343324 92.359174 
L 124.596608 91.121931 
L 124.849893 92.968724 
L 124.976535 91.970948 
L 125.103177 92.57687 
L 125.356462 91.023968 
L 125.736389 92.486979 
L 125.863031 91.938293 
L 125.989673 91.977248 
L 126.116316 92.489792 
L 126.242958 93.86798 
L 126.3696 216.981903 
L 126.496243 92.794567 
L 126.622885 91.121931 
L 126.876169 237.443588 
L 127.002812 92.043514 
L 127.382739 92.765541 
L 127.509381 92.290236 
L 127.636023 118.569019 
L 127.762665 92.954211 
L 127.889308 225.312579 
L 128.01595 91.666173 
L 128.269235 92.933341 
L 128.395877 92.010859 
L 128.522519 92.678462 
L 128.649162 92.373687 
L 128.775804 92.547844 
L 128.902446 208.231236 
L 129.029088 91.996346 
L 129.282373 92.286608 
L 129.409015 92.705581 
L 129.535658 91.54644 
L 129.788942 92.591383 
L 129.915584 92.422404 
L 130.042227 209.845659 
L 130.168869 92.605896 
L 130.295511 92.939698 
L 130.548796 91.753251 
L 130.675438 94.506921 
L 130.80208 91.903825 
L 130.928723 91.902011 
L 131.055365 92.507933 
L 131.182007 92.228556 
L 131.30865 92.359174 
L 131.435292 91.911567 
L 131.688576 92.80908 
L 131.815219 189.328888 
L 131.941861 91.843958 
L 132.068503 94.654851 
L 132.195146 92.185016 
L 132.321788 92.57687 
L 132.44843 159.281216 
L 132.575073 92.678462 
L 132.701715 107.251455 
L 132.828357 91.996346 
L 132.954999 92.214043 
L 133.081642 92.751028 
L 133.208284 237.485367 
L 133.334926 92.010859 
L 133.461569 92.17776 
L 133.588211 98.443851 
L 133.714853 96.560089 
L 133.968138 91.477502 
L 134.09478 92.692975 
L 134.221422 92.039885 
L 134.348065 92.794567 
L 134.474707 92.722001 
L 134.601349 91.851215 
L 134.727991 92.199529 
L 134.854634 92.15599 
L 134.981276 91.201753 
L 135.107918 191.457153 
L 135.234561 92.605896 
L 135.361203 91.107418 
L 135.487845 92.185016 
L 135.614487 92.07254 
L 135.74113 92.968724 
L 135.994414 92.199529 
L 136.121057 92.203158 
L 136.247699 237.769684 
L 136.374341 91.323301 
L 136.627626 91.909267 
L 136.88091 91.677716 
L 137.007553 261.791168 
L 137.134195 92.417226 
L 137.260837 91.256177 
L 137.514122 92.373687 
L 137.640764 90.200349 
L 137.894049 92.402713 
L 138.020691 92.315634 
L 138.147333 95.395374 
L 138.273976 92.330147 
L 138.400618 92.014487 
L 138.52726 92.097938 
L 138.653902 92.910672 
L 138.907187 92.101566 
L 139.033829 92.391828 
L 139.160472 92.333776 
L 139.287114 91.306973 
L 139.413756 189.781995 
L 139.540398 92.054398 
L 139.667041 92.188645 
L 139.793683 91.775021 
L 139.920325 92.402713 
L 140.046968 91.927409 
L 140.17361 92.97631 
L 140.300252 210.341698 
L 140.426894 176.750806 
L 140.553537 90.11327 
L 140.680179 208.813085 
L 140.806821 91.114675 
L 141.060106 91.379539 
L 141.186748 245.641984 
L 141.31339 91.560953 
L 141.440033 92.018038 
L 141.566675 116.573176 
L 141.693317 90.944146 
L 141.81996 223.231798 
L 141.946602 90.63937 
L 142.073244 89.995351 
L 142.199887 91.011269 
L 142.326529 90.247516 
L 142.453171 90.470761 
L 142.706456 89.76677 
L 142.833098 91.354141 
L 142.95974 91.52467 
L 143.086383 97.219825 
L 143.213025 89.788539 
L 143.339667 199.304006 
L 143.466309 90.837111 
L 143.592952 96.383946 
L 143.719594 89.024029 
L 143.972879 89.427526 
L 144.099521 92.476377 
L 144.226163 89.289651 
L 144.352805 90.53415 
L 144.60609 87.620644 
L 144.732732 89.093724 
L 144.859375 205.821492 
L 144.986017 86.015131 
L 145.112659 89.055627 
L 145.239301 85.695843 
L 145.365944 85.713984 
L 145.492586 83.830908 
L 145.619228 84.418689 
L 145.745871 235.161515 
L 145.872513 82.582781 
L 145.999155 232.636723 
L 146.125798 84.135683 
L 146.25244 83.979668 
L 146.505724 80.365904 
L 146.632367 81.880709 
L 146.759009 87.461159 
L 146.885651 79.919625 
L 147.012294 94.391808 
L 147.138936 80.492893 
L 147.265578 80.561831 
L 147.39222 89.80098 
L 147.518863 285.701671 
L 147.645505 79.353614 
L 147.89879 79.93051 
L 148.025432 82.561011 
L 148.152074 80.003076 
L 148.278716 80.667051 
L 148.405359 86.072496 
L 148.658643 79.749096 
L 148.785286 79.197598 
L 148.911928 107.642885 
L 149.03857 80.426968 
L 149.165212 82.172786 
L 149.291855 80.362275 
L 149.418497 81.160496 
L 149.671782 79.379012 
L 149.798424 323.291105 
L 149.925066 89.681499 
L 150.051708 91.989328 
L 150.304993 78.479199 
L 150.431635 79.379012 
L 150.558278 79.008928 
L 150.68492 79.139546 
L 150.811562 79.034326 
L 150.938205 79.201227 
L 151.064847 78.969017 
L 151.191489 83.5396 
L 151.318131 78.823886 
L 151.571416 79.40441 
L 151.698058 94.663411 
L 151.824701 93.031151 
L 151.951343 78.461058 
L 152.077985 79.041582 
L 152.204627 156.712614 
L 152.33127 79.302818 
L 152.457912 101.480478 
L 152.711197 79.42618 
L 152.837839 80.69061 
L 152.964481 85.973318 
L 153.091123 78.79486 
L 153.217766 360.83743 
L 153.344408 79.785379 
L 153.47105 360.64064 
L 153.597693 79.037954 
L 153.724335 92.534926 
L 153.850977 79.785379 
L 153.977619 79.139546 
L 154.230904 86.54221 
L 154.357546 78.41389 
L 154.610831 91.276098 
L 154.737473 83.61882 
L 154.990758 124.932598 
L 155.1174 80.445726 
L 155.244042 78.424775 
L 155.497327 85.647369 
L 155.623969 78.12 
L 155.750612 102.5769 
L 156.003896 78.12 
L 156.130538 107.401937 
L 156.257181 78.312299 
L 156.383823 94.345174 
L 156.510465 87.123492 
L 156.637108 336.289167 
L 156.76375 78.606189 
L 156.890392 78.566278 
L 157.017034 78.686011 
L 157.143677 79.070609 
L 157.270319 96.072886 
L 157.396961 80.635976 
L 157.523604 121.654134 
L 157.650246 78.12 
L 157.776888 430.92 
L 157.90353 92.905149 
L 158.030173 78.312299 
L 158.156815 78.424775 
L 158.283457 92.519992 
L 158.4101 78.889195 
L 158.536742 78.359466 
L 158.663384 101.06203 
L 158.790026 79.76361 
L 158.916669 78.842027 
L 159.043311 84.663078 
L 159.169953 78.41389 
L 159.296596 78.384864 
L 159.423238 78.791231 
L 159.54988 394.515766 
L 159.676523 78.359466 
L 159.803165 84.766453 
L 159.929807 78.932734 
L 160.056449 99.568462 
L 160.183092 78.77309 
L 160.309734 374.990126 
L 160.436376 82.959392 
L 160.563019 384.792367 
L 160.689661 78.272388 
L 160.816303 93.292278 
L 160.942945 81.923268 
L 161.069588 82.378513 
L 161.19623 79.052467 
L 161.322872 115.630566 
L 161.576157 79.045211 
L 161.702799 135.49864 
L 161.829441 78.740435 
L 161.956084 79.244766 
L 162.082726 94.153467 
L 162.209368 78.613446 
L 162.336011 79.226625 
L 162.589295 81.900235 
L 162.715937 89.504195 
L 162.84258 78.838399 
L 162.969222 79.212111 
L 163.095864 336.808589 
L 163.222507 79.502374 
L 163.349149 144.063822 
L 163.475791 81.36368 
L 163.602433 79.008928 
L 163.729076 80.169977 
L 163.855718 104.660266 
L 163.98236 78.740435 
L 164.109003 78.845655 
L 164.235645 393.867115 
L 164.362287 81.287609 
L 164.48893 78.871053 
L 164.615572 329.670574 
L 164.742214 100.397972 
L 164.868856 78.566278 
L 164.995499 81.71169 
L 165.122141 94.85506 
L 165.375426 79.553169 
L 165.502068 98.484543 
L 165.62871 79.085122 
L 165.755352 79.21574 
L 165.881995 339.930423 
L 166.008637 101.598706 
L 166.261922 79.208483 
L 166.388564 88.461137 
L 166.515206 325.238789 
L 166.641848 81.559607 
L 166.768491 79.045211 
L 167.021775 81.13147 
L 167.148418 79.625735 
L 167.27506 80.526096 
L 167.401702 95.462875 
L 167.528344 372.805537 
L 167.654987 79.259279 
L 167.781629 95.01291 
L 167.908271 79.908741 
L 168.034914 89.577628 
L 168.161556 78.77309 
L 168.288198 78.816629 
L 168.41484 105.203877 
L 168.541483 79.27742 
L 168.668125 79.139546 
L 168.794767 305.105254 
L 168.92141 78.892823 
L 169.048052 157.224547 
L 169.174694 104.826214 
L 169.301337 289.913075 
L 169.427979 81.878895 
L 169.554621 80.010332 
L 169.681263 80.529176 
L 169.807906 78.424775 
L 169.934548 82.307032 
L 170.06119 79.125033 
L 170.187833 79.32096 
L 170.314475 115.278713 
L 170.441117 78.885566 
L 170.567759 79.803521 
L 170.694402 91.38274 
L 170.821044 80.24617 
L 170.947686 97.322194 
L 171.200971 80.180861 
L 171.327613 305.015349 
L 171.454255 80.090154 
L 171.580898 82.967378 
L 171.70754 102.015044 
L 171.834182 82.452163 
L 171.960825 80.068385 
L 172.087467 85.19925 
L 172.214109 79.204855 
L 172.340751 87.633223 
L 172.594036 79.498745 
L 172.847321 80.667051 
L 172.973963 80.387673 
L 173.100605 79.734583 
L 173.227248 81.262088 
L 173.35389 87.398435 
L 173.607174 80.529176 
L 173.733817 115.707977 
L 173.860459 80.645281 
L 174.113744 82.038539 
L 174.240386 81.944204 
L 174.367028 251.087986 
L 174.49367 83.457196 
L 174.620313 85.703716 
L 174.746955 84.912135 
L 174.873597 85.126203 
L 175.00024 83.602327 
L 175.126882 245.912963 
L 175.380166 84.592846 
L 175.506809 86.800283 
L 175.633451 83.326578 
L 175.760093 84.422317 
L 175.886736 82.495702 
L 176.013378 83.972411 
L 176.266662 80.989967 
L 176.393305 87.201578 
L 176.519947 82.873043 
L 176.646589 85.586994 
L 176.773232 84.349752 
L 177.026516 86.699639 
L 177.153158 82.629948 
L 177.279801 83.330206 
L 177.533085 80.144579 
L 177.659728 85.050009 
L 177.78637 80.405815 
L 177.913012 85.292528 
L 178.039655 80.924658 
L 178.166297 247.076334 
L 178.292939 80.92103 
L 178.419581 85.198579 
L 178.546224 81.443502 
L 178.672866 83.562416 
L 178.799508 81.450758 
L 178.926151 83.64768 
L 179.052793 305.757109 
L 179.179435 84.560192 
L 179.306077 82.655346 
L 179.43272 269.529112 
L 179.559362 85.765991 
L 179.812647 80.950056 
L 179.939289 79.885157 
L 180.065931 285.316727 
L 180.192573 83.094368 
L 180.319216 86.281514 
L 180.445858 80.37316 
L 180.699143 85.185371 
L 180.825785 105.293922 
L 180.952427 85.235051 
L 181.079069 90.519474 
L 181.205712 81.726507 
L 181.332354 81.715623 
L 181.458996 80.133694 
L 181.585639 84.800299 
L 181.712281 80.576344 
L 181.838923 84.298861 
L 182.092208 84.003251 
L 182.345492 81.86801 
L 182.472135 84.440459 
L 182.598777 84.041348 
L 182.725419 84.759747 
L 182.852062 82.767823 
L 182.978704 83.432849 
L 183.105346 259.250757 
L 183.231988 83.133976 
L 183.358631 85.073593 
L 183.611915 82.77508 
L 183.738558 82.256236 
L 183.8652 84.135683 
L 183.991842 83.381002 
L 184.118484 86.67413 
L 184.245127 82.709771 
L 184.371769 83.083483 
L 184.498411 89.39702 
L 184.625054 83.448432 
L 184.751696 86.54486 
L 185.00498 81.886152 
L 185.258265 85.695843 
L 185.384907 83.442683 
L 185.51155 92.001005 
L 185.638192 284.069394 
L 185.764834 83.333834 
L 186.018119 82.91114 
L 186.144761 85.120745 
L 186.271403 97.805781 
L 186.398046 85.906283 
L 186.65133 84.48037 
L 186.777973 85.430978 
L 186.904615 84.812357 
L 187.031257 85.750267 
L 187.157899 88.917771 
L 187.284542 83.478965 
L 187.537826 87.326753 
L 187.664469 88.126788 
L 187.917753 83.91073 
L 188.044395 86.399728 
L 188.171038 83.544274 
L 188.424322 85.44912 
L 188.550965 85.989733 
L 188.677607 99.637709 
L 188.804249 85.144345 
L 188.930891 84.473113 
L 189.057534 85.694556 
L 189.184176 85.296732 
L 189.310818 84.433202 
L 189.437461 87.002022 
L 189.564103 86.267296 
L 189.690745 84.266301 
L 189.817387 84.87948 
L 189.94403 90.893796 
L 190.070672 83.939757 
L 190.197314 84.654527 
L 190.323957 237.584736 
L 190.450599 85.489031 
L 190.577241 83.878076 
L 190.703883 84.552935 
L 190.830526 84.364265 
L 190.957168 247.920089 
L 191.08381 83.798254 
L 191.210453 87.021519 
L 191.337095 240.870584 
L 191.463737 248.764267 
L 191.59038 82.796849 
L 191.717022 80.547317 
L 191.843664 85.340272 
L 191.970306 80.81581 
L 192.223591 80.71059 
L 192.350233 83.814581 
L 192.476876 81.494298 
L 192.73016 80.957313 
L 192.856802 81.42536 
L 192.983445 80.601742 
L 193.110087 80.848464 
L 193.236729 256.651546 
L 193.363372 82.575524 
L 193.490014 80.81581 
L 193.616656 84.279679 
L 193.743298 110.20751 
L 193.869941 83.627725 
L 193.996583 83.408214 
L 194.123225 82.833132 
L 194.249868 91.731017 
L 194.37651 80.195375 
L 194.503152 79.988563 
L 194.629794 81.127842 
L 194.756437 80.423956 
L 194.883079 85.052972 
L 195.009721 80.819438 
L 195.136364 80.630768 
L 195.263006 83.058085 
L 195.389648 82.673488 
L 195.516291 101.458131 
L 195.642933 241.548556 
L 195.769575 81.309256 
L 195.896217 79.643876 
L 196.02286 80.964569 
L 196.276144 79.778123 
L 196.402787 79.897856 
L 196.529429 79.506002 
L 196.656071 82.401367 
L 196.782713 79.785379 
L 196.909356 80.300595 
L 197.035998 83.797519 
L 197.289283 81.534209 
L 197.415925 83.209722 
L 197.669209 80.271568 
L 197.795852 79.810777 
L 197.922494 227.606406 
L 198.049136 80.775899 
L 198.175779 79.76361 
L 198.302421 79.941395 
L 198.555705 271.833277 
L 198.682348 83.850864 
L 198.80899 247.770017 
L 198.935632 81.018993 
L 199.062275 89.636834 
L 199.188917 79.807375 
L 199.315559 82.588318 
L 199.442201 82.908445 
L 199.568844 89.75266 
L 199.822128 80.213516 
L 199.948771 79.992191 
L 200.075413 293.544142 
L 200.202055 79.42618 
L 200.45534 79.789007 
L 200.581982 79.40441 
L 200.708624 80.039359 
L 200.835267 79.745468 
L 200.961909 89.097959 
L 201.088551 79.059724 
L 201.215194 263.756075 
L 201.341836 91.755611 
L 201.468478 268.751512 
L 201.59512 82.163923 
L 201.721763 124.143815 
L 201.975047 79.683787 
L 202.10169 81.399963 
L 202.228332 79.513258 
L 202.354974 115.732422 
L 202.481616 291.191174 
L 202.608259 80.358647 
L 202.734901 79.121404 
L 202.861543 97.197914 
L 202.988186 79.542285 
L 203.114828 79.0053 
L 203.24147 79.291934 
L 203.368112 89.825136 
L 203.494755 81.96416 
L 203.621397 84.501565 
L 203.874682 79.052467 
L 204.001324 79.698301 
L 204.127966 79.433436 
L 204.254608 81.040856 
L 204.381251 80.68882 
L 204.507893 85.5121 
L 204.634535 79.255651 
L 204.761178 80.224401 
L 204.88782 341.121049 
L 205.014462 342.888291 
L 205.141105 82.071194 
L 205.267747 79.125033 
L 205.394389 106.439651 
L 205.521031 79.665646 
L 205.647674 79.513258 
L 205.774316 82.814991 
L 205.900958 300.189191 
L 206.027601 78.51911 
L 206.280885 83.794775 
L 206.53417 79.150431 
L 206.660812 81.28439 
L 206.787454 79.966793 
L 206.914097 84.733268 
L 207.040739 79.208483 
L 207.167381 80.717846 
L 207.294023 79.346358 
L 207.420666 82.181856 
L 207.547308 79.06698 
L 207.67395 82.282495 
L 207.800593 79.183085 
L 207.927235 79.495117 
L 208.053877 288.355104 
L 208.180519 80.144579 
L 208.307162 79.161316 
L 208.433804 83.19596 
L 208.560446 82.354199 
L 208.687089 79.513258 
L 208.813731 79.393525 
L 208.940373 79.484232 
L 209.067016 78.613446 
L 209.193658 79.84706 
L 209.3203 79.803521 
L 209.446942 80.046615 
L 209.573585 79.466091 
L 209.700227 83.347601 
L 209.826869 79.836175 
L 209.953512 83.610495 
L 210.080154 82.66986 
L 210.206796 79.756353 
L 210.333438 79.469719 
L 210.460081 79.857945 
L 210.586723 86.910558 
L 210.713365 79.498745 
L 210.840008 283.423681 
L 210.96665 79.302818 
L 211.093292 82.54287 
L 211.219934 99.621714 
L 211.473219 79.789007 
L 211.599861 88.989985 
L 211.726504 79.596709 
L 211.853146 277.196169 
L 211.979788 79.012556 
L 212.10643 81.951461 
L 212.233073 81.853497 
L 212.359715 87.115698 
L 212.486357 80.108296 
L 212.613 79.284677 
L 212.739642 106.123228 
L 212.866284 80.309282 
L 212.992926 82.585095 
L 213.119569 82.20544 
L 213.246211 107.604303 
L 213.372853 350.937168 
L 213.499496 79.252022 
L 213.626138 287.684021 
L 213.75278 297.411799 
L 213.879423 80.659794 
L 214.006065 108.688076 
L 214.132707 92.036078 
L 214.259349 288.188009 
L 214.385992 79.538656 
L 214.512634 79.560426 
L 214.639276 81.730136 
L 214.765919 80.235286 
L 214.892561 113.676734 
L 215.019203 229.282287 
L 215.145845 79.883343 
L 215.272488 79.934139 
L 215.525772 79.5314 
L 215.652415 82.325173 
L 215.779057 79.796264 
L 215.905699 80.264312 
L 216.032341 79.001671 
L 216.158984 81.635801 
L 216.285626 94.450752 
L 216.412268 79.034326 
L 216.538911 79.037954 
L 216.665553 282.235097 
L 216.792195 101.769795 
L 217.04548 79.734583 
L 217.172122 82.769637 
L 217.298764 81.077559 
L 217.425407 81.833542 
L 217.552049 80.006704 
L 217.678691 81.124213 
L 217.805334 79.074237 
L 217.931976 79.266536 
L 218.058618 272.748687 
L 218.18526 95.082614 
L 218.311903 79.629363 
L 218.438545 79.680159 
L 218.565187 80.431213 
L 218.69183 79.313703 
L 218.818472 80.137322 
L 218.945114 238.781486 
L 219.071756 237.123454 
L 219.198399 271.608596 
L 219.325041 85.556855 
L 219.451683 81.726507 
L 219.578326 124.791072 
L 219.83161 80.14095 
L 219.958252 81.377349 
L 220.084895 285.474357 
L 220.211537 79.502374 
L 220.338179 83.745283 
L 220.464822 83.964247 
L 220.591464 105.32931 
L 220.718106 79.357243 
L 220.844748 79.651133 
L 220.971391 79.386269 
L 221.098033 80.471124 
L 221.224675 80.257055 
L 221.351318 91.611627 
L 221.47796 87.872093 
L 221.604602 79.934139 
L 221.731244 82.317917 
L 221.984529 80.18449 
L 222.111171 79.408038 
L 222.364456 82.030394 
L 222.491098 82.662603 
L 222.617741 80.993595 
L 222.744383 82.771451 
L 222.871025 81.91155 
L 222.997667 82.77508 
L 223.12431 92.691106 
L 223.250952 254.932938 
L 223.377594 268.358688 
L 223.504237 79.698301 
L 223.630879 82.658975 
L 223.757521 79.72007 
L 223.884163 102.017391 
L 224.010806 79.756353 
L 224.26409 82.688001 
L 224.390733 282.066396 
L 224.517375 82.495702 
L 224.644017 257.261929 
L 224.770659 79.789007 
L 224.897302 79.923254 
L 225.023944 103.281434 
L 225.150586 80.104246 
L 225.277229 80.282453 
L 225.403871 82.891007 
L 225.530513 79.611222 
L 225.657155 79.888338 
L 225.783798 91.581513 
L 225.91044 249.976991 
L 226.037082 79.484232 
L 226.163725 79.349986 
L 226.290367 79.61485 
L 226.543651 79.29919 
L 226.670294 79.701929 
L 226.923578 89.080931 
L 227.176863 86.781329 
L 227.303505 79.498745 
L 227.430148 84.693267 
L 227.55679 272.333171 
L 227.683432 79.397154 
L 227.936717 80.801297 
L 228.063359 79.38264 
L 228.316644 82.096592 
L 228.443286 306.0099 
L 228.569928 79.593081 
L 228.69657 253.93767 
L 228.823213 79.190342 
L 228.949855 312.666233 
L 229.076497 79.527772 
L 229.20314 82.135298 
L 229.329782 79.589452 
L 229.456424 91.44603 
L 229.583066 80.721475 
L 229.709709 79.437065 
L 229.836351 90.040816 
L 230.089636 80.427584 
L 230.34292 84.419162 
L 230.469562 80.010332 
L 230.596205 81.837694 
L 230.722847 96.465761 
L 230.849489 260.452633 
L 230.976132 79.839803 
L 231.102774 79.767238 
L 231.229416 84.608025 
L 231.356059 79.324588 
L 231.482701 294.682825 
L 231.609343 80.311479 
L 231.735985 79.480604 
L 231.862628 82.930494 
L 232.115912 79.560426 
L 232.242555 83.785813 
L 232.369197 114.32252 
L 232.495839 81.427175 
L 232.622481 80.808553 
L 232.749124 79.484232 
L 232.875766 80.565459 
L 233.002408 273.917639 
L 233.129051 250.632075 
L 233.255693 82.375969 
L 233.382335 79.65839 
L 233.508977 280.567623 
L 233.63562 79.252022 
L 233.762262 80.068385 
L 233.888904 82.541056 
L 234.015547 81.490669 
L 234.142189 83.202758 
L 234.395473 79.698301 
L 234.522116 82.586409 
L 234.7754 79.738212 
L 234.902043 80.935543 
L 235.028685 79.941395 
L 235.155327 85.391581 
L 235.281969 79.262907 
L 235.408612 79.545913 
L 235.535254 79.331845 
L 235.661896 79.622107 
L 235.788539 82.880552 
L 235.915181 82.658975 
L 236.041823 103.267335 
L 236.168466 88.472932 
L 236.295108 273.562458 
L 236.42175 84.835593 
L 236.548392 80.032102 
L 236.675035 92.891441 
L 237.054962 79.08875 
L 237.181604 79.440693 
L 237.434888 83.271003 
L 237.561531 79.237509 
L 237.688173 79.781751 
L 237.814815 79.473347 
L 237.941458 83.414222 
L 238.0681 79.40441 
L 238.194742 107.371353 
L 238.321384 79.070609 
L 238.448027 79.50963 
L 238.701311 79.651133 
L 238.827954 91.144038 
L 238.954596 276.411778 
L 239.081238 79.582196 
L 239.20788 78.871053 
L 239.334523 79.429808 
L 239.461165 278.023844 
L 239.587807 97.311446 
L 239.71445 78.359466 
L 239.967734 79.5314 
L 240.094376 78.559022 
L 240.221019 78.939991 
L 240.347661 78.511854 
L 240.474303 78.696896 
L 240.600946 82.457597 
L 240.727588 79.08875 
L 240.85423 79.29919 
L 240.980873 88.576336 
L 241.107515 275.134644 
L 241.234157 79.030698 
L 241.360799 78.889195 
L 241.487442 79.150431 
L 241.614084 300.383471 
L 241.740726 84.095277 
L 241.867369 79.226625 
L 241.994011 78.77309 
L 242.120653 107.69079 
L 242.247295 79.103263 
L 242.373938 78.6461 
L 242.50058 111.331067 
L 242.627222 79.74184 
L 242.753865 79.408038 
L 243.007149 83.213362 
L 243.133791 263.025666 
L 243.260434 82.197146 
L 243.387076 79.048839 
L 243.513718 79.876086 
L 243.640361 85.066257 
L 243.767003 79.999448 
L 243.893645 81.621287 
L 244.020287 299.769752 
L 244.14693 82.357506 
L 244.273572 82.434606 
L 244.400214 81.958717 
L 244.653499 78.918221 
L 244.906784 80.431213 
L 245.033426 79.219368 
L 245.160068 79.466091 
L 245.28671 82.708407 
L 245.413353 79.524143 
L 245.539995 79.785379 
L 245.666637 83.040403 
L 245.919922 78.638844 
L 246.046564 79.480604 
L 246.173206 115.455604 
L 246.299849 81.866873 
L 246.426491 80.188118 
L 246.553133 91.258338 
L 246.679776 82.873043 
L 246.806418 96.297933 
L 247.059702 79.397154 
L 247.186345 79.29919 
L 247.439629 83.317631 
L 247.566272 90.63055 
L 247.692914 79.433436 
L 247.819556 79.161316 
L 247.946198 79.317331 
L 248.199483 133.161959 
L 248.326125 80.423956 
L 248.452768 81.526952 
L 248.57941 81.4689 
L 248.706052 81.189522 
L 248.832694 79.556798 
L 248.959337 93.088257 
L 249.085979 80.21528 
L 249.212621 79.212111 
L 249.339264 79.756353 
L 249.465906 88.057176 
L 249.592548 82.285262 
L 249.719191 265.469677 
L 249.845833 79.255651 
L 249.972475 79.295562 
L 250.099117 79.894228 
L 250.22576 79.40441 
L 250.352402 290.724149 
L 250.479044 79.854316 
L 250.605687 78.903708 
L 250.732329 88.811665 
L 250.858971 79.317331 
L 250.985613 90.772774 
L 251.238898 82.911394 
L 251.36554 79.886971 
L 251.492183 82.31066 
L 251.618825 79.444321 
L 251.745467 96.137126 
L 251.872109 79.567683 
L 251.998752 79.030698 
L 252.125394 79.589452 
L 252.252036 81.370936 
L 252.378679 81.490669 
L 252.505321 297.493549 
L 252.631963 79.611222 
L 252.758605 80.746873 
L 252.885248 276.959735 
L 253.01189 79.556798 
L 253.138532 79.564054 
L 253.265175 82.903863 
L 253.518459 79.056096 
L 253.645102 79.132289 
L 253.898386 83.509768 
L 254.025028 79.611222 
L 254.151671 92.310868 
L 254.278313 79.491489 
L 254.404955 78.954504 
L 254.531598 78.994415 
L 254.65824 78.686011 
L 254.784882 79.818034 
L 254.911524 289.623382 
L 255.038167 78.620702 
L 255.164809 79.012556 
L 255.291451 78.678755 
L 255.418094 97.338544 
L 255.671378 80.133694 
L 255.79802 80.212173 
L 255.924663 82.383471 
L 256.051305 79.29919 
L 256.177947 100.076677 
L 256.30459 95.573481 
L 256.431232 79.241138 
L 256.557874 82.118511 
L 256.684516 79.157687 
L 256.811159 78.813001 
L 256.937801 81.040763 
L 257.064443 94.97602 
L 257.191086 79.241138 
L 257.317728 292.929215 
L 257.44437 81.269345 
L 257.571012 81.029026 
L 257.824297 78.780346 
L 258.077582 82.212675 
L 258.204224 82.505795 
L 258.330866 79.255651 
L 258.457509 81.501554 
L 258.710793 78.979902 
L 258.837435 78.889195 
L 258.964078 83.047676 
L 259.217362 95.54867 
L 259.344005 339.92514 
L 259.470647 80.29522 
L 259.597289 299.050989 
L 259.723931 78.656985 
L 259.850574 79.034326 
L 259.977216 79.001671 
L 260.103858 82.404995 
L 260.230501 112.801477 
L 260.357143 79.560426 
L 260.483785 78.464686 
L 260.610427 87.932028 
L 260.73707 79.186713 
L 260.863712 79.21574 
L 260.990354 78.642472 
L 261.116997 78.77309 
L 261.243639 122.603225 
L 261.370281 308.447733 
L 261.496923 80.452982 
L 261.623566 78.813001 
L 261.750208 79.183085 
L 261.87685 115.44764 
L 262.003493 79.491489 
L 262.130135 80.986339 
L 262.256777 78.87831 
L 262.510062 97.998524 
L 262.763346 78.987158 
L 263.016631 79.462463 
L 263.143273 257.466729 
L 263.269916 78.910964 
L 263.396558 102.029269 
L 263.5232 79.037954 
L 263.649842 81.80633 
L 263.776485 303.197758 
L 263.903127 293.284458 
L 264.029769 87.339752 
L 264.156412 306.065483 
L 264.283054 321.245507 
L 264.409696 81.777303 
L 264.536338 78.642472 
L 264.662981 79.40441 
L 264.789623 81.794107 
L 265.042908 79.125033 
L 265.296192 82.071278 
L 265.422834 79.291934 
L 265.549477 84.400079 
L 265.676119 78.805744 
L 265.802761 85.333937 
L 265.929404 79.154059 
L 266.30933 104.613301 
L 266.689257 79.146802 
L 266.8159 78.96176 
L 266.942542 92.110056 
L 267.069184 268.177371 
L 267.195827 81.606774 
L 267.322469 83.031363 
L 267.449111 82.390482 
L 267.575753 79.157687 
L 267.702396 80.046615 
L 267.829038 79.466091 
L 267.95568 81.62673 
L 268.082323 79.063352 
L 268.208965 81.066556 
L 268.335607 79.157687 
L 268.462249 79.560426 
L 268.588892 78.860169 
L 268.715534 111.013143 
L 268.842176 78.925478 
L 268.968819 84.205158 
L 269.095461 79.266536 
L 269.222103 78.881938 
L 269.348745 79.233881 
L 269.475388 80.558202 
L 269.60203 316.073511 
L 269.728672 85.542147 
L 269.855315 79.411667 
L 270.108599 79.331845 
L 270.235241 80.670679 
L 270.361884 118.957722 
L 270.488526 78.544508 
L 270.615168 82.789658 
L 270.741811 79.506002 
L 270.868453 81.398148 
L 270.995095 79.288305 
L 271.121737 294.284943 
L 271.24838 91.455808 
L 271.375022 81.392706 
L 271.501664 83.165312 
L 271.628307 79.092378 
L 271.754949 79.444321 
L 271.881591 81.579159 
L 272.008234 110.284144 
L 272.134876 79.284677 
L 272.261518 79.810777 
L 272.38816 79.618478 
L 272.514803 78.969017 
L 272.768087 79.313703 
L 272.89473 94.428193 
L 273.021372 79.752725 
L 273.148014 82.013601 
L 273.274656 102.832542 
L 273.654583 79.077865 
L 273.781226 78.765833 
L 273.907868 255.241097 
L 274.03451 79.063352 
L 274.161152 80.960941 
L 274.287795 91.901137 
L 274.414437 81.958993 
L 274.541079 314.068775 
L 274.667722 78.809373 
L 274.921006 79.582196 
L 275.047648 79.226625 
L 275.174291 92.912589 
L 275.300933 78.577163 
L 275.427575 81.345538 
L 275.554218 79.135918 
L 275.68086 81.989756 
L 275.807502 79.553169 
L 275.934144 338.263659 
L 276.060787 79.76361 
L 276.187429 79.553169 
L 276.440714 78.972645 
L 276.567356 104.721582 
L 276.820641 79.549541 
L 276.947283 79.063352 
L 277.073925 283.760569 
L 277.200567 94.373832 
L 277.32721 81.373556 
L 277.453852 79.948652 
L 277.580494 263.343349 
L 277.707137 268.929022 
L 277.833779 88.104585 
L 277.960421 105.82355 
L 278.087063 78.805744 
L 278.213706 79.408038 
L 278.340348 81.441385 
L 278.46699 81.167753 
L 278.593633 82.48404 
L 278.846917 79.212111 
L 278.973559 79.1722 
L 279.226844 88.648397 
L 279.353486 88.134376 
L 279.480129 79.371756 
L 279.606771 81.243947 
L 279.733413 280.73288 
L 279.860055 81.996814 
L 279.986698 78.925478 
L 280.11334 79.821662 
L 280.239982 84.895121 
L 280.493267 79.411667 
L 280.619909 297.017844 
L 280.746552 83.173057 
L 280.999836 79.019813 
L 281.126478 78.718666 
L 281.253121 125.817916 
L 281.379763 79.030698 
L 281.506405 317.738147 
L 281.633048 78.707781 
L 281.75969 111.182888 
L 281.886332 79.19397 
L 282.139617 79.593081 
L 282.266259 78.747692 
L 282.392901 78.90008 
L 282.519544 79.255651 
L 282.646186 80.677935 
L 282.772828 78.798488 
L 282.89947 82.693443 
L 283.026113 96.407398 
L 283.152755 80.311479 
L 283.279397 302.313252 
L 283.40604 80.532804 
L 283.532682 79.368127 
L 283.659324 80.867302 
L 283.785966 78.969017 
L 283.912609 87.819812 
L 284.039251 113.047305 
L 284.165893 308.952473 
L 284.292536 79.19397 
L 284.419178 83.877904 
L 284.54582 82.434022 
L 284.672462 96.132776 
L 284.799105 79.506002 
L 284.925747 78.943619 
L 285.052389 81.454387 
L 285.179032 89.220466 
L 285.305674 79.527772 
L 285.432316 277.874272 
L 285.558959 79.027069 
L 285.685601 79.266536 
L 285.812243 156.637084 
L 285.938885 79.11052 
L 286.065528 79.810777 
L 286.19217 92.485184 
L 286.318812 79.738212 
L 286.445455 100.040481 
L 286.572097 79.226625 
L 286.698739 79.97405 
L 286.825381 79.63662 
L 286.952024 81.351161 
L 287.078666 79.578567 
L 287.205308 79.61485 
L 287.331951 271.336719 
L 287.458593 80.224401 
L 287.585235 79.912369 
L 287.711877 80.503778 
L 287.83852 79.335473 
L 287.965162 82.225636 
L 288.091804 106.897401 
L 288.345089 82.33243 
L 288.471731 79.807149 
L 288.598373 96.436944 
L 288.725016 79.208483 
L 288.851658 79.21574 
L 288.9783 79.850688 
L 289.104943 81.715623 
L 289.231585 81.349167 
L 289.484869 79.567683 
L 289.611512 86.666753 
L 289.738154 81.570492 
L 289.864796 81.334654 
L 289.991439 103.421158 
L 290.244723 78.965389 
L 290.371366 79.273792 
L 290.498008 81.904293 
L 290.751292 79.175829 
L 290.877935 85.749784 
L 291.004577 79.335473 
L 291.131219 275.632064 
L 291.257862 81.323769 
L 291.384504 82.027654 
L 291.511146 79.226625 
L 291.637788 112.381264 
L 291.764431 79.50963 
L 291.891073 79.934139 
L 292.017715 295.951843 
L 292.144358 274.805783 
L 292.271 79.259279 
L 292.397642 85.290263 
L 292.524284 79.665646 
L 292.650927 79.814405 
L 292.777569 83.133664 
L 292.904211 78.925478 
L 293.284138 81.461643 
L 293.41078 79.146802 
L 293.537423 103.778853 
L 293.664065 79.1722 
L 293.790707 78.925478 
L 294.043992 91.356403 
L 294.170634 79.418923 
L 294.423919 84.82707 
L 294.550561 250.585646 
L 294.677203 80.177233 
L 294.803846 79.143174 
L 294.930488 279.655666 
L 295.05713 81.643057 
L 295.183773 79.778123 
L 295.310415 83.113185 
L 295.563699 80.859349 
L 295.690342 78.925478 
L 295.816984 82.807734 
L 295.943626 81.962345 
L 296.070269 79.807149 
L 296.196911 79.632992 
L 296.323553 80.3055 
L 296.450195 88.356412 
L 296.70348 78.791231 
L 296.956765 84.371522 
L 297.083407 79.371756 
L 297.210049 94.405498 
L 297.463334 81.581376 
L 297.589976 82.557383 
L 297.843261 78.860169 
L 297.969903 79.538656 
L 298.096545 81.759162 
L 298.223187 79.502374 
L 298.34983 246.095437 
L 298.476472 79.40441 
L 298.603114 83.939386 
L 298.856399 79.451578 
L 298.983041 79.549541 
L 299.109684 87.980674 
L 299.236326 79.440693 
L 299.362968 79.19397 
L 299.48961 88.061116 
L 299.616253 79.629363 
L 299.742895 82.590037 
L 299.99618 79.241138 
L 300.122822 82.071194 
L 300.249464 102.878997 
L 300.376106 95.378919 
L 300.502749 79.266536 
L 300.629391 80.144579 
L 300.756033 79.393525 
L 300.882676 80.093783 
L 301.009318 79.63662 
L 301.13596 79.716442 
L 301.262602 94.074739 
L 301.515887 80.503778 
L 301.642529 79.527772 
L 301.769172 80.053872 
L 301.895814 79.683787 
L 302.022456 79.93051 
L 302.275741 87.022769 
L 302.402383 95.124951 
L 302.529025 82.590578 
L 302.655668 97.768775 
L 302.78231 80.064757 
L 302.908952 79.179457 
L 303.035595 83.634536 
L 303.162237 79.854316 
L 303.288879 79.984934 
L 303.415521 88.008824 
L 303.668806 79.926882 
L 303.795448 80.467495 
L 303.922091 105.901685 
L 304.175375 80.010332 
L 304.302017 247.157549 
L 304.42866 96.360646 
L 304.555302 79.433436 
L 304.681944 79.941395 
L 304.808587 248.369306 
L 304.935229 78.987158 
L 305.061871 79.792636 
L 305.188513 79.643876 
L 305.315156 84.467115 
L 305.441798 79.879714 
L 305.695083 82.815443 
L 305.821725 241.762023 
L 305.948367 82.39411 
L 306.075009 79.542285 
L 306.201652 98.950036 
L 306.328294 79.698301 
L 306.454936 83.401326 
L 306.581579 79.244766 
L 306.708221 79.691044 
L 306.834863 87.496045 
L 306.961505 257.75431 
L 307.088148 79.607594 
L 307.21479 80.053872 
L 307.341432 79.506002 
L 307.594717 85.679812 
L 307.721359 258.744466 
L 307.848002 79.828919 
L 307.974644 80.376788 
L 308.101286 89.982209 
L 308.227928 83.479685 
L 308.354571 83.989918 
L 308.481213 81.399963 
L 308.607855 83.312065 
L 308.734498 82.132875 
L 308.86114 243.471733 
L 309.114424 79.810777 
L 309.367709 80.387673 
L 309.620994 80.271568 
L 309.747636 79.262907 
L 309.874278 258.157069 
L 310.00092 79.93051 
L 310.127563 80.111924 
L 310.254205 95.96373 
L 310.380847 79.832547 
L 310.50749 81.013363 
L 310.634132 80.45886 
L 310.760774 82.459419 
L 310.887416 92.619306 
L 311.014059 85.089211 
L 311.140701 84.822936 
L 311.267343 83.012053 
L 311.393986 90.7573 
L 311.520628 82.902069 
L 311.64727 281.223353 
L 311.773912 82.252608 
L 312.027197 79.081493 
L 312.153839 79.727327 
L 312.407124 86.137398 
L 312.533766 79.687416 
L 312.787051 79.564054 
L 312.913693 83.741471 
L 313.040335 79.099635 
L 313.166978 88.183777 
L 313.29362 79.723698 
L 313.420262 79.281049 
L 313.800189 83.735499 
L 313.926831 80.228029 
L 314.053474 82.590037 
L 314.180116 79.894228 
L 314.306758 81.953275 
L 314.560043 79.923254 
L 314.686685 256.593515 
L 314.813327 80.191746 
L 314.93997 242.51164 
L 315.066612 79.574939 
L 315.193254 83.309042 
L 315.319897 82.207806 
L 315.446539 79.647505 
L 315.573181 83.050829 
L 315.699823 80.082898 
L 315.826466 82.57371 
L 315.953108 79.651133 
L 316.07975 79.76361 
L 316.206393 79.571311 
L 316.333035 124.52461 
L 316.459677 80.046615 
L 316.58632 87.458435 
L 316.712962 79.593081 
L 316.839604 86.1478 
L 316.966246 79.281049 
L 317.092889 256.822417 
L 317.219531 88.291058 
L 317.346173 79.40441 
L 317.472816 82.321545 
L 317.7261 79.281049 
L 317.852742 79.125033 
L 317.979385 79.850688 
L 318.106027 79.82529 
L 318.232669 82.472118 
L 318.359312 79.832547 
L 318.485954 79.792636 
L 318.612596 79.455206 
L 318.739238 79.992191 
L 318.865881 81.218549 
L 318.992523 79.879714 
L 319.119165 82.599108 
L 319.245808 79.977678 
L 319.37245 84.460624 
L 319.499092 80.195375 
L 319.625734 82.285262 
L 319.752377 79.955908 
L 319.879019 80.217144 
L 320.005661 79.95228 
L 320.132304 249.274419 
L 320.258946 78.903708 
L 320.385588 79.135918 
L 320.51223 82.718452 
L 320.638873 79.65839 
L 320.765515 98.475754 
L 320.892157 80.357266 
L 321.145442 82.922348 
L 321.272084 79.447949 
L 321.398727 79.458834 
L 321.525369 273.590787 
L 321.652011 79.850688 
L 321.778653 79.408038 
L 321.905296 80.010332 
L 322.031938 82.80592 
L 322.15858 82.876671 
L 322.285223 78.921849 
L 322.411865 224.971773 
L 322.538507 85.314294 
L 322.665149 81.247575 
L 322.791792 86.859089 
L 322.918434 98.329002 
L 323.045076 253.434799 
L 323.171719 81.570492 
L 323.298361 81.706552 
L 323.425003 80.137322 
L 323.551645 83.12326 
L 323.678288 79.375384 
L 323.80493 107.483384 
L 323.931572 79.48786 
L 324.058215 248.588382 
L 324.184857 81.976859 
L 324.311499 81.92062 
L 324.564784 79.008928 
L 324.691426 82.118361 
L 324.818068 81.485227 
L 324.944711 84.05805 
L 325.071353 81.127842 
L 325.197995 222.257806 
L 325.324637 79.778123 
L 325.45128 93.538328 
L 325.704564 79.542285 
L 325.831207 241.281106 
L 325.957849 80.26794 
L 326.084491 80.79404 
L 326.211134 82.891184 
L 326.337776 79.480604 
L 326.464418 87.672915 
L 326.59106 82.071194 
L 326.717703 83.170562 
L 326.844345 79.803521 
L 326.970987 80.238914 
L 327.09763 79.40441 
L 327.224272 116.411097 
L 327.350914 111.888565 
L 327.477556 82.314288 
L 327.604199 82.455791 
L 327.730841 80.148207 
L 327.857483 79.966793 
L 327.984126 83.449939 
L 328.110768 80.159092 
L 328.23741 217.311394 
L 328.364052 83.515248 
L 328.617337 79.821662 
L 328.743979 89.322888 
L 328.997264 79.84706 
L 329.123906 85.896386 
L 329.377191 80.496522 
L 329.503833 84.298817 
L 329.630475 95.985812 
L 329.757118 79.571311 
L 329.88376 83.932557 
L 330.010402 83.021802 
L 330.137045 247.91357 
L 330.390329 82.736983 
L 330.643614 80.18449 
L 330.770256 83.531575 
L 330.896898 98.711733 
L 331.023541 89.476282 
L 331.150183 216.610812 
L 331.276825 79.818034 
L 331.403467 84.583191 
L 331.656752 80.003076 
L 331.783394 83.379188 
L 331.910037 93.777078 
L 332.036679 80.235286 
L 332.163321 215.038916 
L 332.289963 84.814171 
L 332.416606 79.792636 
L 332.543248 80.496522 
L 332.66989 80.064757 
L 332.796533 80.83272 
L 332.923175 82.934231 
L 333.049817 82.147388 
L 333.176459 80.449354 
L 333.303102 80.677935 
L 333.429744 84.271247 
L 333.556386 83.947013 
L 333.683029 80.115552 
L 333.809671 80.714218 
L 333.936313 80.137322 
L 334.062955 85.699041 
L 334.189598 80.47838 
L 334.31624 84.384785 
L 334.442882 80.188118 
L 334.569525 196.27984 
L 334.696167 80.24617 
L 334.949452 80.946428 
L 335.076094 80.50015 
L 335.202736 215.335359 
L 335.329378 189.466312 
L 335.456021 80.206259 
L 335.582663 83.464452 
L 335.835948 80.202631 
L 335.96259 87.813163 
L 336.215874 81.508811 
L 336.342517 80.641653 
L 336.469159 81.084302 
L 336.595801 87.543982 
L 336.722444 81.058904 
L 336.849086 82.898441 
L 336.975728 241.026248 
L 337.10237 83.477871 
L 337.229013 82.760566 
L 337.355655 80.714218 
L 337.482297 83.790997 
L 337.60894 80.68882 
L 337.735582 81.040763 
L 337.862224 80.431213 
L 337.988866 84.186479 
L 338.115509 221.302421 
L 338.242151 81.251203 
L 338.368793 80.442097 
L 338.495436 81.062533 
L 338.622078 83.556179 
L 338.74872 83.529761 
L 338.875363 82.796849 
L 339.128647 79.393525 
L 339.255289 80.463867 
L 339.381932 80.449354 
L 339.508574 82.687984 
L 339.635216 79.84706 
L 339.761859 80.296966 
L 339.888501 223.06438 
L 340.015143 80.24617 
L 340.141785 81.530581 
L 340.268428 79.643876 
L 340.39507 79.705557 
L 340.521712 79.545913 
L 340.774997 80.344134 
L 340.901639 79.709185 
L 341.028281 125.357815 
L 341.154924 82.655346 
L 341.281566 80.45661 
L 341.408208 234.317234 
L 341.534851 82.91114 
L 341.661493 81.120585 
L 341.914777 91.903037 
L 342.04142 80.797669 
L 342.168062 82.169157 
L 342.294704 80.859349 
L 342.421347 93.438859 
L 342.547989 80.532804 
L 342.674631 79.76361 
L 342.801273 80.046615 
L 342.927916 79.752725 
L 343.1812 85.847425 
L 343.307843 102.595286 
L 343.434485 82.54287 
L 343.68777 83.627725 
L 343.814412 87.1023 
L 343.941054 83.942125 
L 344.067696 250.005698 
L 344.194339 80.275197 
L 344.320981 84.632163 
L 344.447623 120.845642 
L 344.574266 228.369803 
L 344.700908 82.934724 
L 344.954192 79.680159 
L 345.080835 101.150902 
L 345.207477 79.792636 
L 345.334119 82.33243 
L 345.587404 79.723698 
L 345.714046 82.854902 
L 345.840688 79.945023 
L 345.967331 83.254012 
L 346.093973 234.554198 
L 346.220615 82.785132 
L 346.347258 85.9951 
L 346.4739 80.492893 
L 346.600542 128.775083 
L 346.727184 80.249799 
L 346.853827 87.226884 
L 346.980469 82.41588 
L 347.107111 83.906213 
L 347.233754 82.561011 
L 347.360396 79.915997 
L 347.487038 90.503728 
L 347.61368 269.692987 
L 347.740323 80.010332 
L 347.866965 82.43765 
L 347.993607 242.0594 
L 348.12025 80.242542 
L 348.246892 84.458817 
L 348.373534 92.496013 
L 348.500177 79.491489 
L 348.626819 79.850688 
L 348.753461 81.247575 
L 348.880103 99.614337 
L 349.006746 79.640248 
L 349.133388 80.0575 
L 349.26003 82.387239 
L 349.386673 225.732597 
L 349.513315 91.657097 
L 349.639957 212.202015 
L 349.766599 79.705557 
L 350.019884 79.632992 
L 350.146526 80.151835 
L 350.399811 80.030121 
L 350.526453 88.304983 
L 350.653095 79.749096 
L 350.779738 79.418923 
L 350.90638 80.416699 
L 351.033022 79.995819 
L 351.159665 93.273279 
L 351.286307 81.693853 
L 351.412949 82.210221 
L 351.539591 85.271841 
L 351.666234 79.926413 
L 351.792876 89.336659 
L 351.919518 79.564054 
L 352.046161 81.628544 
L 352.172803 80.017589 
L 352.299445 80.006704 
L 352.426088 83.35006 
L 352.55273 82.481189 
L 352.679372 82.931095 
L 352.806014 84.72482 
L 352.932657 79.012556 
L 353.059299 92.644466 
L 353.312584 79.564054 
L 353.439226 124.17309 
L 353.565868 231.409485 
L 353.69251 79.364499 
L 353.945795 86.417731 
L 354.072437 79.705557 
L 354.19908 83.415358 
L 354.325722 226.418528 
L 354.452364 79.82529 
L 354.579006 81.175009 
L 354.705649 79.252022 
L 354.832291 79.175829 
L 355.085576 83.367016 
L 355.212218 82.553755 
L 355.33886 79.578567 
L 355.465502 82.156458 
L 355.592145 79.545913 
L 355.718787 87.450908 
L 355.972072 79.063352 
L 356.098714 78.885566 
L 356.225356 81.998628 
L 356.351998 81.461643 
L 356.478641 80.275197 
L 356.605283 80.180861 
L 356.731925 85.657867 
L 356.858568 79.154059 
L 356.98521 283.817327 
L 357.111852 100.601629 
L 357.238495 79.29919 
L 357.365137 88.543299 
L 357.491779 79.651133 
L 357.618421 79.506002 
L 357.745064 82.231876 
L 357.871706 79.270164 
L 357.998348 79.117776 
L 358.124991 81.770047 
L 358.251633 81.791816 
L 358.378275 79.29919 
L 358.504917 79.168572 
L 358.758202 81.403591 
L 358.884844 91.727603 
L 359.011487 78.87831 
L 359.138129 79.745468 
L 359.264771 79.723698 
L 359.391413 79.331845 
L 359.518056 81.842612 
L 359.644698 79.727327 
L 359.77134 99.493317 
L 359.897983 80.072013 
L 360.024625 79.368127 
L 360.151267 79.567683 
L 360.277909 79.527772 
L 360.404552 81.741212 
L 360.531194 79.966793 
L 360.657836 241.295658 
L 360.784479 93.41849 
L 360.911121 80.013961 
L 361.037763 80.003076 
L 361.164405 79.738212 
L 361.291048 79.012556 
L 361.544332 88.266074 
L 361.670975 79.168572 
L 361.797617 79.622107 
L 361.924259 99.461098 
L 362.050902 96.12653 
L 362.177544 278.097179 
L 362.304186 79.458834 
L 362.430828 82.346943 
L 362.557471 79.364499 
L 362.684113 79.963165 
L 362.810755 83.140856 
L 362.937398 79.328216 
L 363.06404 81.929691 
L 363.190682 266.10022 
L 363.317324 81.980487 
L 363.570609 83.043572 
L 363.697251 79.451578 
L 363.823894 80.358647 
L 363.950536 244.904924 
L 364.077178 79.444321 
L 364.20382 80.8818 
L 364.330463 219.381101 
L 364.457105 83.043572 
L 364.583747 85.292103 
L 364.837032 81.055276 
L 364.963674 79.672903 
L 365.090316 96.543222 
L 365.343601 80.072013 
L 365.470243 82.860344 
L 365.723528 79.730955 
L 365.85017 95.215195 
L 365.976813 80.093783 
L 366.103455 83.380508 
L 366.230097 80.010332 
L 366.356739 80.612626 
L 366.483382 80.496522 
L 366.610024 79.730955 
L 366.736666 83.462544 
L 366.863309 80.14095 
L 366.989951 80.195375 
L 367.116593 93.879406 
L 367.243235 80.224401 
L 367.369878 80.03573 
L 367.49652 82.190927 
L 367.623162 81.682968 
L 367.749805 223.415494 
L 367.876447 79.785379 
L 368.129731 80.833951 
L 368.383016 80.217144 
L 368.509658 278.466485 
L 368.636301 79.807149 
L 368.889585 81.523324 
L 369.016227 82.499331 
L 369.14287 82.056681 
L 369.269512 83.366489 
L 369.396154 285.282057 
L 369.522797 87.260409 
L 369.649439 81.222177 
L 369.776081 82.795035 
L 370.029366 80.228029 
L 370.156008 99.177451 
L 370.28265 84.820849 
L 370.409293 83.882098 
L 370.662577 84.652713 
L 370.78922 83.468081 
L 370.915862 84.864967 
L 371.042504 83.59507 
L 371.169146 84.259045 
L 371.295789 82.022212 
L 371.422431 84.625501 
L 371.549073 258.100642 
L 371.675716 84.610988 
L 371.802358 86.64387 
L 372.055642 83.928872 
L 372.182285 83.671264 
L 372.435569 88.946652 
L 372.562212 87.397183 
L 372.688854 226.834119 
L 372.815496 83.830908 
L 372.942138 246.071961 
L 373.068781 84.306213 
L 373.195423 214.366162 
L 373.322065 85.004656 
L 373.448708 86.191102 
L 373.57535 85.614206 
L 373.828634 84.030463 
L 373.955277 258.882081 
L 374.081919 205.975145 
L 374.208561 256.686632 
L 374.335204 88.016126 
L 374.588488 86.145749 
L 374.841773 84.534794 
L 374.968415 85.969307 
L 375.095057 85.724869 
L 375.2217 86.10221 
L 375.474984 83.050829 
L 375.601627 84.962931 
L 375.728269 199.10285 
L 375.854911 83.51162 
L 376.108196 82.401367 
L 376.234838 83.555159 
L 376.36148 85.779293 
L 376.488123 84.87948 
L 376.614765 82.668045 
L 376.741407 209.308476 
L 376.868049 83.725688 
L 377.121334 82.517472 
L 377.247976 82.938352 
L 377.501261 86.254133 
L 377.627903 83.137907 
L 377.754545 212.368768 
L 377.881188 84.614616 
L 378.00783 83.997809 
L 378.134472 86.492401 
L 378.387757 83.761971 
L 378.514399 191.212788 
L 378.641041 84.545679 
L 378.767684 84.944789 
L 378.894326 92.473272 
L 379.020968 85.376554 
L 379.147611 84.531166 
L 379.274253 86.180218 
L 379.400895 85.946194 
L 379.527538 207.311077 
L 379.65418 176.586758 
L 379.780822 85.608764 
L 380.034107 85.974319 
L 380.160749 84.066746 
L 380.287391 169.850293 
L 380.414034 85.242308 
L 380.540676 83.486222 
L 380.667318 91.147275 
L 380.79396 83.674892 
L 380.920603 86.153646 
L 381.047245 83.032687 
L 381.173887 85.839157 
L 381.30053 84.825056 
L 381.427172 84.812357 
L 381.553814 83.094368 
L 381.680456 84.048605 
L 381.807099 86.243713 
L 381.933741 84.959302 
L 382.060383 196.678097 
L 382.187026 82.531985 
L 382.313668 86.119319 
L 382.44031 86.174775 
L 382.693595 83.620468 
L 382.820237 87.57529 
L 382.946879 85.063193 
L 383.073522 87.834679 
L 383.200164 81.581376 
L 383.326806 82.873043 
L 383.453448 82.640833 
L 383.706733 84.990143 
L 383.833375 81.91155 
L 383.960018 82.778708 
L 384.08666 86.169243 
L 384.466587 82.782336 
L 384.593229 81.614031 
L 384.846514 84.79603 
L 384.973156 82.825875 
L 385.226441 84.596475 
L 385.353083 81.715623 
L 385.479725 81.465272 
L 385.606367 80.862978 
L 385.986294 81.965974 
L 386.112937 80.902889 
L 386.239579 81.011737 
L 386.492863 87.443026 
L 386.619506 81.922434 
L 386.746148 84.451344 
L 386.87279 80.886561 
L 386.999433 84.752491 
L 387.126075 81.25846 
L 387.252717 201.18304 
L 387.379359 84.152011 
L 387.506002 84.509396 
L 387.632644 81.485227 
L 387.759286 84.06856 
L 387.885929 189.969533 
L 388.012571 194.612536 
L 388.139213 207.95933 
L 388.265856 85.851859 
L 388.51914 81.922434 
L 388.645782 84.505768 
L 388.772425 108.511122 
L 389.025709 82.143759 
L 389.152352 82.187299 
L 389.278994 82.934724 
L 389.405636 184.369999 
L 389.532278 81.559607 
L 389.658921 82.749682 
L 389.785563 85.146159 
L 389.912205 200.748588 
L 390.038848 83.172376 
L 390.16549 84.237275 
L 390.292132 83.027245 
L 390.418774 83.634981 
L 390.545417 80.779527 
L 390.672059 84.803286 
L 390.798701 84.770632 
L 390.925344 86.924869 
L 391.051986 201.468827 
L 391.178628 86.626496 
L 391.30527 83.716617 
L 391.431913 88.836117 
L 391.685197 82.272563 
L 391.81184 85.496287 
L 391.938482 84.756119 
L 392.065124 198.69985 
L 392.191766 172.22995 
L 392.318409 88.717856 
L 392.445051 83.072598 
L 392.571693 184.346432 
L 392.698336 83.838165 
L 392.824978 86.673663 
L 392.95162 84.494883 
L 393.078263 86.047786 
L 393.204905 201.099209 
L 393.331547 85.423722 
L 393.458189 86.16389 
L 393.584832 88.467223 
L 393.711474 84.962931 
L 393.838116 99.963094 
L 393.964759 83.925243 
L 394.091401 83.948827 
L 394.218043 85.278591 
L 394.471328 83.84905 
L 394.59797 86.218315 
L 394.724612 84.941161 
L 394.851255 183.537977 
L 394.977897 85.648675 
L 395.231181 85.311245 
L 395.357824 83.685777 
L 395.484466 85.249565 
L 395.611108 83.533389 
L 395.737751 83.560602 
L 395.864393 82.854902 
L 395.991035 84.22639 
L 396.117677 84.171966 
L 396.24432 87.642297 
L 396.497604 82.10022 
L 396.624247 85.541641 
L 396.750889 84.400548 
L 396.877531 84.610988 
L 397.004173 81.432617 
L 397.130816 84.26993 
L 397.257458 81.797259 
L 397.3841 86.007228 
L 397.637385 83.333834 
L 397.764027 203.946339 
L 397.89067 87.477745 
L 398.017312 80.681564 
L 398.143954 193.637734 
L 398.270596 205.860935 
L 398.397239 80.423956 
L 398.523881 217.873649 
L 398.650523 98.208821 
L 398.777166 83.566044 
L 399.157092 79.204855 
L 399.283735 80.090154 
L 399.410377 82.98552 
L 399.537019 80.093783 
L 399.790304 84.055185 
L 400.043588 79.828919 
L 400.170231 80.648909 
L 400.296873 83.032687 
L 400.423515 79.937767 
L 400.550158 198.198346 
L 400.6768 87.305346 
L 400.803442 80.177233 
L 400.930084 80.828509 
L 401.056727 82.434022 
L 401.183369 81.813586 
L 401.436654 83.234057 
L 401.563296 82.514928 
L 401.689938 79.752725 
L 401.816581 80.745059 
L 401.943223 208.009847 
L 402.069865 79.603965 
L 402.32315 80.068385 
L 402.449792 84.577486 
L 402.576434 80.347762 
L 402.703077 80.521919 
L 402.829719 79.926882 
L 402.956361 87.78345 
L 403.083003 81.76279 
L 403.209646 92.686882 
L 403.336288 80.931915 
L 403.46293 82.325173 
L 403.589573 79.832547 
L 403.716215 79.640248 
L 403.842857 80.151835 
L 403.969499 225.151283 
L 404.096142 79.832547 
L 404.222784 80.119181 
L 404.349426 132.399795 
L 404.602711 82.760566 
L 404.729353 80.304223 
L 404.855995 184.207435 
L 404.982638 79.774494 
L 405.10928 80.082898 
L 405.235922 81.866823 
L 405.362565 99.774371 
L 405.489207 82.479764 
L 405.615849 85.880361 
L 405.742491 79.865201 
L 405.869134 204.482203 
L 405.995776 84.061321 
L 406.122418 80.648909 
L 406.249061 219.562502 
L 406.375703 80.492893 
L 406.502345 83.261598 
L 406.628988 79.923254 
L 406.75563 80.685192 
L 406.882272 79.662018 
L 407.008914 91.728002 
L 407.135557 80.278825 
L 407.262199 80.652537 
L 407.388841 82.461234 
L 407.642126 79.923254 
L 407.89541 79.683787 
L 408.022053 211.4194 
L 408.148695 86.408035 
L 408.275337 80.725103 
L 408.40198 228.139876 
L 408.528622 80.082898 
L 408.655264 80.017589 
L 408.781906 80.104668 
L 408.908549 79.125033 
L 409.035191 80.45661 
L 409.161833 80.28971 
L 409.288476 79.698301 
L 409.668402 80.238914 
L 409.921687 83.840254 
L 410.048329 81.25846 
L 410.174972 83.039944 
L 410.301614 80.188118 
L 410.428256 80.358647 
L 410.554898 82.900255 
L 410.681541 94.940435 
L 410.808183 207.504427 
L 410.934825 80.964569 
L 411.061468 197.271405 
L 411.18811 200.895101 
L 411.314752 81.855311 
L 411.441395 80.659794 
L 411.568037 216.712993 
L 411.694679 231.434035 
L 411.821321 80.797669 
L 411.947964 79.995819 
L 412.074606 80.60537 
L 412.201248 80.638024 
L 412.327891 80.042987 
L 412.454533 223.783031 
L 412.581175 80.529176 
L 412.707817 79.915997 
L 412.961102 82.796849 
L 413.341029 79.897856 
L 413.467671 80.387673 
L 413.594313 84.487626 
L 413.720956 84.230019 
L 413.847598 83.079855 
L 413.97424 87.654486 
L 414.227525 80.68882 
L 414.354167 81.287486 
L 414.480809 213.701225 
L 414.607452 82.336058 
L 414.734094 203.755037 
L 414.860736 80.521919 
L 414.987379 80.612626 
L 415.114021 94.59859 
L 415.240663 80.507406 
L 415.367306 86.458618 
L 415.62059 82.147388 
L 415.747232 80.79404 
L 415.873875 185.255838 
L 416.000517 81.080674 
L 416.253802 201.422903 
L 416.380444 84.298956 
L 416.507086 81.70111 
L 416.760371 82.365084 
L 416.887013 81.726507 
L 417.013655 85.757523 
L 417.140298 81.458015 
L 417.26694 213.469925 
L 417.393582 81.955089 
L 417.520224 84.79603 
L 417.646867 80.645281 
L 417.773509 92.455553 
L 417.900151 83.460824 
L 418.026794 83.09074 
L 418.153436 80.423956 
L 418.280078 203.625525 
L 418.40672 202.170882 
L 418.533363 81.516067 
L 418.660005 83.792503 
L 418.786647 82.154644 
L 418.91329 85.503544 
L 419.039932 84.004914 
L 419.166574 181.556964 
L 419.293216 191.053271 
L 419.419859 184.032548 
L 419.546501 80.075641 
L 419.799786 83.899845 
L 419.926428 80.231657 
L 420.05307 80.866606 
L 420.306355 80.325993 
L 420.432997 83.48985 
L 420.559639 80.206259 
L 420.686282 101.39697 
L 420.812924 81.57412 
L 420.939566 80.68882 
L 421.066209 82.499418 
L 421.192851 193.869113 
L 421.319493 80.311479 
L 421.446135 85.732507 
L 421.69942 81.338282 
L 421.826062 81.537837 
L 421.952705 84.280815 
L 422.079347 119.324517 
L 422.205989 81.610403 
L 422.712558 80.286081 
L 422.839201 157.11526 
L 423.092485 80.902889 
L 423.219127 80.997224 
L 423.472412 83.834536 
L 423.599054 81.813586 
L 423.725697 82.833132 
L 423.852339 180.365911 
L 423.978981 82.223581 
L 424.105624 82.698886 
L 424.232266 82.129246 
L 424.358908 98.91562 
L 424.48555 81.204036 
L 424.612193 176.718126 
L 424.738835 81.675712 
L 424.865477 84.030463 
L 424.99212 82.604551 
L 425.118762 83.79644 
L 425.245404 83.480779 
L 425.372046 81.378193 
L 425.498689 182.511563 
L 425.625331 80.790412 
L 425.751973 85.57206 
L 425.878616 80.590857 
L 426.005258 81.309256 
L 426.1319 80.344134 
L 426.258542 85.248809 
L 426.385185 80.325993 
L 426.638469 80.652537 
L 426.765112 90.841569 
L 426.891754 79.937767 
L 427.018396 80.257055 
L 427.145038 86.762556 
L 427.271681 233.303987 
L 427.398323 84.496226 
L 427.524965 196.174096 
L 427.651608 172.557483 
L 427.904892 221.412809 
L 428.158177 81.91155 
L 428.284819 86.10239 
L 428.411461 83.671264 
L 428.538104 97.179678 
L 428.664746 89.822094 
L 428.791388 204.584991 
L 428.918031 88.45817 
L 429.171315 80.130066 
L 429.297957 90.054249 
L 429.4246 79.955908 
L 429.551242 79.691044 
L 429.677884 81.037135 
L 429.804527 80.278825 
L 429.931169 80.540061 
L 430.057811 83.841793 
L 430.184453 79.42618 
L 430.437738 87.245415 
L 430.56438 78.831142 
L 430.691023 79.331845 
L 430.817665 178.928519 
L 430.944307 79.770866 
L 431.070949 79.756353 
L 431.197592 81.853497 
L 431.324234 81.42536 
L 431.577519 79.959537 
L 431.704161 80.73236 
L 431.957445 79.716442 
L 432.084088 80.547317 
L 432.21073 90.519287 
L 432.464015 79.237509 
L 432.590657 83.171685 
L 432.717299 82.386854 
L 432.843941 84.184627 
L 432.970584 80.953684 
L 433.097226 83.194064 
L 433.223868 80.0575 
L 433.350511 184.456329 
L 433.477153 79.204855 
L 433.603795 81.212622 
L 433.85708 79.915997 
L 433.983722 80.144579 
L 434.237007 79.890599 
L 434.363649 201.65458 
L 434.490291 80.45661 
L 434.616934 82.184549 
L 434.870218 202.855919 
L 434.99686 83.408214 
L 435.123503 81.833542 
L 435.250145 113.149601 
L 435.50343 82.483003 
L 435.756714 79.86883 
L 435.883356 89.857951 
L 436.009999 203.161257 
L 436.136641 90.185617 
L 436.263283 92.73318 
L 436.389926 80.841208 
L 436.516568 82.296147 
L 436.64321 79.712814 
L 436.896495 86.642502 
L 437.023137 80.238914 
L 437.149779 79.799892 
L 437.276422 82.920211 
L 437.403064 79.480604 
L 437.529706 81.068337 
L 437.656349 179.078001 
L 437.782991 79.745468 
L 437.909633 80.257055 
L 438.036275 94.139737 
L 438.162918 78.994415 
L 438.28956 81.795445 
L 438.416202 194.01624 
L 438.542845 79.270164 
L 438.669487 79.571311 
L 438.796129 201.126986 
L 438.922771 81.995 
L 439.049414 79.270164 
L 439.176056 81.153374 
L 439.302698 79.455206 
L 439.429341 80.714218 
L 439.555983 79.411667 
L 439.682625 80.438469 
L 439.809267 83.747802 
L 439.93591 83.867191 
L 440.062552 82.8746 
L 440.189194 79.5314 
L 440.315837 79.600337 
L 440.442479 80.0575 
L 440.569121 79.342729 
L 440.695763 79.513258 
L 440.822406 79.317331 
L 440.949048 79.447949 
L 441.07569 79.353614 
L 441.202333 90.106719 
L 441.328975 89.111113 
L 441.455617 80.122809 
L 441.708902 205.364838 
L 441.835544 86.270945 
L 441.962186 123.10048 
L 442.088829 90.783462 
L 442.215471 217.608833 
L 442.342113 81.773675 
L 442.468756 79.143174 
L 442.72204 79.730955 
L 442.848682 104.070053 
L 442.975325 79.767238 
L 443.101967 79.622107 
L 443.228609 81.338282 
L 443.355252 79.389897 
L 443.481894 79.353614 
L 443.608536 212.280202 
L 443.735178 78.896451 
L 443.861821 79.712814 
L 443.988463 95.377265 
L 444.115105 95.368317 
L 444.36839 81.436245 
L 444.495032 79.252022 
L 444.621674 79.135918 
L 444.874959 79.941681 
L 445.001601 91.182737 
L 445.128244 79.183085 
L 445.254886 79.306447 
L 445.381528 80.362275 
L 445.50817 79.368127 
L 445.634813 79.654761 
L 445.761455 197.889234 
L 445.888097 91.465482 
L 446.01474 214.894016 
L 446.141382 87.974753 
L 446.268024 78.936362 
L 446.394666 79.099635 
L 446.521309 80.199003 
L 446.647951 83.877527 
L 446.774593 79.756353 
L 446.901236 79.730955 
L 447.027878 81.690225 
L 447.15452 78.696896 
L 447.281163 93.446631 
L 447.407805 79.440693 
L 447.661089 84.375146 
L 447.787732 117.532599 
L 448.041016 79.259279 
L 448.294301 78.907336 
L 448.420943 79.861573 
L 448.547585 88.237402 
L 448.674228 87.588791 
L 448.80087 79.476976 
L 448.927512 224.243632 
L 449.054155 79.342729 
L 449.180797 220.76153 
L 449.307439 79.183085 
L 449.434081 82.249245 
L 449.560724 79.288305 
L 449.687366 206.156198 
L 449.814008 79.08875 
L 449.940651 81.570492 
L 450.067293 79.415295 
L 450.193935 90.682277 
L 450.320577 79.5314 
L 450.44722 79.317331 
L 450.573862 80.819438 
L 450.700504 79.767238 
L 450.827147 89.158868 
L 450.953789 79.476976 
L 451.080431 81.349167 
L 451.207074 79.226625 
L 451.333716 79.480604 
L 451.713643 79.128661 
L 451.840285 89.615692 
L 451.966927 79.368127 
L 452.09357 79.1722 
L 452.346854 82.980077 
L 452.473496 79.284677 
L 452.600139 80.405815 
L 452.726781 80.0575 
L 452.853423 204.442764 
L 452.980066 80.24617 
L 453.106708 199.455519 
L 453.23335 79.495117 
L 453.359992 82.539242 
L 453.486635 81.414476 
L 453.613277 195.340465 
L 453.739919 79.643876 
L 453.866562 80.242542 
L 453.993204 79.38264 
L 454.119846 82.074822 
L 454.246488 79.106891 
L 454.373131 100.86112 
L 454.499773 79.400782 
L 454.626415 81.16054 
L 454.8797 79.556798 
L 455.006342 82.163912 
L 455.132984 79.252022 
L 455.259627 80.743244 
L 455.386269 79.016184 
L 455.512911 207.952036 
L 455.639554 79.571311 
L 455.766196 79.476976 
L 455.892838 81.165939 
L 456.019481 91.67631 
L 456.146123 79.248394 
L 456.272765 79.339101 
L 456.399407 79.843432 
L 456.52605 79.375384 
L 456.652692 83.794865 
L 456.779334 81.4484 
L 456.905977 107.087602 
L 457.032619 79.40441 
L 457.159261 196.835407 
L 457.285903 79.157687 
L 457.412546 182.046559 
L 457.539188 81.049687 
L 457.66583 95.62393 
L 457.919115 83.497867 
L 458.045757 116.154715 
L 458.172399 79.854316 
L 458.299042 81.490669 
L 458.425684 190.340543 
L 458.552326 79.582196 
L 458.678969 79.034326 
L 458.805611 81.327397 
L 458.932253 205.831716 
L 459.058895 82.987812 
L 459.31218 79.219368 
L 459.438822 82.963762 
L 459.565465 98.486056 
L 459.692107 78.831142 
L 459.818749 194.20997 
L 459.945392 81.987743 
L 460.072034 79.27742 
L 460.325318 80.960941 
L 460.451961 126.166865 
L 460.578603 82.811677 
L 460.705245 95.881321 
L 460.831888 79.230253 
L 460.95853 205.914281 
L 461.085172 81.432617 
L 461.211814 79.284677 
L 461.338457 86.980487 
L 461.465099 79.164944 
L 461.718384 79.201227 
L 461.845026 78.813001 
L 461.971668 95.230688 
L 462.09831 79.901484 
L 462.224953 95.918057 
L 462.351595 78.725922 
L 462.478237 80.953684 
L 462.60488 174.22978 
L 462.731522 79.339101 
L 462.858164 80.875676 
L 463.111449 79.08875 
L 463.238091 79.622107 
L 463.364733 93.085523 
L 463.618018 79.302818 
L 463.74466 79.19397 
L 463.871302 78.881938 
L 463.997945 79.161316 
L 464.124587 78.979902 
L 464.251229 79.349986 
L 464.377872 79.183085 
L 464.504514 79.226625 
L 464.631156 79.694672 
L 464.757799 89.36868 
L 464.884441 220.848736 
L 465.011083 81.635801 
L 465.137725 82.50402 
L 465.264368 91.649171 
L 465.517652 78.943619 
L 465.644295 81.461643 
L 465.770937 218.499958 
L 465.897579 81.410847 
L 466.024221 95.065188 
L 466.150864 79.0053 
L 466.277506 92.75083 
L 466.530791 86.283417 
L 466.657433 78.972645 
L 466.910717 102.550502 
L 467.03736 201.081064 
L 467.164002 92.615369 
L 467.417287 79.379012 
L 467.543929 79.473347 
L 467.670571 80.304223 
L 467.797213 78.638844 
L 467.923856 80.296966 
L 468.050498 79.219368 
L 468.17714 79.135918 
L 468.303783 79.244766 
L 468.430425 78.852912 
L 468.557067 94.427509 
L 468.683709 78.987158 
L 468.810352 82.829271 
L 468.936994 222.930593 
L 469.063636 80.656166 
L 469.190279 99.04986 
L 469.443563 79.346358 
L 469.570206 79.157687 
L 469.696848 197.753189 
L 469.82349 80.485842 
L 469.950132 200.610784 
L 470.203417 81.200407 
L 470.330059 79.266536 
L 470.583344 85.743876 
L 470.709986 176.70546 
L 470.836628 168.817727 
L 470.963271 79.484232 
L 471.089913 185.130135 
L 471.216555 79.672903 
L 471.343198 81.418104 
L 471.46984 188.164427 
L 471.596482 89.922822 
L 471.723124 80.935543 
L 471.849767 164.739184 
L 471.976409 81.238535 
L 472.103051 87.795226 
L 472.229694 79.469719 
L 472.356336 79.48786 
L 472.482978 108.82083 
L 472.736263 79.611222 
L 472.862905 79.498745 
L 472.989547 81.534209 
L 473.11619 79.513258 
L 473.242832 79.93051 
L 473.369474 81.708366 
L 473.496117 85.923964 
L 473.622759 79.876086 
L 473.876043 82.818619 
L 474.129328 79.313703 
L 474.382613 79.596709 
L 474.509255 82.807822 
L 474.635897 79.222996 
L 474.762539 79.106891 
L 474.889182 82.12199 
L 475.142466 79.230253 
L 475.269109 180.529287 
L 475.395751 79.701929 
L 475.522393 81.657581 
L 475.649035 79.444321 
L 475.90232 79.593081 
L 476.028962 79.498745 
L 476.155605 202.032237 
L 476.282247 82.214511 
L 476.408889 79.353614 
L 476.535531 81.742835 
L 476.662174 79.553169 
L 476.788816 98.353124 
L 476.915458 196.225547 
L 477.042101 79.027069 
L 477.168743 81.138727 
L 477.295385 211.440982 
L 477.422027 82.089335 
L 477.54867 79.150431 
L 477.675312 81.819029 
L 477.801954 184.253606 
L 477.928597 79.600337 
L 478.055239 93.483251 
L 478.181881 79.738212 
L 478.308524 79.429808 
L 478.435166 93.41352 
L 478.561808 79.222996 
L 478.68845 80.050243 
L 478.815093 79.08875 
L 478.941735 79.397154 
L 479.068377 80.794784 
L 479.19502 79.219368 
L 479.321662 79.230253 
L 479.448304 79.400782 
L 479.574946 86.329253 
L 479.701589 175.879396 
L 479.828231 79.618478 
L 479.954873 155.051487 
L 480.208158 80.017589 
L 480.3348 79.672903 
L 480.461442 79.796264 
L 480.588085 103.267895 
L 480.714727 79.687416 
L 480.841369 79.473347 
L 480.968012 92.274337 
L 481.221296 79.349986 
L 481.347938 83.633493 
L 481.474581 81.298371 
L 481.601223 166.216628 
L 481.854508 79.386269 
L 481.98115 80.003076 
L 482.107792 97.07016 
L 482.234434 80.028474 
L 482.361077 81.143238 
L 482.487719 79.691044 
L 482.741004 80.130066 
L 482.867646 79.76361 
L 482.994288 82.791407 
L 483.120931 79.65839 
L 483.500857 80.438469 
L 483.6275 79.640248 
L 483.754142 89.831344 
L 483.880784 79.437065 
L 484.007427 82.180042 
L 484.134069 79.273792 
L 484.260711 79.716442 
L 484.387353 82.075326 
L 484.513996 167.340241 
L 484.640638 79.302818 
L 484.76728 83.709361 
L 484.893923 80.213516 
L 485.020565 162.035215 
L 485.147207 79.897856 
L 485.273849 84.156348 
L 485.400492 82.969956 
L 485.527134 84.137693 
L 485.653776 79.785379 
L 485.780419 80.808553 
L 485.907061 79.723698 
L 486.160345 82.067566 
L 486.41363 79.556798 
L 486.666915 86.773995 
L 486.920199 80.420328 
L 487.046842 82.368713 
L 487.300126 81.751905 
L 487.426768 79.901484 
L 487.553411 149.171145 
L 487.680053 80.445726 
L 487.806695 80.003076 
L 487.933338 80.384045 
L 488.05998 144.031771 
L 488.186622 83.920269 
L 488.439907 79.63662 
L 488.566549 81.902392 
L 488.693191 80.021217 
L 488.819834 80.304223 
L 488.946476 96.664032 
L 489.073118 79.850688 
L 489.326403 85.231976 
L 489.453045 81.418104 
L 489.579687 83.092554 
L 489.959614 80.130066 
L 490.086256 149.008818 
L 490.212899 148.276241 
L 490.466183 79.955908 
L 490.592826 82.357828 
L 490.719468 79.926882 
L 490.84611 82.635391 
L 491.099395 79.5314 
L 491.226037 85.041166 
L 491.352679 81.044391 
L 491.479322 83.598698 
L 491.605964 79.61485 
L 491.732606 83.09981 
L 491.985891 80.046615 
L 492.112533 82.127432 
L 492.365818 79.458834 
L 492.49246 158.872367 
L 492.619102 150.941002 
L 492.745745 79.984934 
L 492.872387 79.778123 
L 492.999029 80.982246 
L 493.125671 79.38264 
L 493.252314 159.205468 
L 493.378956 156.886999 
L 493.505598 85.648675 
L 493.632241 163.052465 
L 493.758883 79.045211 
L 493.885525 82.680744 
L 494.012167 92.491027 
L 494.13881 79.959537 
L 494.265452 80.188118 
L 494.518737 82.902673 
L 494.645379 82.229891 
L 494.772021 79.549541 
L 494.898663 81.768233 
L 495.025306 143.055194 
L 495.151948 79.999448 
L 495.27859 155.014181 
L 495.405233 80.03573 
L 495.531875 79.74184 
L 495.658517 81.730136 
L 495.78516 80.616255 
L 495.911802 84.371359 
L 496.038444 139.014093 
L 496.291729 80.471124 
L 496.418371 146.763635 
L 496.545013 81.312884 
L 496.671656 85.835338 
L 496.92494 79.756353 
L 497.051582 79.781751 
L 497.178225 80.111924 
L 497.304867 79.999448 
L 497.431509 132.976623 
L 497.558152 80.111924 
L 497.811436 82.430393 
L 497.938078 83.689405 
L 498.064721 80.213516 
L 498.191363 80.413071 
L 498.318005 82.600922 
L 498.444648 79.400782 
L 498.57129 155.01551 
L 498.697932 82.390482 
L 498.951217 79.61485 
L 499.077859 87.805396 
L 499.204501 138.11065 
L 499.331144 80.220772 
L 499.457786 79.767238 
L 499.584428 151.943511 
L 499.71107 80.402186 
L 500.21764 79.629363 
L 500.344282 82.390482 
L 500.470924 82.441278 
L 500.724209 79.999448 
L 500.977493 80.775899 
L 501.104136 80.384045 
L 501.230778 82.401367 
L 501.35742 79.712814 
L 501.610705 80.090154 
L 501.737347 84.565634 
L 501.863989 142.840241 
L 501.990632 80.304223 
L 502.117274 80.971826 
L 502.243916 80.151835 
L 502.370559 80.979082 
L 502.623843 79.883343 
L 502.750485 80.046615 
L 502.877128 81.537837 
L 503.00377 80.209888 
L 503.130412 82.657161 
L 503.383697 80.982711 
L 503.510339 82.22721 
L 503.636981 79.716442 
L 503.763624 80.739616 
L 503.890266 83.207783 
L 504.016908 80.003076 
L 504.143551 79.745468 
L 504.270193 130.199156 
L 504.523477 80.16272 
L 504.65012 86.048466 
L 504.776762 80.362275 
L 504.903404 81.145983 
L 505.156689 79.42618 
L 505.283331 80.039359 
L 505.409974 82.724284 
L 505.536616 80.489265 
L 505.663258 80.416699 
L 505.7899 82.102034 
L 505.916543 80.137322 
L 506.043185 84.369567 
L 506.169827 80.075641 
L 506.29647 79.934139 
L 506.423112 80.819438 
L 506.803039 79.698301 
L 506.929681 81.610403 
L 507.056323 97.526557 
L 507.309608 82.640833 
L 507.43625 82.41588 
L 507.562892 82.865786 
L 507.689535 152.519363 
L 507.816177 80.492893 
L 507.942819 82.181856 
L 508.069462 80.329621 
L 508.196104 83.010918 
L 508.322746 79.752725 
L 508.449388 144.439476 
L 508.576031 82.161901 
L 508.702673 163.152846 
L 508.829315 83.209489 
L 508.955958 86.474949 
L 509.0826 151.969643 
L 509.209242 94.74705 
L 509.335885 143.057073 
L 509.462527 81.537837 
L 509.589169 83.292109 
L 509.715811 80.07927 
L 509.842454 80.209888 
L 509.969096 79.796264 
L 510.095738 99.25683 
L 510.222381 84.074003 
L 510.349023 90.096918 
L 510.475665 144.853062 
L 510.602307 79.995819 
L 510.72895 80.206259 
L 510.855592 82.595803 
L 510.982234 81.987013 
L 511.108877 87.349243 
L 511.235519 81.309256 
L 511.362161 81.664827 
L 511.488803 80.195375 
L 511.615446 80.169977 
L 511.742088 83.03813 
L 511.86873 80.209888 
L 511.995373 83.546088 
L 512.248657 79.814405 
L 512.375299 86.969682 
L 512.501942 80.550946 
L 512.628584 84.115728 
L 512.755226 79.567683 
L 512.881869 121.529561 
L 513.008511 80.333249 
L 513.135153 79.926882 
L 513.261795 81.058904 
L 513.388438 80.699705 
L 513.51508 81.298371 
L 513.641722 81.225805 
L 513.895007 79.905112 
L 514.021649 80.485637 
L 514.148292 80.159092 
L 514.274934 80.26794 
L 514.401576 81.976859 
L 514.528218 79.654761 
L 514.781503 81.207664 
L 514.908145 79.807149 
L 515.16143 93.565854 
L 515.288072 79.480604 
L 515.414714 85.06043 
L 515.541357 84.284736 
L 515.794641 82.060309 
L 515.921284 82.564639 
L 516.174568 79.647505 
L 516.30121 85.290541 
L 516.427853 80.391301 
L 516.554495 82.83676 
L 516.80778 80.166348 
L 516.934422 82.343315 
L 517.061064 120.477597 
L 517.187706 81.294742 
L 517.314349 79.883343 
L 517.440991 80.111924 
L 517.567633 79.72007 
L 517.694276 80.304223 
L 517.94756 89.705319 
L 518.074202 80.111924 
L 518.200845 83.083483 
L 518.327487 81.984115 
L 518.454129 82.807734 
L 518.580772 82.658975 
L 518.834056 79.549541 
L 519.087341 81.708366 
L 519.213983 81.643057 
L 519.340625 80.365904 
L 519.467268 80.975454 
L 519.59391 84.452487 
L 519.720552 165.372789 
L 519.847195 80.220772 
L 519.973837 83.413656 
L 520.100479 129.860486 
L 520.227121 80.391301 
L 520.353764 80.569087 
L 520.480406 82.891184 
L 520.607048 83.025431 
L 520.860333 79.669274 
L 521.113617 81.664827 
L 521.24026 135.587109 
L 521.366902 80.177233 
L 521.493544 80.282453 
L 521.620187 83.649494 
L 521.746829 80.841208 
L 521.873471 82.800478 
L 522.126756 81.200407 
L 522.253398 83.185075 
L 522.38004 80.188118 
L 522.506683 83.137907 
L 522.633325 80.442097 
L 522.759967 121.573111 
L 522.88661 80.565459 
L 523.013252 80.26794 
L 523.139894 124.324221 
L 523.266536 80.402186 
L 523.393179 80.482008 
L 523.519821 80.365904 
L 523.646463 81.659248 
L 523.899748 80.173605 
L 524.02639 80.848464 
L 524.153032 80.010332 
L 524.279675 109.219219 
L 524.406317 80.725103 
L 524.532959 80.333249 
L 524.786244 83.036316 
L 524.912886 79.93051 
L 525.039528 83.054457 
L 525.166171 109.091073 
L 525.292813 80.950586 
L 525.419455 137.078 
L 525.546098 84.473113 
L 525.67274 80.242542 
L 525.799382 80.380417 
L 526.052667 86.093139 
L 526.305951 79.999448 
L 526.559236 80.768642 
L 526.685878 81.011737 
L 526.939163 80.257055 
L 527.065805 80.391301 
L 527.192447 82.633577 
L 527.31909 80.768642 
L 527.445732 86.800653 
L 527.572374 80.068385 
L 527.699017 80.126437 
L 527.825659 82.539242 
L 527.952301 80.438469 
L 528.078943 80.333249 
L 528.205586 80.0575 
L 528.332228 97.024596 
L 528.45887 80.217144 
L 528.585513 80.445726 
L 528.712155 81.138727 
L 528.838797 80.39493 
L 528.965439 82.751496 
L 529.092082 80.765014 
L 529.218724 81.487041 
L 529.345366 88.694859 
L 529.472009 83.597363 
L 529.598651 85.866045 
L 529.725293 80.757757 
L 529.851935 80.333249 
L 529.978578 111.796711 
L 530.10522 81.02625 
L 530.231862 82.528357 
L 530.358505 80.260684 
L 530.485147 80.862978 
L 530.611789 80.39493 
L 530.738431 83.627725 
L 530.865074 80.409443 
L 530.991716 80.144579 
L 531.118358 80.786784 
L 531.245001 85.08085 
L 531.371643 84.175595 
L 531.498285 81.225805 
L 531.624927 81.646685 
L 531.75157 81.069789 
L 531.878212 113.098595 
L 532.004854 83.127022 
L 532.258139 80.775899 
L 532.384781 85.138902 
L 532.511424 99.000885 
L 532.638066 80.728731 
L 532.764708 80.739616 
L 532.89135 118.115263 
L 533.017993 80.561831 
L 533.144635 81.356423 
L 533.271277 80.841208 
L 533.39792 80.873862 
L 533.524562 112.187945 
L 533.651204 114.351907 
L 533.777846 80.685192 
L 533.904489 80.841208 
L 534.031131 83.972411 
L 534.157773 83.556973 
L 534.411058 80.873862 
L 534.5377 80.416699 
L 534.664342 89.844227 
L 534.790985 82.375969 
L 534.917627 106.362982 
L 535.044269 80.554574 
L 535.170912 84.513024 
L 535.424196 80.558202 
L 535.550838 81.385449 
L 535.677481 83.466266 
L 535.804123 83.188703 
L 535.930765 83.502549 
L 536.057408 108.413076 
L 536.18405 83.687591 
L 536.310692 81.392706 
L 536.437335 83.224986 
L 536.563977 81.479785 
L 536.690619 81.880709 
L 536.817261 80.884747 
L 536.943904 84.074003 
L 537.070546 84.259045 
L 537.197188 83.950641 
L 537.323831 106.467476 
L 537.450473 103.677049 
L 537.577115 80.598113 
L 537.703757 105.098253 
L 537.8304 80.783155 
L 537.957042 80.387673 
L 538.083684 80.696077 
L 538.210327 80.340506 
L 538.336969 80.790412 
L 538.463611 80.329621 
L 538.590253 83.116138 
L 538.716896 83.428169 
L 538.843538 82.749682 
L 538.97018 83.61684 
L 539.096823 82.993822 
L 539.223465 80.503778 
L 539.350107 80.304223 
L 539.476749 83.076227 
L 539.730034 80.021217 
L 539.856676 84.859526 
L 539.983319 81.719251 
L 540.109961 97.547703 
L 540.236603 80.721475 
L 540.363245 80.413071 
L 540.489888 82.615435 
L 540.61653 80.906517 
L 540.869815 83.391887 
L 540.996457 88.563405 
L 541.249742 81.955089 
L 541.376384 80.797669 
L 541.503026 83.59507 
L 541.629668 83.224986 
L 541.756311 81.392706 
L 541.882953 83.036316 
L 542.009595 83.039944 
L 542.136238 82.916582 
L 542.26288 82.419508 
L 542.389522 80.913773 
L 542.516164 88.552691 
L 542.642807 112.385371 
L 542.769449 83.682149 
L 542.896091 85.525314 
L 543.022734 80.692448 
L 543.149376 83.836163 
L 543.276018 81.015365 
L 543.40266 107.569881 
L 543.529303 83.818209 
L 543.655945 81.421732 
L 543.782587 81.287486 
L 543.90923 83.424541 
L 544.162514 80.5836 
L 544.289156 84.395105 
L 544.415799 80.862978 
L 544.542441 88.368069 
L 544.669083 83.598698 
L 544.795726 110.252316 
L 544.922368 81.331025 
L 545.04901 106.6407 
L 545.175653 84.930276 
L 545.302295 85.276777 
L 545.428937 81.828099 
L 545.555579 104.572986 
L 545.682222 105.805015 
L 545.808864 83.312753 
L 545.935506 80.823066 
L 546.062149 81.029878 
L 546.188791 80.946428 
L 546.315433 81.555978 
L 546.442075 81.135098 
L 546.568718 95.872091 
L 546.69536 83.729316 
L 546.948645 112.402164 
L 547.075287 103.089113 
L 547.201929 80.895632 
L 547.328571 102.543641 
L 547.455214 84.545679 
L 547.581856 84.955674 
L 547.708498 81.084302 
L 547.835141 81.929691 
L 548.088425 80.260684 
L 548.215067 81.294742 
L 548.34171 115.500664 
L 548.468352 81.283858 
L 548.594994 80.60537 
L 548.721637 80.939171 
L 548.848279 89.21926 
L 548.974921 81.298371 
L 549.101563 82.561011 
L 549.228206 81.000852 
L 549.354848 86.218315 
L 549.48149 83.322949 
L 549.608133 83.189355 
L 549.734775 83.551531 
L 549.98806 80.260684 
L 550.114702 81.661198 
L 550.241344 81.040763 
L 550.367986 82.909326 
L 550.494629 80.133694 
L 550.747913 108.80991 
L 550.874556 84.092144 
L 551.001198 83.217729 
L 551.12784 108.85507 
L 551.254482 81.051648 
L 551.381125 109.77484 
L 551.634409 81.461643 
L 551.761052 80.641653 
L 551.887694 80.699705 
L 552.014336 116.457392 
L 552.140978 80.598113 
L 552.267621 81.091559 
L 552.394263 80.79404 
L 552.520905 80.848464 
L 552.647548 80.725103 
L 552.77419 80.416699 
L 552.900832 81.323769 
L 553.027474 81.367308 
L 553.154117 82.317917 
L 553.280759 80.532804 
L 553.407401 82.954679 
L 553.534044 81.21492 
L 553.660686 81.595889 
L 553.787328 81.142355 
L 553.91397 83.032687 
L 554.040613 104.707263 
L 554.167255 86.069555 
L 554.293897 107.287188 
L 554.42054 81.193151 
L 554.547182 83.292109 
L 554.673824 80.786784 
L 554.800467 80.536433 
L 554.927109 80.765014 
L 555.053751 83.794625 
L 555.180393 81.098816 
L 555.307036 80.957313 
L 555.433678 86.004246 
L 555.56032 82.04761 
L 555.686963 85.456255 
L 555.813605 84.312141 
L 555.940247 79.850688 
L 556.066889 80.543689 
L 556.193532 87.894205 
L 556.320174 80.471124 
L 556.446816 80.721475 
L 556.573459 103.664753 
L 556.700101 80.62714 
L 556.826743 80.83758 
L 556.953385 80.641653 
L 557.080028 80.652537 
L 557.20667 81.02625 
L 557.333312 117.096383 
L 557.459955 80.315108 
L 557.586597 83.06897 
L 557.713239 80.931915 
L 557.839881 82.531985 
L 557.966524 82.245351 
L 558.093166 82.771451 
L 558.346451 80.249799 
L 558.473093 80.296966 
L 558.726378 84.597383 
L 558.85302 80.264312 
L 558.979662 83.373745 
L 559.106304 80.989967 
L 559.232947 81.331025 
L 559.359589 90.559785 
L 559.486231 80.862978 
L 559.612874 106.258604 
L 559.866158 80.518291 
L 559.9928 126.19869 
L 560.119443 81.04802 
L 560.246085 118.032656 
L 560.372727 80.746873 
L 560.372727 80.746873 
" clip-path="url(#p24aa7a92c2)" style="fill: none; stroke: #1f77b4; stroke-width: 1.5; stroke-linecap: square"/>
   </g>
   <g id="patch_3">
    <path d="M 81 448.56 
L 81 60.48 
" style="fill: none; stroke: #000000; stroke-width: 0.8; stroke-linejoin: miter; stroke-linecap: square"/>
   </g>
   <g id="patch_4">
    <path d="M 583.2 448.56 
L 583.2 60.48 
" style="fill: none; stroke: #000000; stroke-width: 0.8; stroke-linejoin: miter; stroke-linecap: square"/>
   </g>
   <g id="patch_5">
    <path d="M 81 448.56 
L 583.2 448.56 
" style="fill: none; stroke: #000000; stroke-width: 0.8; stroke-linejoin: miter; stroke-linecap: square"/>
   </g>
   <g id="patch_6">
    <path d="M 81 60.48 
L 583.2 60.48 
" style="fill: none; stroke: #000000; stroke-width: 0.8; stroke-linejoin: miter; stroke-linecap: square"/>
   </g>
  </g>
 </g>
 <defs>
  <clipPath id="p24aa7a92c2">
   <rect x="81" y="60.48" width="502.2" height="388.08"/>
  </clipPath>
 </defs>
</svg>
