<?xml version="1.0" encoding="utf-8" standalone="no"?>
<!DOCTYPE svg PUBLIC "-//W3C//DTD SVG 1.1//EN"
  "http://www.w3.org/Graphics/SVG/1.1/DTD/svg11.dtd">
<svg xmlns:xlink="http://www.w3.org/1999/xlink" width="648pt" height="504pt" viewBox="0 0 648 504" xmlns="http://www.w3.org/2000/svg" version="1.1">
 <metadata>
  <rdf:RDF xmlns:dc="http://purl.org/dc/elements/1.1/" xmlns:cc="http://creativecommons.org/ns#" xmlns:rdf="http://www.w3.org/1999/02/22-rdf-syntax-ns#">
   <cc:Work>
    <dc:type rdf:resource="http://purl.org/dc/dcmitype/StillImage"/>
    <dc:date>2022-10-19T20:53:00.703678</dc:date>
    <dc:format>image/svg+xml</dc:format>
    <dc:creator>
     <cc:Agent>
      <dc:title>Matplotlib v3.5.2, https://matplotlib.org/</dc:title>
     </cc:Agent>
    </dc:creator>
   </cc:Work>
  </rdf:RDF>
 </metadata>
 <defs>
  <style type="text/css">*{stroke-linejoin: round; stroke-linecap: butt}</style>
 </defs>
 <g id="figure_1">
  <g id="patch_1">
   <path d="M 0 504 
L 648 504 
L 648 0 
L 0 0 
z
" style="fill: #ffffff"/>
  </g>
  <g id="axes_1">
   <g id="patch_2">
    <path d="M 81 448.56 
L 583.2 448.56 
L 583.2 60.48 
L 81 60.48 
z
" style="fill: #ffffff"/>
   </g>
   <g id="matplotlib.axis_1">
    <g id="xtick_1">
     <g id="line2d_1">
      <defs>
       <path id="md5a938790d" d="M 0 0 
L 0 3.5 
" style="stroke: #000000; stroke-width: 0.8"/>
      </defs>
      <g>
       <use xlink:href="#md5a938790d" x="103.827273" y="448.56" style="stroke: #000000; stroke-width: 0.8"/>
      </g>
     </g>
     <g id="text_1">
      <!-- 0 -->
      <g transform="translate(98.101023 469.237188)scale(0.18 -0.18)">
       <defs>
        <path id="DejaVuSans-30" d="M 2034 4250 
Q 1547 4250 1301 3770 
Q 1056 3291 1056 2328 
Q 1056 1369 1301 889 
Q 1547 409 2034 409 
Q 2525 409 2770 889 
Q 3016 1369 3016 2328 
Q 3016 3291 2770 3770 
Q 2525 4250 2034 4250 
z
M 2034 4750 
Q 2819 4750 3233 4129 
Q 3647 3509 3647 2328 
Q 3647 1150 3233 529 
Q 2819 -91 2034 -91 
Q 1250 -91 836 529 
Q 422 1150 422 2328 
Q 422 3509 836 4129 
Q 1250 4750 2034 4750 
z
" transform="scale(0.015625)"/>
       </defs>
       <use xlink:href="#DejaVuSans-30"/>
      </g>
     </g>
    </g>
    <g id="xtick_2">
     <g id="line2d_2">
      <g>
       <use xlink:href="#md5a938790d" x="163.537638" y="448.56" style="stroke: #000000; stroke-width: 0.8"/>
      </g>
     </g>
     <g id="text_2">
      <!-- 500 -->
      <g transform="translate(146.358888 469.237188)scale(0.18 -0.18)">
       <defs>
        <path id="DejaVuSans-35" d="M 691 4666 
L 3169 4666 
L 3169 4134 
L 1269 4134 
L 1269 2991 
Q 1406 3038 1543 3061 
Q 1681 3084 1819 3084 
Q 2600 3084 3056 2656 
Q 3513 2228 3513 1497 
Q 3513 744 3044 326 
Q 2575 -91 1722 -91 
Q 1428 -91 1123 -41 
Q 819 9 494 109 
L 494 744 
Q 775 591 1075 516 
Q 1375 441 1709 441 
Q 2250 441 2565 725 
Q 2881 1009 2881 1497 
Q 2881 1984 2565 2268 
Q 2250 2553 1709 2553 
Q 1456 2553 1204 2497 
Q 953 2441 691 2322 
L 691 4666 
z
" transform="scale(0.015625)"/>
       </defs>
       <use xlink:href="#DejaVuSans-35"/>
       <use xlink:href="#DejaVuSans-30" x="63.623047"/>
       <use xlink:href="#DejaVuSans-30" x="127.246094"/>
      </g>
     </g>
    </g>
    <g id="xtick_3">
     <g id="line2d_3">
      <g>
       <use xlink:href="#md5a938790d" x="223.248004" y="448.56" style="stroke: #000000; stroke-width: 0.8"/>
      </g>
     </g>
     <g id="text_3">
      <!-- 1000 -->
      <g transform="translate(200.343004 469.237188)scale(0.18 -0.18)">
       <defs>
        <path id="DejaVuSans-31" d="M 794 531 
L 1825 531 
L 1825 4091 
L 703 3866 
L 703 4441 
L 1819 4666 
L 2450 4666 
L 2450 531 
L 3481 531 
L 3481 0 
L 794 0 
L 794 531 
z
" transform="scale(0.015625)"/>
       </defs>
       <use xlink:href="#DejaVuSans-31"/>
       <use xlink:href="#DejaVuSans-30" x="63.623047"/>
       <use xlink:href="#DejaVuSans-30" x="127.246094"/>
       <use xlink:href="#DejaVuSans-30" x="190.869141"/>
      </g>
     </g>
    </g>
    <g id="xtick_4">
     <g id="line2d_4">
      <g>
       <use xlink:href="#md5a938790d" x="282.958369" y="448.56" style="stroke: #000000; stroke-width: 0.8"/>
      </g>
     </g>
     <g id="text_4">
      <!-- 1500 -->
      <g transform="translate(260.053369 469.237188)scale(0.18 -0.18)">
       <use xlink:href="#DejaVuSans-31"/>
       <use xlink:href="#DejaVuSans-35" x="63.623047"/>
       <use xlink:href="#DejaVuSans-30" x="127.246094"/>
       <use xlink:href="#DejaVuSans-30" x="190.869141"/>
      </g>
     </g>
    </g>
    <g id="xtick_5">
     <g id="line2d_5">
      <g>
       <use xlink:href="#md5a938790d" x="342.668735" y="448.56" style="stroke: #000000; stroke-width: 0.8"/>
      </g>
     </g>
     <g id="text_5">
      <!-- 2000 -->
      <g transform="translate(319.763735 469.237188)scale(0.18 -0.18)">
       <defs>
        <path id="DejaVuSans-32" d="M 1228 531 
L 3431 531 
L 3431 0 
L 469 0 
L 469 531 
Q 828 903 1448 1529 
Q 2069 2156 2228 2338 
Q 2531 2678 2651 2914 
Q 2772 3150 2772 3378 
Q 2772 3750 2511 3984 
Q 2250 4219 1831 4219 
Q 1534 4219 1204 4116 
Q 875 4013 500 3803 
L 500 4441 
Q 881 4594 1212 4672 
Q 1544 4750 1819 4750 
Q 2544 4750 2975 4387 
Q 3406 4025 3406 3419 
Q 3406 3131 3298 2873 
Q 3191 2616 2906 2266 
Q 2828 2175 2409 1742 
Q 1991 1309 1228 531 
z
" transform="scale(0.015625)"/>
       </defs>
       <use xlink:href="#DejaVuSans-32"/>
       <use xlink:href="#DejaVuSans-30" x="63.623047"/>
       <use xlink:href="#DejaVuSans-30" x="127.246094"/>
       <use xlink:href="#DejaVuSans-30" x="190.869141"/>
      </g>
     </g>
    </g>
    <g id="xtick_6">
     <g id="line2d_6">
      <g>
       <use xlink:href="#md5a938790d" x="402.3791" y="448.56" style="stroke: #000000; stroke-width: 0.8"/>
      </g>
     </g>
     <g id="text_6">
      <!-- 2500 -->
      <g transform="translate(379.4741 469.237188)scale(0.18 -0.18)">
       <use xlink:href="#DejaVuSans-32"/>
       <use xlink:href="#DejaVuSans-35" x="63.623047"/>
       <use xlink:href="#DejaVuSans-30" x="127.246094"/>
       <use xlink:href="#DejaVuSans-30" x="190.869141"/>
      </g>
     </g>
    </g>
    <g id="xtick_7">
     <g id="line2d_7">
      <g>
       <use xlink:href="#md5a938790d" x="462.089466" y="448.56" style="stroke: #000000; stroke-width: 0.8"/>
      </g>
     </g>
     <g id="text_7">
      <!-- 3000 -->
      <g transform="translate(439.184466 469.237188)scale(0.18 -0.18)">
       <defs>
        <path id="DejaVuSans-33" d="M 2597 2516 
Q 3050 2419 3304 2112 
Q 3559 1806 3559 1356 
Q 3559 666 3084 287 
Q 2609 -91 1734 -91 
Q 1441 -91 1130 -33 
Q 819 25 488 141 
L 488 750 
Q 750 597 1062 519 
Q 1375 441 1716 441 
Q 2309 441 2620 675 
Q 2931 909 2931 1356 
Q 2931 1769 2642 2001 
Q 2353 2234 1838 2234 
L 1294 2234 
L 1294 2753 
L 1863 2753 
Q 2328 2753 2575 2939 
Q 2822 3125 2822 3475 
Q 2822 3834 2567 4026 
Q 2313 4219 1838 4219 
Q 1578 4219 1281 4162 
Q 984 4106 628 3988 
L 628 4550 
Q 988 4650 1302 4700 
Q 1616 4750 1894 4750 
Q 2613 4750 3031 4423 
Q 3450 4097 3450 3541 
Q 3450 3153 3228 2886 
Q 3006 2619 2597 2516 
z
" transform="scale(0.015625)"/>
       </defs>
       <use xlink:href="#DejaVuSans-33"/>
       <use xlink:href="#DejaVuSans-30" x="63.623047"/>
       <use xlink:href="#DejaVuSans-30" x="127.246094"/>
       <use xlink:href="#DejaVuSans-30" x="190.869141"/>
      </g>
     </g>
    </g>
    <g id="xtick_8">
     <g id="line2d_8">
      <g>
       <use xlink:href="#md5a938790d" x="521.799831" y="448.56" style="stroke: #000000; stroke-width: 0.8"/>
      </g>
     </g>
     <g id="text_8">
      <!-- 3500 -->
      <g transform="translate(498.894831 469.237188)scale(0.18 -0.18)">
       <use xlink:href="#DejaVuSans-33"/>
       <use xlink:href="#DejaVuSans-35" x="63.623047"/>
       <use xlink:href="#DejaVuSans-30" x="127.246094"/>
       <use xlink:href="#DejaVuSans-30" x="190.869141"/>
      </g>
     </g>
    </g>
    <g id="xtick_9">
     <g id="line2d_9">
      <g>
       <use xlink:href="#md5a938790d" x="581.510197" y="448.56" style="stroke: #000000; stroke-width: 0.8"/>
      </g>
     </g>
     <g id="text_9">
      <!-- 4000 -->
      <g transform="translate(558.605197 469.237188)scale(0.18 -0.18)">
       <defs>
        <path id="DejaVuSans-34" d="M 2419 4116 
L 825 1625 
L 2419 1625 
L 2419 4116 
z
M 2253 4666 
L 3047 4666 
L 3047 1625 
L 3713 1625 
L 3713 1100 
L 3047 1100 
L 3047 0 
L 2419 0 
L 2419 1100 
L 313 1100 
L 313 1709 
L 2253 4666 
z
" transform="scale(0.015625)"/>
       </defs>
       <use xlink:href="#DejaVuSans-34"/>
       <use xlink:href="#DejaVuSans-30" x="63.623047"/>
       <use xlink:href="#DejaVuSans-30" x="127.246094"/>
       <use xlink:href="#DejaVuSans-30" x="190.869141"/>
      </g>
     </g>
    </g>
    <g id="text_10">
     <!-- epochs -->
     <g transform="translate(300.000938 490.657812)scale(0.18 -0.18)">
      <defs>
       <path id="DejaVuSans-65" d="M 3597 1894 
L 3597 1613 
L 953 1613 
Q 991 1019 1311 708 
Q 1631 397 2203 397 
Q 2534 397 2845 478 
Q 3156 559 3463 722 
L 3463 178 
Q 3153 47 2828 -22 
Q 2503 -91 2169 -91 
Q 1331 -91 842 396 
Q 353 884 353 1716 
Q 353 2575 817 3079 
Q 1281 3584 2069 3584 
Q 2775 3584 3186 3129 
Q 3597 2675 3597 1894 
z
M 3022 2063 
Q 3016 2534 2758 2815 
Q 2500 3097 2075 3097 
Q 1594 3097 1305 2825 
Q 1016 2553 972 2059 
L 3022 2063 
z
" transform="scale(0.015625)"/>
       <path id="DejaVuSans-70" d="M 1159 525 
L 1159 -1331 
L 581 -1331 
L 581 3500 
L 1159 3500 
L 1159 2969 
Q 1341 3281 1617 3432 
Q 1894 3584 2278 3584 
Q 2916 3584 3314 3078 
Q 3713 2572 3713 1747 
Q 3713 922 3314 415 
Q 2916 -91 2278 -91 
Q 1894 -91 1617 61 
Q 1341 213 1159 525 
z
M 3116 1747 
Q 3116 2381 2855 2742 
Q 2594 3103 2138 3103 
Q 1681 3103 1420 2742 
Q 1159 2381 1159 1747 
Q 1159 1113 1420 752 
Q 1681 391 2138 391 
Q 2594 391 2855 752 
Q 3116 1113 3116 1747 
z
" transform="scale(0.015625)"/>
       <path id="DejaVuSans-6f" d="M 1959 3097 
Q 1497 3097 1228 2736 
Q 959 2375 959 1747 
Q 959 1119 1226 758 
Q 1494 397 1959 397 
Q 2419 397 2687 759 
Q 2956 1122 2956 1747 
Q 2956 2369 2687 2733 
Q 2419 3097 1959 3097 
z
M 1959 3584 
Q 2709 3584 3137 3096 
Q 3566 2609 3566 1747 
Q 3566 888 3137 398 
Q 2709 -91 1959 -91 
Q 1206 -91 779 398 
Q 353 888 353 1747 
Q 353 2609 779 3096 
Q 1206 3584 1959 3584 
z
" transform="scale(0.015625)"/>
       <path id="DejaVuSans-63" d="M 3122 3366 
L 3122 2828 
Q 2878 2963 2633 3030 
Q 2388 3097 2138 3097 
Q 1578 3097 1268 2742 
Q 959 2388 959 1747 
Q 959 1106 1268 751 
Q 1578 397 2138 397 
Q 2388 397 2633 464 
Q 2878 531 3122 666 
L 3122 134 
Q 2881 22 2623 -34 
Q 2366 -91 2075 -91 
Q 1284 -91 818 406 
Q 353 903 353 1747 
Q 353 2603 823 3093 
Q 1294 3584 2113 3584 
Q 2378 3584 2631 3529 
Q 2884 3475 3122 3366 
z
" transform="scale(0.015625)"/>
       <path id="DejaVuSans-68" d="M 3513 2113 
L 3513 0 
L 2938 0 
L 2938 2094 
Q 2938 2591 2744 2837 
Q 2550 3084 2163 3084 
Q 1697 3084 1428 2787 
Q 1159 2491 1159 1978 
L 1159 0 
L 581 0 
L 581 4863 
L 1159 4863 
L 1159 2956 
Q 1366 3272 1645 3428 
Q 1925 3584 2291 3584 
Q 2894 3584 3203 3211 
Q 3513 2838 3513 2113 
z
" transform="scale(0.015625)"/>
       <path id="DejaVuSans-73" d="M 2834 3397 
L 2834 2853 
Q 2591 2978 2328 3040 
Q 2066 3103 1784 3103 
Q 1356 3103 1142 2972 
Q 928 2841 928 2578 
Q 928 2378 1081 2264 
Q 1234 2150 1697 2047 
L 1894 2003 
Q 2506 1872 2764 1633 
Q 3022 1394 3022 966 
Q 3022 478 2636 193 
Q 2250 -91 1575 -91 
Q 1294 -91 989 -36 
Q 684 19 347 128 
L 347 722 
Q 666 556 975 473 
Q 1284 391 1588 391 
Q 1994 391 2212 530 
Q 2431 669 2431 922 
Q 2431 1156 2273 1281 
Q 2116 1406 1581 1522 
L 1381 1569 
Q 847 1681 609 1914 
Q 372 2147 372 2553 
Q 372 3047 722 3315 
Q 1072 3584 1716 3584 
Q 2034 3584 2315 3537 
Q 2597 3491 2834 3397 
z
" transform="scale(0.015625)"/>
      </defs>
      <use xlink:href="#DejaVuSans-65"/>
      <use xlink:href="#DejaVuSans-70" x="61.523438"/>
      <use xlink:href="#DejaVuSans-6f" x="125"/>
      <use xlink:href="#DejaVuSans-63" x="186.181641"/>
      <use xlink:href="#DejaVuSans-68" x="241.162109"/>
      <use xlink:href="#DejaVuSans-73" x="304.541016"/>
     </g>
    </g>
   </g>
   <g id="matplotlib.axis_2">
    <g id="ytick_1">
     <g id="line2d_10">
      <defs>
       <path id="me83ce22d3b" d="M 0 0 
L -3.5 0 
" style="stroke: #000000; stroke-width: 0.8"/>
      </defs>
      <g>
       <use xlink:href="#me83ce22d3b" x="81" y="435.868631" style="stroke: #000000; stroke-width: 0.8"/>
      </g>
     </g>
     <g id="text_11">
      <!-- -60000 -->
      <g transform="translate(10.243437 442.707225)scale(0.18 -0.18)">
       <defs>
        <path id="DejaVuSans-2d" d="M 313 2009 
L 1997 2009 
L 1997 1497 
L 313 1497 
L 313 2009 
z
" transform="scale(0.015625)"/>
        <path id="DejaVuSans-36" d="M 2113 2584 
Q 1688 2584 1439 2293 
Q 1191 2003 1191 1497 
Q 1191 994 1439 701 
Q 1688 409 2113 409 
Q 2538 409 2786 701 
Q 3034 994 3034 1497 
Q 3034 2003 2786 2293 
Q 2538 2584 2113 2584 
z
M 3366 4563 
L 3366 3988 
Q 3128 4100 2886 4159 
Q 2644 4219 2406 4219 
Q 1781 4219 1451 3797 
Q 1122 3375 1075 2522 
Q 1259 2794 1537 2939 
Q 1816 3084 2150 3084 
Q 2853 3084 3261 2657 
Q 3669 2231 3669 1497 
Q 3669 778 3244 343 
Q 2819 -91 2113 -91 
Q 1303 -91 875 529 
Q 447 1150 447 2328 
Q 447 3434 972 4092 
Q 1497 4750 2381 4750 
Q 2619 4750 2861 4703 
Q 3103 4656 3366 4563 
z
" transform="scale(0.015625)"/>
       </defs>
       <use xlink:href="#DejaVuSans-2d"/>
       <use xlink:href="#DejaVuSans-36" x="36.083984"/>
       <use xlink:href="#DejaVuSans-30" x="99.707031"/>
       <use xlink:href="#DejaVuSans-30" x="163.330078"/>
       <use xlink:href="#DejaVuSans-30" x="226.953125"/>
       <use xlink:href="#DejaVuSans-30" x="290.576172"/>
      </g>
     </g>
    </g>
    <g id="ytick_2">
     <g id="line2d_11">
      <g>
       <use xlink:href="#me83ce22d3b" x="81" y="379.934356" style="stroke: #000000; stroke-width: 0.8"/>
      </g>
     </g>
     <g id="text_12">
      <!-- -50000 -->
      <g transform="translate(10.243437 386.77295)scale(0.18 -0.18)">
       <use xlink:href="#DejaVuSans-2d"/>
       <use xlink:href="#DejaVuSans-35" x="36.083984"/>
       <use xlink:href="#DejaVuSans-30" x="99.707031"/>
       <use xlink:href="#DejaVuSans-30" x="163.330078"/>
       <use xlink:href="#DejaVuSans-30" x="226.953125"/>
       <use xlink:href="#DejaVuSans-30" x="290.576172"/>
      </g>
     </g>
    </g>
    <g id="ytick_3">
     <g id="line2d_12">
      <g>
       <use xlink:href="#me83ce22d3b" x="81" y="324.000081" style="stroke: #000000; stroke-width: 0.8"/>
      </g>
     </g>
     <g id="text_13">
      <!-- -40000 -->
      <g transform="translate(10.243437 330.838675)scale(0.18 -0.18)">
       <use xlink:href="#DejaVuSans-2d"/>
       <use xlink:href="#DejaVuSans-34" x="36.083984"/>
       <use xlink:href="#DejaVuSans-30" x="99.707031"/>
       <use xlink:href="#DejaVuSans-30" x="163.330078"/>
       <use xlink:href="#DejaVuSans-30" x="226.953125"/>
       <use xlink:href="#DejaVuSans-30" x="290.576172"/>
      </g>
     </g>
    </g>
    <g id="ytick_4">
     <g id="line2d_13">
      <g>
       <use xlink:href="#me83ce22d3b" x="81" y="268.065806" style="stroke: #000000; stroke-width: 0.8"/>
      </g>
     </g>
     <g id="text_14">
      <!-- -30000 -->
      <g transform="translate(10.243437 274.9044)scale(0.18 -0.18)">
       <use xlink:href="#DejaVuSans-2d"/>
       <use xlink:href="#DejaVuSans-33" x="36.083984"/>
       <use xlink:href="#DejaVuSans-30" x="99.707031"/>
       <use xlink:href="#DejaVuSans-30" x="163.330078"/>
       <use xlink:href="#DejaVuSans-30" x="226.953125"/>
       <use xlink:href="#DejaVuSans-30" x="290.576172"/>
      </g>
     </g>
    </g>
    <g id="ytick_5">
     <g id="line2d_14">
      <g>
       <use xlink:href="#me83ce22d3b" x="81" y="212.131531" style="stroke: #000000; stroke-width: 0.8"/>
      </g>
     </g>
     <g id="text_15">
      <!-- -20000 -->
      <g transform="translate(10.243437 218.970125)scale(0.18 -0.18)">
       <use xlink:href="#DejaVuSans-2d"/>
       <use xlink:href="#DejaVuSans-32" x="36.083984"/>
       <use xlink:href="#DejaVuSans-30" x="99.707031"/>
       <use xlink:href="#DejaVuSans-30" x="163.330078"/>
       <use xlink:href="#DejaVuSans-30" x="226.953125"/>
       <use xlink:href="#DejaVuSans-30" x="290.576172"/>
      </g>
     </g>
    </g>
    <g id="ytick_6">
     <g id="line2d_15">
      <g>
       <use xlink:href="#me83ce22d3b" x="81" y="156.197256" style="stroke: #000000; stroke-width: 0.8"/>
      </g>
     </g>
     <g id="text_16">
      <!-- -10000 -->
      <g transform="translate(10.243437 163.03585)scale(0.18 -0.18)">
       <use xlink:href="#DejaVuSans-2d"/>
       <use xlink:href="#DejaVuSans-31" x="36.083984"/>
       <use xlink:href="#DejaVuSans-30" x="99.707031"/>
       <use xlink:href="#DejaVuSans-30" x="163.330078"/>
       <use xlink:href="#DejaVuSans-30" x="226.953125"/>
       <use xlink:href="#DejaVuSans-30" x="290.576172"/>
      </g>
     </g>
    </g>
    <g id="ytick_7">
     <g id="line2d_16">
      <g>
       <use xlink:href="#me83ce22d3b" x="81" y="100.262981" style="stroke: #000000; stroke-width: 0.8"/>
      </g>
     </g>
     <g id="text_17">
      <!-- 0 -->
      <g transform="translate(62.5475 107.101575)scale(0.18 -0.18)">
       <use xlink:href="#DejaVuSans-30"/>
      </g>
     </g>
    </g>
    <g id="text_18">
     <!-- scores -->
     <g transform="translate(2.5 283.3875)rotate(-90)scale(0.18 -0.18)">
      <defs>
       <path id="DejaVuSans-72" d="M 2631 2963 
Q 2534 3019 2420 3045 
Q 2306 3072 2169 3072 
Q 1681 3072 1420 2755 
Q 1159 2438 1159 1844 
L 1159 0 
L 581 0 
L 581 3500 
L 1159 3500 
L 1159 2956 
Q 1341 3275 1631 3429 
Q 1922 3584 2338 3584 
Q 2397 3584 2469 3576 
Q 2541 3569 2628 3553 
L 2631 2963 
z
" transform="scale(0.015625)"/>
      </defs>
      <use xlink:href="#DejaVuSans-73"/>
      <use xlink:href="#DejaVuSans-63" x="52.099609"/>
      <use xlink:href="#DejaVuSans-6f" x="107.080078"/>
      <use xlink:href="#DejaVuSans-72" x="168.261719"/>
      <use xlink:href="#DejaVuSans-65" x="207.125"/>
      <use xlink:href="#DejaVuSans-73" x="268.648438"/>
     </g>
    </g>
   </g>
   <g id="line2d_17">
    <path d="M 103.827273 97.279895 
L 103.946693 98.214536 
L 104.066114 97.196402 
L 104.424376 98.685207 
L 104.543797 97.304058 
L 104.663218 97.894203 
L 104.782639 101.670506 
L 104.902059 98.868153 
L 105.02148 144.953194 
L 105.140901 95.28753 
L 105.260321 95.122621 
L 105.379742 98.490297 
L 105.738004 93.115979 
L 105.857425 103.242414 
L 105.976846 97.42105 
L 106.096267 147.81505 
L 106.215687 406.136357 
L 106.335108 98.796105 
L 106.454529 95.782646 
L 106.57395 96.532165 
L 106.812791 95.406509 
L 106.932212 97.522202 
L 107.051632 91.265953 
L 107.171053 93.054451 
L 107.290474 98.948526 
L 107.409895 92.113357 
L 107.529315 91.907799 
L 107.648736 98.306565 
L 107.768157 93.366285 
L 107.887578 107.663888 
L 108.006998 92.700667 
L 108.24584 98.378294 
L 108.484681 90.044927 
L 108.604102 93.913043 
L 108.723523 110.710298 
L 108.842943 97.480251 
L 108.962364 101.005882 
L 109.081785 91.811312 
L 109.201206 93.625211 
L 109.320626 84.09149 
L 109.440047 95.583006 
L 109.559468 95.266383 
L 109.678889 95.866547 
L 109.798309 91.946567 
L 109.91773 110.728387 
L 110.037151 92.40002 
L 110.156571 96.080496 
L 110.275992 94.918461 
L 110.395413 97.032777 
L 110.514834 254.395299 
L 110.634254 88.465044 
L 110.753675 98.846446 
L 110.873096 97.90675 
L 110.992517 83.920768 
L 111.111937 237.675281 
L 111.350779 82.315071 
L 111.4702 94.331151 
L 111.709041 91.102345 
L 111.828462 86.529718 
L 111.947882 92.338493 
L 112.067303 104.522042 
L 112.186724 86.099024 
L 112.306145 93.725898 
L 112.425565 85.665534 
L 112.544986 168.174989 
L 112.664407 88.56798 
L 112.783828 99.148491 
L 112.903248 166.995788 
L 113.022669 91.942758 
L 113.14209 89.046761 
L 113.26151 98.179653 
L 113.380931 91.28553 
L 113.500352 108.084548 
L 113.619773 90.10252 
L 113.739193 94.835958 
L 113.858614 130.429365 
L 113.978035 227.030768 
L 114.097456 97.164222 
L 114.216876 91.082109 
L 114.336297 142.777753 
L 114.455718 98.831064 
L 114.575139 98.616008 
L 114.694559 90.043789 
L 114.933401 113.481983 
L 115.172242 91.478503 
L 115.291663 99.31043 
L 115.411084 88.786666 
L 115.530504 88.281859 
L 115.649925 94.28081 
L 115.769346 86.312973 
L 115.888767 163.734795 
L 116.008187 83.986107 
L 116.127608 86.157844 
L 116.247029 93.631973 
L 116.48587 85.781597 
L 116.724712 92.169292 
L 116.844132 93.406472 
L 116.963553 98.115372 
L 117.082974 92.966355 
L 117.202395 96.656619 
L 117.321815 90.705212 
L 117.441236 93.738248 
L 117.560657 124.176489 
L 117.680078 91.973727 
L 117.799498 95.52325 
L 117.918919 90.267526 
L 118.03834 96.024561 
L 118.15776 87.258262 
L 118.396602 96.253166 
L 118.516023 120.579544 
L 118.635443 90.770935 
L 118.754864 95.774256 
L 118.874285 87.974221 
L 118.993706 96.937688 
L 119.113126 93.370418 
L 119.232547 113.703274 
L 119.471388 84.100772 
L 119.590809 96.151075 
L 119.71023 86.780024 
L 119.829651 100.6607 
L 120.068492 96.252223 
L 120.187913 134.529419 
L 120.307334 100.132386 
L 120.426754 144.079164 
L 120.546175 91.093955 
L 120.665596 430.92 
L 120.785017 93.341939 
L 120.904437 84.493711 
L 121.262699 98.338667 
L 121.501541 87.688956 
L 121.740382 100.212328 
L 121.859803 95.115629 
L 121.979224 98.599469 
L 122.098645 81.747338 
L 122.218065 96.91112 
L 122.337486 90.032602 
L 122.456907 98.141674 
L 122.576327 143.643264 
L 122.695748 285.983818 
L 122.815169 90.515171 
L 122.93459 89.354399 
L 123.05401 95.365935 
L 123.173431 89.283083 
L 123.292852 98.161251 
L 123.531693 163.124495 
L 123.770535 78.863926 
L 124.009376 103.876826 
L 124.128797 97.723565 
L 124.248218 107.865685 
L 124.367638 96.901931 
L 124.487059 97.169703 
L 124.60648 98.765333 
L 124.725901 96.022415 
L 124.845321 98.282287 
L 124.964742 90.880006 
L 125.084163 100.284764 
L 125.203584 98.91916 
L 125.323004 99.0215 
L 125.442425 97.722167 
L 125.561846 80.750309 
L 125.681266 97.649452 
L 125.920108 93.246026 
L 126.039529 92.826519 
L 126.158949 158.588802 
L 126.27837 95.395695 
L 126.397791 93.731409 
L 126.517212 95.545581 
L 126.636632 87.017745 
L 126.875474 98.943996 
L 127.114315 91.359461 
L 127.233736 98.23816 
L 127.353157 89.146044 
L 127.472577 221.937674 
L 127.711419 88.803447 
L 127.83084 327.35797 
L 127.95026 88.266477 
L 128.069681 95.602258 
L 128.189102 148.369571 
L 128.427943 92.888047 
L 128.547364 96.217688 
L 128.905626 91.286928 
L 129.025047 83.999308 
L 129.144468 97.512413 
L 129.263888 83.032428 
L 129.383309 83.129429 
L 129.50273 93.638965 
L 129.741571 88.906925 
L 129.980413 102.025862 
L 130.219254 90.89399 
L 130.338675 95.03291 
L 130.458096 94.282209 
L 130.577516 87.824597 
L 130.696937 98.935997 
L 130.816358 81.731956 
L 131.055199 88.558308 
L 131.17462 118.84835 
L 131.294041 91.132432 
L 131.532882 95.995353 
L 131.652303 82.18782 
L 131.771724 168.513687 
L 131.891145 88.957909 
L 132.010565 93.840328 
L 132.129986 262.693949 
L 132.368827 89.452284 
L 132.72709 89.408935 
L 132.84651 106.130696 
L 132.965931 95.627428 
L 133.085352 98.367312 
L 133.204773 112.30346 
L 133.324193 158.294902 
L 133.443614 91.107939 
L 133.801876 106.399089 
L 133.921297 79.999392 
L 134.040718 108.88241 
L 134.160138 92.346883 
L 134.279559 117.581092 
L 134.39898 243.707026 
L 134.518401 80.29025 
L 134.637821 108.320844 
L 134.996084 84.702066 
L 135.354346 135.232165 
L 135.473766 99.159678 
L 135.593187 97.232742 
L 135.712608 99.639348 
L 135.832029 98.09932 
L 135.951449 88.631449 
L 136.07087 97.299863 
L 136.190291 95.178556 
L 136.309712 99.411007 
L 136.429132 134.119191 
L 136.548553 88.509792 
L 136.667974 90.637361 
L 136.906815 98.561761 
L 137.026236 92.558035 
L 137.145657 98.800391 
L 137.265077 96.312623 
L 137.384498 97.513811 
L 137.503919 94.875112 
L 137.62334 96.11965 
L 137.74276 95.332707 
L 137.981602 93.486544 
L 138.220443 97.49726 
L 138.339864 97.069134 
L 138.459285 92.317517 
L 138.578705 95.316993 
L 138.698126 91.925977 
L 138.817547 97.168417 
L 138.936968 97.228547 
L 139.175809 91.19184 
L 139.29523 98.48567 
L 139.414651 97.224352 
L 139.534071 91.113532 
L 139.772913 99.282733 
L 140.011754 95.040118 
L 140.131175 102.130427 
L 140.250596 94.159962 
L 140.370016 95.277839 
L 140.489437 93.519188 
L 140.608858 96.541953 
L 140.728279 90.58775 
L 140.847699 90.716399 
L 141.086541 98.219982 
L 141.205962 98.461897 
L 141.325382 97.175409 
L 141.444803 91.797329 
L 141.564224 91.621136 
L 141.683644 95.652598 
L 141.922486 90.76674 
L 142.041907 93.62511 
L 142.161327 93.269798 
L 142.280748 94.763244 
L 142.400169 93.086614 
L 142.51959 99.221205 
L 142.758431 91.818633 
L 142.997272 99.401593 
L 143.116693 98.518043 
L 143.355535 92.095179 
L 143.594376 99.457997 
L 143.833218 94.910798 
L 143.952638 98.786316 
L 144.19148 93.246293 
L 144.310901 98.040992 
L 144.430321 90.534612 
L 144.549742 91.187645 
L 144.669163 142.484339 
L 144.908004 91.170865 
L 145.146846 96.072106 
L 145.266266 99.393183 
L 145.505108 94.964607 
L 145.624529 134.130384 
L 145.743949 92.253193 
L 145.86337 90.639489 
L 145.982791 98.053577 
L 146.102211 96.049732 
L 146.221632 90.884202 
L 146.460474 93.349505 
L 146.579894 91.187645 
L 146.699315 99.55688 
L 146.818736 91.639314 
L 146.938157 92.211242 
L 147.057577 98.257177 
L 147.176998 97.839629 
L 147.296419 92.248998 
L 147.53526 97.996245 
L 147.654681 95.686159 
L 147.774102 91.019842 
L 147.893522 95.012151 
L 148.012943 93.985449 
L 148.132364 94.339541 
L 148.251785 94.339541 
L 148.371205 94.925453 
L 148.490626 92.095179 
L 148.729468 98.346585 
L 148.968309 91.161076 
L 149.08773 92.583205 
L 149.207151 95.827393 
L 149.326571 91.405789 
L 149.445992 93.74524 
L 149.565413 107.515955 
L 149.684833 91.631749 
L 149.923675 97.543177 
L 150.043096 124.138839 
L 150.162516 91.173661 
L 150.281937 91.391805 
L 150.401358 91.180653 
L 150.520779 91.836483 
L 150.640199 93.808166 
L 150.75962 92.700667 
L 150.879041 94.795406 
L 150.998461 99.177856 
L 151.117882 91.451934 
L 151.237303 98.853437 
L 151.356724 91.838297 
L 151.476144 96.743317 
L 151.595565 95.228896 
L 151.714986 97.841027 
L 151.953827 91.528844 
L 152.073248 99.194636 
L 152.192669 92.134333 
L 152.31209 93.2684 
L 152.43151 99.428116 
L 152.550931 91.099258 
L 152.670352 98.857632 
L 152.789772 91.161076 
L 152.909193 95.272245 
L 153.028614 93.279587 
L 153.148035 98.114204 
L 153.267455 91.612518 
L 153.506297 97.414496 
L 153.625718 90.830535 
L 153.864559 97.908148 
L 153.98398 91.791735 
L 154.1034 93.349505 
L 154.222821 91.793134 
L 154.342242 96.906925 
L 154.700504 90.635294 
L 154.819925 91.877035 
L 154.939346 95.837182 
L 155.058766 95.249872 
L 155.417029 90.478134 
L 155.536449 95.360342 
L 155.65587 93.208271 
L 155.775291 135.52567 
L 155.894711 91.358245 
L 156.133553 99.119622 
L 156.252974 97.134857 
L 156.372394 98.461897 
L 156.491815 98.333249 
L 156.730657 92.079797 
L 156.850077 90.36681 
L 157.088919 93.100597 
L 157.208339 91.514861 
L 157.32776 92.139926 
L 157.447181 144.457687 
L 157.686022 90.670253 
L 157.924864 95.021977 
L 158.044285 99.356846 
L 158.283126 90.863226 
L 158.402547 98.68983 
L 158.521968 95.658192 
L 158.641388 96.196559 
L 158.760809 93.74524 
L 158.88023 93.952197 
L 158.99965 93.090809 
L 159.119071 98.00044 
L 159.238492 96.498604 
L 159.357913 98.450711 
L 159.477333 94.381492 
L 159.596754 95.156182 
L 159.716175 93.088007 
L 159.835596 95.1279 
L 159.955016 91.496682 
L 160.074437 98.92886 
L 160.193858 95.788239 
L 160.313278 95.577271 
L 160.432699 91.16667 
L 160.55212 98.965306 
L 160.671541 91.401594 
L 160.790961 97.12367 
L 161.029803 92.208446 
L 161.149224 98.6297 
L 161.268644 122.025484 
L 161.388065 92.078398 
L 161.507486 92.853531 
L 161.746327 92.074203 
L 161.865748 90.68144 
L 161.985169 92.397668 
L 162.104589 97.131502 
L 162.22401 91.628278 
L 162.343431 95.363139 
L 162.462852 160.253972 
L 162.582272 96.400164 
L 162.701693 99.368033 
L 162.940535 90.590547 
L 163.059955 94.384557 
L 163.179376 90.590547 
L 163.298797 91.824618 
L 163.537638 95.663785 
L 163.657059 92.079797 
L 163.77648 97.958489 
L 164.015321 91.414179 
L 164.134742 94.915664 
L 164.254163 91.856436 
L 164.373583 97.962684 
L 164.493004 91.724925 
L 164.612425 93.349505 
L 164.731846 97.951497 
L 164.851266 91.744191 
L 165.090108 99.789502 
L 165.328949 90.670253 
L 165.44837 98.318632 
L 165.567791 95.85536 
L 165.687211 97.917937 
L 165.926053 140.09225 
L 166.045474 95.26805 
L 166.164894 97.113881 
L 166.284315 95.050907 
L 166.523156 97.029607 
L 166.642577 93.364288 
L 166.761998 97.980863 
L 166.881419 250.808131 
L 167.000839 93.208271 
L 167.12026 95.637217 
L 167.239681 93.909361 
L 167.478522 98.013025 
L 167.597943 98.484271 
L 167.717364 96.03435 
L 167.836785 155.892101 
L 167.956205 94.11943 
L 168.075626 98.958314 
L 168.195047 91.742793 
L 168.314467 97.203376 
L 168.433888 186.582233 
L 168.553309 90.735976 
L 168.67273 195.953952 
L 168.79215 91.843474 
L 168.911571 99.250571 
L 169.030992 93.965827 
L 169.150413 96.420501 
L 169.269833 164.369058 
L 169.389254 90.731781 
L 169.866937 100.274075 
L 169.986358 92.594392 
L 170.34462 98.826628 
L 170.464041 92.251795 
L 170.583461 123.153974 
L 170.822303 90.523425 
L 170.941724 99.058319 
L 171.061144 90.601733 
L 171.299986 98.467491 
L 171.419406 92.079797 
L 171.538827 98.819877 
L 171.658248 96.529368 
L 171.777669 90.748561 
L 172.01651 96.337541 
L 172.135931 91.429561 
L 172.255352 93.192889 
L 172.374772 90.382191 
L 172.613614 98.853437 
L 172.852455 93.908847 
L 173.091297 95.886124 
L 173.210717 90.748839 
L 173.330138 94.9702 
L 173.449559 92.238926 
L 173.56898 98.672952 
L 173.807821 94.958673 
L 173.927242 95.400894 
L 174.046663 90.970626 
L 174.285504 96.504198 
L 174.404925 94.333948 
L 174.524345 95.484277 
L 174.643766 91.527446 
L 174.763187 107.002357 
L 174.882608 91.832691 
L 175.002028 95.065415 
L 175.121449 93.204076 
L 175.24087 95.30675 
L 175.360291 90.605929 
L 175.479711 98.454906 
L 175.599132 91.358245 
L 175.718553 95.349155 
L 175.837974 91.140101 
L 175.957394 98.453404 
L 176.196236 94.947827 
L 176.315656 95.841767 
L 176.554498 93.058646 
L 176.673919 92.611172 
L 176.793339 97.225313 
L 176.91276 91.414179 
L 177.151602 95.721118 
L 177.271022 92.633546 
L 177.390443 98.84001 
L 177.509864 94.350728 
L 177.629284 94.904478 
L 177.748705 90.524824 
L 177.868126 98.365411 
L 177.987547 98.891193 
L 178.106967 93.729858 
L 178.226388 99.373626 
L 178.345809 93.360692 
L 178.58465 98.8856 
L 178.704071 98.2046 
L 178.823492 98.911807 
L 178.942913 96.765691 
L 179.062333 90.961043 
L 179.181754 99.039512 
L 179.301175 93.360692 
L 179.420595 93.24323 
L 179.540016 95.277839 
L 179.659437 91.765166 
L 179.898278 91.502275 
L 180.017699 97.511015 
L 180.13712 92.134333 
L 180.256541 91.832288 
L 180.375961 97.979464 
L 180.495382 98.053577 
L 180.734223 91.145694 
L 180.853644 95.710219 
L 181.092486 90.603132 
L 181.211906 95.669379 
L 181.331327 92.627953 
L 181.450748 93.107589 
L 181.570169 98.04239 
L 181.689589 216.387335 
L 181.928431 94.964607 
L 182.047852 93.04746 
L 182.286693 98.173287 
L 182.406114 95.870742 
L 182.525534 98.498255 
L 182.644955 94.233266 
L 182.764376 152.019113 
L 182.883797 93.103394 
L 183.003217 98.477279 
L 183.122638 95.273644 
L 183.242059 97.186596 
L 183.36148 93.06424 
L 183.4809 98.344435 
L 183.719742 90.351428 
L 183.839162 93.307748 
L 183.958583 90.76674 
L 184.078004 94.949225 
L 184.197425 93.774605 
L 184.316845 97.945904 
L 184.436266 98.067561 
L 184.555687 106.151142 
L 184.675108 99.249172 
L 184.794528 99.271546 
L 185.03337 94.328355 
L 185.152791 95.819003 
L 185.272211 93.258612 
L 185.511053 97.973871 
L 185.630473 95.807816 
L 185.869315 157.731736 
L 185.988736 95.832987 
L 186.108156 94.377297 
L 186.227577 98.969501 
L 186.346998 94.919859 
L 186.466419 97.541779 
L 186.585839 96.906925 
L 186.70526 109.835956 
L 186.824681 97.558559 
L 186.944101 98.489766 
L 187.182943 92.640538 
L 187.302364 93.08102 
L 187.421784 91.430959 
L 187.660626 95.681964 
L 187.780047 97.997643 
L 187.899467 92.070604 
L 188.138309 93.932862 
L 188.25773 97.845222 
L 188.37715 92.518683 
L 188.496571 94.975794 
L 188.615992 112.381798 
L 188.735412 91.628127 
L 188.854833 91.37922 
L 188.974254 91.738598 
L 189.093675 97.175409 
L 189.213095 97.526397 
L 189.332516 90.899957 
L 189.571358 96.301378 
L 189.690778 94.389882 
L 189.92962 99.250571 
L 190.04904 92.592994 
L 190.168461 261.08445 
L 190.287882 95.867581 
L 190.407303 92.235014 
L 190.526723 97.856409 
L 190.646144 98.024212 
L 190.765565 91.878433 
L 191.004406 95.65959 
L 191.123827 91.161076 
L 191.482089 98.460499 
L 191.60151 94.360517 
L 191.840351 96.508393 
L 191.959772 98.677244 
L 192.079193 97.106043 
L 192.198614 98.81708 
L 192.318034 98.33185 
L 192.437455 99.373626 
L 192.556876 94.986981 
L 192.676297 96.743317 
L 192.795717 92.156706 
L 192.915138 99.257885 
L 193.034559 92.180478 
L 193.2734 98.980688 
L 193.392821 94.985582 
L 193.631662 99.368033 
L 193.751083 94.392679 
L 193.870504 95.637217 
L 193.989925 94.964607 
L 194.109345 101.229339 
L 194.228766 145.18705 
L 194.348187 116.745719 
L 194.467608 188.532472 
L 194.587028 95.714126 
L 194.706449 91.748386 
L 194.94529 95.574441 
L 195.064711 91.444943 
L 195.184132 98.933917 
L 195.303553 97.90675 
L 195.422973 95.599461 
L 195.661815 90.556986 
L 195.781236 99.917083 
L 196.020077 95.156182 
L 196.139498 99.067569 
L 196.258919 98.197608 
L 196.378339 91.860255 
L 196.49776 93.108987 
L 196.617181 161.493058 
L 196.736601 96.516783 
L 196.856022 95.887256 
L 196.975443 90.554189 
L 197.094864 97.985058 
L 197.214284 97.698765 
L 197.333705 96.755902 
L 197.453126 91.709232 
L 197.572547 134.88011 
L 197.691967 94.829987 
L 197.811388 98.814283 
L 197.930809 93.068435 
L 198.050229 94.26403 
L 198.16965 97.824247 
L 198.408492 90.57097 
L 198.647333 95.635818 
L 198.766754 91.781947 
L 198.886175 91.6503 
L 199.005595 98.884073 
L 199.363858 94.946428 
L 199.602699 98.868819 
L 199.72212 90.878608 
L 199.84154 92.239209 
L 199.960961 98.970019 
L 200.199803 90.544401 
L 200.438644 95.283432 
L 200.558065 92.320314 
L 200.677486 99.254834 
L 200.796906 93.208271 
L 200.916327 98.803097 
L 201.035748 99.12369 
L 201.155168 181.924632 
L 201.274589 91.832288 
L 201.39401 98.868819 
L 201.513431 91.496682 
L 201.632851 97.024387 
L 201.752272 92.643334 
L 201.871693 93.04746 
L 201.991114 99.383415 
L 202.229955 92.402592 
L 202.349376 90.720594 
L 202.468797 221.318385 
L 202.588217 94.975794 
L 202.707638 91.622534 
L 202.827059 91.733004 
L 202.946479 99.222604 
L 203.0659 96.853331 
L 203.185321 91.705037 
L 203.304742 91.643509 
L 203.424162 90.368208 
L 203.663004 95.631623 
L 203.782425 96.470637 
L 203.901845 99.23379 
L 204.021266 94.764642 
L 204.260107 96.039943 
L 204.498949 204.482891 
L 204.61837 95.55751 
L 204.73779 128.952961 
L 204.857211 95.156182 
L 204.976632 93.078223 
L 205.096053 94.364712 
L 205.334894 91.453333 
L 205.454315 98.971125 
L 205.693156 95.340955 
L 205.812577 97.973871 
L 205.931998 93.935416 
L 206.29026 95.16597 
L 206.409681 97.294719 
L 206.529101 94.265428 
L 206.648522 99.373626 
L 206.767943 96.636444 
L 206.887364 114.737345 
L 207.006784 92.078398 
L 207.245626 158.142457 
L 207.484467 93.799776 
L 207.603888 99.261758 
L 207.723309 91.173661 
L 207.842729 95.244278 
L 207.96215 91.706435 
L 208.081571 101.296542 
L 208.320412 95.417675 
L 208.439833 96.501401 
L 208.678675 90.720594 
L 208.798095 95.609249 
L 208.917516 150.06442 
L 209.036937 142.970997 
L 209.156357 91.653298 
L 209.275778 98.870218 
L 209.395199 94.356693 
L 209.51462 95.249872 
L 209.63404 92.75181 
L 209.753461 93.925628 
L 209.872882 98.478678 
L 209.992303 91.807117 
L 210.111723 99.400195 
L 210.231144 90.863226 
L 210.350565 93.06424 
L 210.469985 90.680041 
L 210.708827 93.069833 
L 210.828248 98.835259 
L 210.947668 96.315914 
L 211.067089 97.125068 
L 211.18651 95.842775 
L 211.305931 99.193238 
L 211.425351 95.558909 
L 211.544772 98.836657 
L 211.664193 92.19586 
L 211.903034 99.368033 
L 212.141876 92.424589 
L 212.261296 94.338143 
L 212.380717 98.646481 
L 212.500138 97.951497 
L 212.738979 92.626554 
L 212.8584 92.125942 
L 212.977821 96.145344 
L 213.097242 91.496682 
L 213.336083 97.975269 
L 213.574925 92.180478 
L 213.694345 93.2684 
L 213.813766 99.249172 
L 213.933187 96.095203 
L 214.172028 97.947302 
L 214.291449 91.512064 
L 214.41087 95.42852 
L 214.53029 93.127166 
L 214.649711 254.566267 
L 214.769132 90.368208 
L 214.888553 186.966164 
L 215.007973 95.85536 
L 215.127394 97.933319 
L 215.366235 92.22305 
L 215.485656 91.709232 
L 215.605077 98.471686 
L 215.724498 91.643509 
L 215.843918 91.57499 
L 215.963339 98.530874 
L 216.08276 98.456304 
L 216.202181 91.278278 
L 216.321601 91.278875 
L 216.441022 95.272245 
L 216.560443 90.600335 
L 216.679864 98.970899 
L 216.918705 95.859555 
L 217.038126 95.631623 
L 217.157546 90.575165 
L 217.276967 98.746079 
L 217.396388 99.177856 
L 217.635229 90.368208 
L 217.75465 98.454906 
L 217.874071 93.079622 
L 218.112912 98.450711 
L 218.232333 99.457655 
L 218.351754 107.787075 
L 218.471174 91.461941 
L 218.590595 91.389008 
L 218.710016 97.125068 
L 218.829437 93.430117 
L 219.068278 97.908148 
L 219.187699 97.958489 
L 219.30712 91.716224 
L 219.42654 98.182226 
L 219.545961 92.149715 
L 219.784803 97.852142 
L 219.904223 91.559608 
L 220.143065 96.476231 
L 220.262485 95.248473 
L 220.381906 95.572892 
L 220.501327 123.578503 
L 220.740168 95.760113 
L 220.859589 95.792434 
L 220.97901 95.167369 
L 221.098431 95.848368 
L 221.456693 91.145694 
L 221.576113 92.180478 
L 221.695534 96.183974 
L 221.814955 90.368208 
L 221.934376 99.356846 
L 222.053796 98.840852 
L 222.173217 92.214039 
L 222.292638 95.831588 
L 222.412059 95.26805 
L 222.531479 98.880006 
L 222.6509 96.493011 
L 222.770321 91.163889 
L 223.009162 92.29794 
L 223.128583 97.919335 
L 223.248004 130.932274 
L 223.367424 93.936815 
L 223.486845 95.272245 
L 223.606266 90.575165 
L 223.725687 92.442565 
L 223.845107 282.309994 
L 223.964528 96.944704 
L 224.083949 96.495808 
L 224.32279 91.492487 
L 224.442211 93.924229 
L 224.561632 99.356846 
L 224.681052 94.981627 
L 224.800473 99.249172 
L 224.919894 99.034214 
L 225.039315 100.635256 
L 225.158735 94.960412 
L 225.516998 103.249284 
L 225.755839 91.75398 
L 225.994681 97.147442 
L 226.114101 93.06424 
L 226.233522 93.373277 
L 226.472363 97.511015 
L 226.591784 90.580758 
L 226.830626 99.260359 
L 226.950046 214.763237 
L 227.069467 95.368732 
L 227.188888 91.765166 
L 227.308309 98.228372 
L 227.427729 91.766565 
L 227.54715 101.217517 
L 227.785991 95.471594 
L 227.905412 98.942932 
L 228.024833 92.128739 
L 228.144254 98.853437 
L 228.263674 98.504155 
L 228.383095 99.177856 
L 228.621937 91.145694 
L 228.741357 92.223827 
L 228.860778 92.219632 
L 229.09962 97.913742 
L 229.21904 91.726012 
L 229.338461 98.81708 
L 229.457882 99.193238 
L 229.577302 92.747914 
L 229.696723 97.511015 
L 229.816144 96.481824 
L 229.935565 92.06861 
L 230.054985 98.818478 
L 230.293827 92.611172 
L 230.413248 95.21771 
L 230.532668 119.590907 
L 230.652089 96.481824 
L 230.77151 96.555257 
L 230.89093 91.496682 
L 231.010351 98.975094 
L 231.249193 99.167419 
L 231.368613 92.140104 
L 231.607455 93.925628 
L 231.726876 98.505804 
L 231.846296 98.445117 
L 231.965717 94.763244 
L 232.204559 97.896961 
L 232.323979 95.714126 
L 232.4434 99.265953 
L 232.562821 90.351428 
L 232.801662 98.473084 
L 232.921083 92.473817 
L 233.040504 98.428337 
L 233.159924 92.136753 
L 233.279345 94.925453 
L 233.398766 90.66466 
L 233.637607 98.450711 
L 233.876449 91.727411 
L 233.995869 98.193413 
L 234.11529 94.244453 
L 234.234711 98.00044 
L 234.354132 93.924229 
L 234.473552 95.25127 
L 234.712394 92.172754 
L 234.831815 95.547722 
L 234.951235 92.208446 
L 235.070656 159.991708 
L 235.309498 91.363838 
L 235.548339 99.356846 
L 235.66776 96.557335 
L 235.78718 91.033247 
L 235.906601 91.703639 
L 236.026022 99.40439 
L 236.145443 139.219403 
L 236.384284 97.56791 
L 236.503705 127.10744 
L 236.623126 96.769886 
L 236.742546 96.733528 
L 236.861967 95.816206 
L 237.100809 93.183572 
L 237.459071 98.001838 
L 237.578491 184.973177 
L 237.697912 94.931046 
L 237.817333 91.758967 
L 237.936754 97.936115 
L 238.056174 98.33185 
L 238.175595 93.822149 
L 238.295016 93.74524 
L 238.414437 103.30167 
L 238.533857 91.821941 
L 238.653278 96.481824 
L 238.772699 95.715525 
L 239.130961 90.986282 
L 239.250382 98.492661 
L 239.369802 95.700143 
L 239.489223 95.853962 
L 239.608644 91.230994 
L 239.728065 99.368033 
L 239.847485 90.590547 
L 239.966906 90.843649 
L 240.086327 91.605754 
L 240.205748 91.496682 
L 240.444589 95.681964 
L 240.56401 96.906925 
L 240.68343 95.167369 
L 240.802851 96.932095 
L 240.922272 94.029106 
L 241.041693 144.074584 
L 241.161113 92.149715 
L 241.280534 97.007606 
L 241.519376 91.590372 
L 241.638796 95.006558 
L 241.758217 91.751183 
L 241.877638 111.878436 
L 241.997058 95.21771 
L 242.116479 95.714708 
L 242.2359 93.766215 
L 242.474741 99.261758 
L 242.594162 94.412193 
L 242.713583 95.698378 
L 242.833004 117.474271 
L 242.952424 93.04746 
L 243.071845 91.842076 
L 243.191266 92.128218 
L 243.430107 90.372403 
L 243.668949 95.729508 
L 243.788369 94.36611 
L 243.90779 95.690354 
L 244.027211 95.647005 
L 244.146632 95.849767 
L 244.266052 91.832288 
L 244.385473 94.360517 
L 244.624315 91.170865 
L 244.863156 96.523775 
L 244.982577 95.803621 
L 245.101997 97.978393 
L 245.46026 94.515415 
L 245.57968 252.467225 
L 245.699101 94.547863 
L 245.818522 95.16597 
L 245.937943 97.839629 
L 246.057363 95.825995 
L 246.176784 91.761526 
L 246.296205 99.408188 
L 246.415626 174.74369 
L 246.535046 95.894483 
L 246.654467 95.314196 
L 246.773888 262.568051 
L 246.893308 95.584079 
L 247.012729 93.950798 
L 247.13215 94.938038 
L 247.251571 97.511015 
L 247.370991 91.21453 
L 247.490412 142.097547 
L 247.609833 94.345135 
L 247.729254 97.568347 
L 247.848674 95.181352 
L 248.087516 98.631922 
L 248.206936 93.397049 
L 248.326357 94.222079 
L 248.445778 93.729858 
L 248.565199 95.825995 
L 248.684619 93.343911 
L 248.80404 93.789987 
L 248.923461 93.06424 
L 249.042882 91.467316 
L 249.162302 97.92353 
L 249.281723 95.631623 
L 249.520565 98.666058 
L 249.639985 91.358245 
L 249.878827 96.727935 
L 249.998247 91.742793 
L 250.117668 98.234859 
L 250.237089 91.37677 
L 250.35651 91.154084 
L 250.47593 96.498604 
L 250.595351 91.49808 
L 250.714772 98.333249 
L 250.834193 98.439524 
L 250.953613 91.496682 
L 251.073034 95.714126 
L 251.192455 91.134507 
L 251.311875 93.069833 
L 251.431296 98.819877 
L 251.550717 93.209669 
L 251.670138 98.959713 
L 251.789558 97.975269 
L 251.908979 92.063016 
L 252.147821 97.891368 
L 252.386662 91.138703 
L 252.506083 96.337692 
L 252.744924 90.351428 
L 252.983766 98.942932 
L 253.222607 93.914441 
L 253.342028 90.847844 
L 253.580869 93.254416 
L 253.70029 90.586352 
L 253.819711 96.498604 
L 253.939132 93.04746 
L 254.058552 97.90675 
L 254.177973 90.741569 
L 254.297394 92.118951 
L 254.416814 97.125068 
L 254.655656 91.727411 
L 254.775077 98.450711 
L 254.894497 90.508044 
L 255.133339 98.461897 
L 255.25276 97.108288 
L 255.37218 92.118951 
L 255.491601 176.956387 
L 255.611022 93.04746 
L 255.730443 187.322219 
L 255.849863 93.912409 
L 255.969284 107.086273 
L 256.088705 92.190267 
L 256.208125 98.316468 
L 256.327546 94.343736 
L 256.446967 238.10128 
L 256.566388 92.078398 
L 256.685808 91.149889 
L 256.805229 202.027364 
L 256.92465 93.774605 
L 257.044071 98.942932 
L 257.163491 93.925628 
L 257.402333 99.368033 
L 257.521754 97.175409 
L 257.641174 90.751358 
L 257.760595 98.819877 
L 257.880016 93.327131 
L 257.999436 95.669379 
L 258.118857 93.349505 
L 258.357699 98.864624 
L 258.59654 93.729858 
L 258.715961 93.355477 
L 258.835382 97.343144 
L 258.954802 95.810613 
L 259.074223 92.063016 
L 259.193644 93.056296 
L 259.313064 95.726711 
L 259.432485 95.233091 
L 259.551906 124.487351 
L 259.671327 91.414179 
L 259.790747 96.470637 
L 259.910168 90.351428 
L 260.029589 95.676371 
L 260.14901 94.938038 
L 260.26843 178.162107 
L 260.387851 97.186596 
L 260.507272 93.2684 
L 260.626693 97.980863 
L 260.865534 91.134507 
L 260.984955 95.709931 
L 261.104375 138.958991 
L 261.223796 95.26805 
L 261.343217 99.54878 
L 261.582058 95.85536 
L 261.701479 96.470637 
L 261.8209 90.368208 
L 261.940321 128.857023 
L 262.059741 92.139926 
L 262.179162 143.616707 
L 262.418003 91.559608 
L 262.537424 97.117926 
L 262.656845 95.849767 
L 262.776266 90.66466 
L 262.895686 99.356846 
L 263.015107 93.729858 
L 263.134528 98.316468 
L 263.253949 94.322761 
L 263.373369 98.942932 
L 263.731632 90.508044 
L 263.851052 112.771254 
L 264.089894 93.86271 
L 264.209314 95.665184 
L 264.328735 93.069833 
L 264.448156 93.327131 
L 264.567577 98.456304 
L 264.806418 91.559608 
L 264.925839 96.508393 
L 265.04526 91.832288 
L 265.16468 228.19977 
L 265.284101 97.022988 
L 265.522942 91.373626 
L 265.642363 98.098728 
L 265.761784 98.545165 
L 265.881205 95.653997 
L 266.000625 98.333249 
L 266.120046 97.936115 
L 266.239467 98.459101 
L 266.358888 91.492487 
L 266.478308 95.844173 
L 266.597729 95.402293 
L 266.71715 91.437124 
L 266.836571 95.542128 
L 266.955991 95.318391 
L 267.075412 92.223827 
L 267.194833 92.134333 
L 267.314253 93.327131 
L 267.433674 98.569703 
L 267.553095 94.345135 
L 267.672516 97.527795 
L 267.791936 94.95342 
L 267.911357 98.36236 
L 268.150199 92.174885 
L 268.269619 94.949225 
L 268.508461 91.486893 
L 268.627881 94.992574 
L 268.866723 91.123321 
L 268.986144 129.646787 
L 269.224985 91.419772 
L 269.344406 95.150588 
L 269.463827 90.720594 
L 269.583247 92.3856 
L 269.702668 97.146044 
L 269.822089 92.063016 
L 269.94151 94.893291 
L 270.06093 92.174885 
L 270.180351 92.078398 
L 270.299772 94.04329 
L 270.419192 93.237636 
L 270.538613 94.959013 
L 270.658034 92.840755 
L 270.777455 131.563693 
L 270.896875 98.6297 
L 271.255138 93.908847 
L 271.374558 98.803097 
L 271.73282 92.079797 
L 271.852241 98.456304 
L 271.971662 91.728303 
L 272.210503 95.793833 
L 272.329924 95.631623 
L 272.449345 93.260044 
L 272.568766 96.906925 
L 272.688186 91.559608 
L 272.807607 93.780199 
L 272.927028 133.486346 
L 273.046449 97.82984 
L 273.165869 98.819877 
L 273.28529 119.872902 
L 273.404711 92.611172 
L 273.524131 98.032014 
L 273.643552 95.665184 
L 273.762973 123.081932 
L 274.001814 90.982761 
L 274.240656 91.816906 
L 274.360077 93.774605 
L 274.479497 97.902555 
L 274.598918 92.208446 
L 274.718339 94.960412 
L 274.837759 92.577612 
L 274.95718 95.792434 
L 275.076601 94.23377 
L 275.196022 95.255485 
L 275.315442 98.819877 
L 275.434863 91.637916 
L 275.554284 98.450711 
L 275.673705 98.786316 
L 275.793125 90.575165 
L 275.912546 98.819877 
L 276.031967 96.923705 
L 276.151388 92.174885 
L 276.270808 93.729858 
L 276.390229 93.04746 
L 276.50965 97.841027 
L 276.62907 93.920034 
L 276.748491 95.385512 
L 276.867912 95.368732 
L 276.987333 91.358245 
L 277.106753 97.571488 
L 277.226174 95.391106 
L 277.345595 90.955518 
L 277.584436 93.908847 
L 277.703857 95.85536 
L 277.823278 95.150588 
L 277.942698 235.885483 
L 278.062119 95.810613 
L 278.18154 99.368033 
L 278.300961 91.123321 
L 278.420381 92.583205 
L 278.539802 90.36681 
L 278.659223 97.902555 
L 278.778644 130.076049 
L 278.898064 227.398232 
L 279.017485 96.481824 
L 279.136906 96.912518 
L 279.256327 99.177856 
L 279.375747 92.611172 
L 279.614589 97.81306 
L 279.734009 95.363139 
L 279.85343 97.511015 
L 279.972851 92.207047 
L 280.092272 92.611172 
L 280.211692 93.920034 
L 280.331113 99.23379 
L 280.450534 93.836183 
L 280.689375 98.96087 
L 280.808796 93.774605 
L 280.928217 97.522202 
L 281.047638 93.069833 
L 281.167058 97.958489 
L 281.286479 98.04239 
L 281.4059 126.91784 
L 281.52532 91.134507 
L 281.644741 97.81306 
L 281.883583 91.637916 
L 282.241845 97.119475 
L 282.361266 98.819877 
L 282.480686 95.614843 
L 282.719528 97.835434 
L 282.838948 91.145694 
L 282.958369 97.824247 
L 283.07779 97.958489 
L 283.197211 171.148067 
L 283.316631 96.168592 
L 283.555473 90.847844 
L 283.674894 91.138451 
L 283.794314 130.804645 
L 283.913735 97.891368 
L 284.152577 99.356846 
L 284.391418 98.590265 
L 284.510839 91.637916 
L 284.630259 98.052179 
L 284.74968 98.428337 
L 284.869101 91.749784 
L 284.988522 113.761877 
L 285.227363 95.609249 
L 285.346784 91.145694 
L 285.466205 98.182226 
L 285.585625 93.920034 
L 285.705046 97.81306 
L 285.824467 92.063016 
L 285.943887 98.6297 
L 286.063308 98.450711 
L 286.30215 91.145694 
L 286.42157 94.949225 
L 286.540991 93.237636 
L 286.779833 98.578144 
L 286.899253 97.137039 
L 287.018674 99.37922 
L 287.138095 95.25127 
L 287.257516 95.909071 
L 287.376936 92.078398 
L 287.496357 96.470637 
L 287.615778 121.592024 
L 287.735198 91.414179 
L 287.97404 97.891368 
L 288.212881 93.04746 
L 288.332302 92.063016 
L 288.451723 93.920034 
L 288.571144 99.177856 
L 288.690564 202.365657 
L 288.809985 99.541267 
L 288.929406 115.143039 
L 289.168247 96.481824 
L 289.287668 107.66226 
L 289.407089 92.063016 
L 289.526509 97.511015 
L 289.64593 95.680566 
L 289.765351 98.445117 
L 289.884772 97.958489 
L 290.123613 90.351428 
L 290.243034 98.719299 
L 290.362455 98.428337 
L 290.481875 95.21771 
L 290.601296 98.036797 
L 290.720717 259.157072 
L 290.840137 94.322761 
L 290.959558 97.81306 
L 291.1984 93.327131 
L 291.31782 129.664306 
L 291.556662 90.575165 
L 291.676083 96.922307 
L 291.795503 95.832987 
L 291.914924 97.891368 
L 292.034345 92.118951 
L 292.153765 95.542128 
L 292.273186 91.4813 
L 292.392607 93.053053 
L 292.512028 98.182226 
L 292.631448 90.720594 
L 292.750869 98.270312 
L 292.87029 96.906925 
L 292.989711 91.705037 
L 293.109131 92.197259 
L 293.228552 91.358245 
L 293.467394 97.175409 
L 293.706235 90.351428 
L 293.945076 99.187645 
L 294.064497 94.893291 
L 294.183918 98.316468 
L 294.303339 90.955518 
L 294.422759 92.157016 
L 294.54218 96.493011 
L 294.661601 92.063016 
L 294.781022 93.254416 
L 294.900442 92.625506 
L 295.019863 97.511015 
L 295.139284 121.363677 
L 295.258704 94.893291 
L 295.497546 95.832987 
L 295.616967 92.06861 
L 295.736387 94.938038 
L 295.855808 93.069833 
L 295.975229 93.778537 
L 296.09465 96.481824 
L 296.21407 91.749784 
L 296.333491 96.470637 
L 296.452912 134.298092 
L 296.691753 91.140101 
L 296.811174 95.85536 
L 296.930595 119.566462 
L 297.050015 97.824247 
L 297.169436 98.819877 
L 297.288857 95.832957 
L 297.527698 95.385512 
L 297.647119 96.922307 
L 297.76654 94.345135 
L 298.005381 97.007606 
L 298.124802 98.428337 
L 298.244223 94.345135 
L 298.363643 122.542205 
L 298.483064 92.460027 
L 298.602485 97.951497 
L 298.721906 91.816906 
L 298.960747 98.6297 
L 299.080168 97.936115 
L 299.199589 95.777052 
L 299.43843 90.832462 
L 299.557851 91.358245 
L 299.677272 94.031032 
L 299.796692 93.192889 
L 299.916113 91.123321 
L 300.035534 93.04746 
L 300.154954 99.092569 
L 300.393796 92.118951 
L 300.513217 91.140101 
L 300.632637 96.912518 
L 300.752058 94.345135 
L 300.871479 94.345135 
L 300.9909 96.481824 
L 301.11032 95.810613 
L 301.229741 92.313322 
L 301.349162 98.853437 
L 301.468583 91.492487 
L 301.588003 99.177856 
L 301.707424 92.174885 
L 301.826845 98.6297 
L 302.065686 94.960412 
L 302.185107 97.255192 
L 302.304528 93.04746 
L 302.543369 98.450711 
L 302.66279 92.698308 
L 302.782211 98.859031 
L 302.901631 92.078398 
L 303.021052 99.356846 
L 303.140473 97.824247 
L 303.379314 92.611172 
L 303.618156 94.949225 
L 303.737576 91.123321 
L 303.856997 92.174885 
L 303.976418 98.754569 
L 304.095839 91.559608 
L 304.215259 120.12542 
L 304.454101 92.712491 
L 304.573522 96.435057 
L 304.692942 95.832987 
L 304.931784 91.69385 
L 305.051204 91.414179 
L 305.170625 91.71063 
L 305.290046 90.720594 
L 305.409467 98.182226 
L 305.528887 90.508044 
L 305.767729 96.487418 
L 306.00657 91.559608 
L 306.125991 98.036797 
L 306.245412 92.577612 
L 306.364832 96.658458 
L 306.603674 91.145694 
L 306.723095 95.777052 
L 306.961936 90.351428 
L 307.320198 98.853437 
L 307.439619 96.727935 
L 307.55904 97.81306 
L 307.678461 97.093625 
L 307.797881 91.727411 
L 308.036723 98.439524 
L 308.156143 98.439524 
L 308.275564 94.222079 
L 308.394985 95.363139 
L 308.514406 93.237636 
L 308.753247 99.23379 
L 308.872668 94.960412 
L 308.992089 97.007606 
L 309.111509 95.110547 
L 309.23093 91.305336 
L 309.350351 98.843363 
L 309.708613 90.508044 
L 309.828034 96.481824 
L 309.947454 92.197259 
L 310.066875 98.461897 
L 310.186296 95.402293 
L 310.305717 97.860895 
L 310.425137 96.168592 
L 310.544558 90.575165 
L 310.663979 95.631623 
L 310.7834 90.720594 
L 310.90282 97.936115 
L 311.022241 94.345135 
L 311.261082 99.177856 
L 311.380503 98.819877 
L 311.499924 97.958489 
L 311.619345 95.874656 
L 311.738765 91.637916 
L 311.977607 97.891368 
L 312.097028 98.450711 
L 312.216448 95.318391 
L 312.335869 108.111183 
L 312.45529 94.949225 
L 312.694131 97.108288 
L 312.932973 92.074203 
L 313.052393 91.492487 
L 313.291235 95.984221 
L 313.410656 91.749784 
L 313.530076 95.85536 
L 313.649497 91.134507 
L 313.768918 91.492487 
L 314.007759 95.882105 
L 314.12718 121.692811 
L 314.246601 90.817549 
L 314.366021 97.175409 
L 314.485442 193.933184 
L 314.604863 96.470637 
L 314.724284 98.819877 
L 314.843704 94.949225 
L 314.963125 98.886051 
L 315.201967 92.063016 
L 315.440808 107.945559 
L 315.560229 94.857407 
L 315.679649 94.322761 
L 315.79907 98.413254 
L 315.918491 108.6185 
L 316.157332 90.575165 
L 316.396174 95.665184 
L 316.515595 95.542128 
L 316.635015 95.768146 
L 316.754436 92.063016 
L 316.873857 174.575494 
L 316.993278 96.727935 
L 317.112698 93.24323 
L 317.232119 98.412846 
L 317.35154 90.66466 
L 317.47096 92.616766 
L 317.590381 98.439524 
L 317.709802 90.66466 
L 317.829223 97.81306 
L 317.948643 91.749784 
L 318.068064 118.74645 
L 318.187485 94.322761 
L 318.306906 94.322761 
L 318.426326 93.237636 
L 318.545747 95.777052 
L 318.784588 95.249872 
L 318.904009 93.920034 
L 319.02343 95.25127 
L 319.142851 231.140342 
L 319.262271 99.356846 
L 319.381692 92.174885 
L 319.501113 96.470637 
L 319.620534 91.637916 
L 319.739954 99.261207 
L 319.859375 130.930456 
L 319.978796 91.123321 
L 320.217637 97.175409 
L 320.337058 91.727411 
L 320.575899 94.222079 
L 320.814741 99.362439 
L 320.934162 90.508044 
L 321.053582 130.981544 
L 321.173003 93.327131 
L 321.292424 98.081312 
L 321.411845 153.116707 
L 321.531265 95.318391 
L 321.650686 95.62603 
L 321.770107 93.774605 
L 321.889528 96.906925 
L 322.008948 93.086614 
L 322.128369 99.23379 
L 322.24779 98.461897 
L 322.36721 91.414179 
L 322.725473 98.870218 
L 322.964314 90.575165 
L 323.083735 97.511015 
L 323.203156 95.385512 
L 323.322576 95.698744 
L 323.441997 96.727935 
L 323.561418 99.177856 
L 323.680838 96.906925 
L 323.800259 98.333249 
L 324.039101 95.542128 
L 324.158521 98.819877 
L 324.277942 98.428337 
L 324.397363 96.727935 
L 324.516784 91.145694 
L 324.636204 97.980863 
L 324.755625 97.192189 
L 324.875046 92.171949 
L 324.994467 97.891368 
L 325.113887 115.301124 
L 325.233308 90.36681 
L 325.352729 91.4813 
L 325.59157 95.698744 
L 325.710991 97.81306 
L 325.830412 95.777052 
L 325.949832 97.958489 
L 326.188674 90.66466 
L 326.427515 95.21771 
L 326.546936 95.385512 
L 326.666357 97.902555 
L 326.905198 91.073843 
L 327.024619 96.481824 
L 327.14404 92.063016 
L 327.26346 95.832987 
L 327.502302 91.637916 
L 327.621723 99.23379 
L 327.860564 90.832462 
L 327.979985 91.653298 
L 328.099406 95.631623 
L 328.218826 93.069833 
L 328.338247 96.906925 
L 328.457668 91.637916 
L 328.696509 93.327131 
L 328.81593 209.52938 
L 328.935351 91.145694 
L 329.174192 96.493011 
L 329.293613 184.816829 
L 329.413034 94.988853 
L 329.532454 97.908148 
L 329.651875 96.481824 
L 329.771296 98.819084 
L 329.890716 96.168592 
L 330.010137 224.001321 
L 330.129558 99.356846 
L 330.248979 99.23379 
L 330.368399 95.542128 
L 330.48782 97.175409 
L 330.607241 91.4813 
L 330.726662 98.428337 
L 330.846082 90.351428 
L 330.965503 90.832462 
L 331.204345 93.349505 
L 331.323765 97.824247 
L 331.443186 97.511015 
L 331.562607 92.118951 
L 331.682027 94.222079 
L 331.801448 98.786316 
L 331.920869 91.637916 
L 332.04029 92.29794 
L 332.15971 97.007606 
L 332.279131 92.174885 
L 332.398552 97.902555 
L 332.637393 93.908847 
L 332.756814 116.812842 
L 332.876235 97.902555 
L 332.995655 227.772766 
L 333.115076 223.997794 
L 333.234497 96.481824 
L 333.353918 95.698744 
L 333.592759 99.545486 
L 333.71218 99.368033 
L 333.831601 95.85677 
L 333.951021 97.891368 
L 334.189863 90.508044 
L 334.428704 98.316468 
L 334.548125 91.637916 
L 334.667546 95.777052 
L 334.786966 90.508044 
L 334.906387 178.327529 
L 335.025808 175.514354 
L 335.145229 91.749784 
L 335.264649 91.358245 
L 335.38407 91.559608 
L 335.503491 94.563188 
L 335.622912 92.715237 
L 335.742332 95.698744 
L 335.861753 92.669979 
L 336.100594 98.786316 
L 336.339436 94.915664 
L 336.458857 97.81306 
L 336.578277 92.225226 
L 336.697698 96.906925 
L 336.817119 91.492487 
L 336.93654 97.108288 
L 337.05596 96.476231 
L 337.294802 92.208446 
L 337.414223 93.74524 
L 337.533643 99.356846 
L 337.653064 98.112634 
L 337.772485 99.177856 
L 337.891905 95.150588 
L 338.011326 115.095979 
L 338.250168 90.351428 
L 338.60843 95.318391 
L 338.727851 95.37578 
L 338.847271 92.25369 
L 339.086113 98.453955 
L 339.205533 98.428337 
L 339.324954 174.576147 
L 339.563796 91.749784 
L 339.802637 97.824247 
L 340.041479 90.955518 
L 340.160899 94.915664 
L 340.28032 91.576388 
L 340.399741 97.007606 
L 340.519162 92.29794 
L 340.638582 92.118951 
L 340.758003 97.108288 
L 340.877424 90.720594 
L 340.996844 98.968919 
L 341.116265 98.450711 
L 341.474527 91.492487 
L 341.593948 95.609249 
L 341.713369 92.197259 
L 341.95221 98.467491 
L 342.071631 97.824247 
L 342.191052 92.611172 
L 342.310472 98.786316 
L 342.549314 93.04746 
L 342.668735 93.789987 
L 342.788155 95.698744 
L 342.907576 92.225226 
L 343.146418 99.23379 
L 343.265838 99.177856 
L 343.385259 96.470637 
L 343.50468 104.191802 
L 343.862942 91.4813 
L 344.101783 98.819877 
L 344.221204 97.891368 
L 344.340625 93.253018 
L 344.460046 244.309512 
L 344.579466 95.150588 
L 344.698887 91.138703 
L 344.818308 91.134507 
L 345.057149 97.936115 
L 345.17657 95.698744 
L 345.295991 95.810613 
L 345.415412 90.66466 
L 345.534832 94.960412 
L 345.654253 93.908847 
L 345.773674 90.575165 
L 346.012515 95.133613 
L 346.131936 93.327131 
L 346.251357 93.791385 
L 346.370777 98.036797 
L 346.609619 90.362614 
L 346.72904 98.439524 
L 346.84846 131.563049 
L 346.967881 92.29794 
L 347.087302 96.574594 
L 347.206722 135.318577 
L 347.445564 90.955518 
L 347.564985 92.118951 
L 347.684405 96.03435 
L 347.803826 91.771717 
L 347.923247 96.906925 
L 348.042668 92.360861 
L 348.162088 96.493011 
L 348.281509 95.698744 
L 348.40093 91.358245 
L 348.520351 95.542128 
L 348.639771 91.373626 
L 348.878613 98.046909 
L 348.998033 96.168592 
L 349.117454 124.684412 
L 349.236875 92.208446 
L 349.356296 95.21771 
L 349.475716 91.816906 
L 349.595137 131.061939 
L 349.833979 90.508044 
L 350.07282 92.29794 
L 350.192241 91.749784 
L 350.311661 94.949225 
L 350.431082 92.426938 
L 350.550503 98.428337 
L 350.789344 91.414179 
L 351.028186 98.076149 
L 351.147607 90.523425 
L 351.267027 97.936115 
L 351.386448 92.214039 
L 351.62529 94.322761 
L 351.74471 90.508044 
L 351.864131 100.672476 
L 351.983552 91.69385 
L 352.102972 91.419772 
L 352.222393 98.530596 
L 352.341814 94.747862 
L 352.461235 94.915664 
L 352.700076 91.509267 
L 352.819497 98.864624 
L 352.938918 97.997643 
L 353.058338 92.314721 
L 353.177759 97.81306 
L 353.29718 97.958489 
L 353.4166 98.439524 
L 353.536021 91.134507 
L 353.655442 90.720594 
L 353.774863 91.223317 
L 353.894283 93.237636 
L 354.013704 97.902555 
L 354.252546 92.208446 
L 354.371966 97.958489 
L 354.491387 94.760978 
L 354.610808 95.698744 
L 354.730229 92.314721 
L 354.849649 93.04746 
L 355.088491 98.461897 
L 355.207911 94.222079 
L 355.327332 95.385512 
L 355.446753 94.954001 
L 355.566174 96.470637 
L 355.685594 92.710138 
L 355.805015 95.25127 
L 355.924436 91.749784 
L 356.043857 97.919335 
L 356.163277 92.063016 
L 356.282698 95.670777 
L 356.402119 95.777052 
L 356.521539 91.161076 
L 356.64096 132.971688 
L 356.879802 92.118951 
L 356.999222 96.481824 
L 357.118643 93.075427 
L 357.238064 93.069833 
L 357.476905 91.145694 
L 357.596326 117.198728 
L 357.715747 90.955518 
L 357.954588 99.23379 
L 358.074009 91.419772 
L 358.31285 97.175409 
L 358.432271 127.471644 
L 358.671113 91.01078 
L 358.790533 96.493011 
L 358.909954 115.119137 
L 359.148796 91.637916 
L 359.387637 98.942932 
L 359.507058 98.036797 
L 359.626478 165.486057 
L 359.745899 96.727935 
L 359.86532 95.542128 
L 359.984741 92.063016 
L 360.104161 95.653997 
L 360.343003 91.822499 
L 360.462424 90.832462 
L 360.581844 95.542128 
L 360.701265 93.920034 
L 360.820686 95.665184 
L 360.940107 92.338049 
L 361.059527 92.134333 
L 361.178948 95.777052 
L 361.298369 94.949225 
L 361.417789 95.25127 
L 361.53721 94.747862 
L 361.895472 98.461897 
L 362.014893 98.428337 
L 362.253735 90.955518 
L 362.373155 97.81306 
L 362.611997 96.481824 
L 362.731417 92.611172 
L 362.850838 94.328355 
L 362.970259 94.338143 
L 363.08968 93.04746 
L 363.2091 97.891368 
L 363.328521 203.283087 
L 363.447942 93.925628 
L 363.567363 93.349505 
L 363.686783 91.749784 
L 363.806204 98.182226 
L 364.045046 91.637916 
L 364.164466 98.182226 
L 364.283887 126.566839 
L 364.403308 95.609249 
L 364.522728 95.653997 
L 364.642149 93.729858 
L 364.76157 95.777052 
L 364.880991 91.559608 
L 365.000411 131.846936 
L 365.119832 130.079002 
L 365.239253 90.575165 
L 365.358674 97.007606 
L 365.478094 95.197481 
L 365.597515 135.088317 
L 365.836357 91.145694 
L 365.955777 91.816906 
L 366.075198 91.559608 
L 366.314039 99.356846 
L 366.43346 91.69385 
L 366.552881 97.574968 
L 366.791722 95.964021 
L 367.030564 98.461897 
L 367.149985 92.208446 
L 367.269405 93.429598 
L 367.388826 93.349505 
L 367.866509 98.942932 
L 367.98593 97.108288 
L 368.10535 92.29794 
L 368.224771 98.853437 
L 368.344192 93.260522 
L 368.463613 94.949225 
L 368.583033 117.375986 
L 368.702454 95.318391 
L 368.821875 97.221948 
L 368.941296 94.915664 
L 369.060716 95.810613 
L 369.180137 97.980863 
L 369.299558 98.036797 
L 369.418978 98.868819 
L 369.538399 93.237636 
L 369.65782 94.949225 
L 369.896661 91.828092 
L 370.135503 97.936115 
L 370.254924 97.007606 
L 370.493765 90.838864 
L 370.613186 92.577612 
L 370.852027 98.853437 
L 370.971448 97.936115 
L 371.090869 91.358245 
L 371.210289 95.698744 
L 371.32971 93.192889 
L 371.568552 99.356846 
L 371.687972 99.177856 
L 371.807393 177.612066 
L 371.926814 94.938038 
L 372.046235 92.063016 
L 372.285076 97.175409 
L 372.523917 90.591945 
L 372.643338 93.920034 
L 372.762759 93.192889 
L 372.88218 95.624631 
L 373.0016 93.04746 
L 373.240442 221.794883 
L 373.359863 91.749784 
L 373.598704 90.955518 
L 373.718125 96.727935 
L 373.837545 93.870045 
L 373.956966 98.382378 
L 374.076387 96.727935 
L 374.195808 91.358245 
L 374.315228 130.565252 
L 374.55407 95.832987 
L 374.673491 96.470637 
L 374.792911 95.614843 
L 374.912332 97.182077 
L 375.031753 95.698744 
L 375.151174 96.493011 
L 375.270594 91.134507 
L 375.390015 93.137418 
L 375.509436 91.816906 
L 375.628856 97.181003 
L 375.748277 95.25127 
L 375.867698 90.575165 
L 375.987119 90.955518 
L 376.106539 94.322761 
L 376.22596 91.816906 
L 376.464802 98.439524 
L 376.584222 92.208446 
L 376.703643 99.23379 
L 376.823064 90.508044 
L 376.942484 96.481824 
L 377.061905 132.00899 
L 377.181326 92.197259 
L 377.300747 98.853437 
L 377.420167 94.893291 
L 377.539588 95.665184 
L 377.659009 99.368033 
L 377.89785 93.789987 
L 378.017271 97.975269 
L 378.256113 90.575165 
L 378.494954 94.747862 
L 378.614375 94.338143 
L 378.733795 95.810613 
L 378.853216 95.25127 
L 378.972637 93.069833 
L 379.092058 93.062842 
L 379.211478 97.824247 
L 379.330899 93.729858 
L 379.569741 97.980863 
L 379.689161 97.957593 
L 379.808582 98.053577 
L 379.928003 93.237636 
L 380.166844 95.653997 
L 380.405686 92.577612 
L 380.525106 94.345135 
L 380.644527 93.961047 
L 380.763948 98.6297 
L 380.883369 91.765166 
L 381.12221 97.891368 
L 381.241631 98.316468 
L 381.361052 93.780199 
L 381.480472 95.653997 
L 381.599893 92.577612 
L 381.719314 96.470637 
L 381.838734 94.222079 
L 381.958155 117.703652 
L 382.077576 94.322761 
L 382.196997 98.036797 
L 382.316417 92.197259 
L 382.435838 95.884467 
L 382.67468 90.66466 
L 382.7941 90.575165 
L 382.913521 92.208446 
L 383.032942 96.727935 
L 383.152362 96.743317 
L 383.271783 94.345135 
L 383.391204 94.222079 
L 383.510625 94.966005 
L 383.630045 90.832462 
L 383.749466 98.036797 
L 383.868887 93.237636 
L 383.988308 196.368843 
L 384.107728 95.363139 
L 384.227149 99.249172 
L 384.34657 93.04746 
L 384.465991 95.655985 
L 384.585411 90.508044 
L 384.824253 95.542128 
L 385.063094 90.720594 
L 385.182515 91.134507 
L 385.421356 98.595248 
L 385.660198 93.04746 
L 385.779619 97.958489 
L 386.01846 93.349505 
L 386.137881 90.351428 
L 386.257302 93.908847 
L 386.496143 92.197259 
L 386.615564 94.949225 
L 386.734984 94.977192 
L 386.854405 96.487418 
L 386.973826 95.85536 
L 387.093247 95.832987 
L 387.212667 96.766997 
L 387.332088 90.470642 
L 387.451509 98.853437 
L 387.57093 92.174885 
L 387.69035 97.952896 
L 387.809771 93.729858 
L 387.929192 96.940004 
L 388.048612 91.123321 
L 388.168033 97.9752 
L 388.287454 96.918111 
L 388.406875 121.987203 
L 388.526295 93.069833 
L 388.765137 98.182226 
L 388.884558 95.810613 
L 389.003978 109.015449 
L 389.123399 92.672463 
L 389.24282 98.456321 
L 389.362241 92.208446 
L 389.481661 98.439524 
L 389.601082 98.6297 
L 389.720503 174.441007 
L 389.839923 95.300527 
L 389.959344 90.832462 
L 390.198186 94.842634 
L 390.317606 96.183974 
L 390.556448 91.134507 
L 390.675869 99.23379 
L 390.91471 91.134507 
L 391.034131 97.024387 
L 391.153551 95.653997 
L 391.272972 249.518812 
L 391.392393 94.222079 
L 391.511814 98.182226 
L 391.750655 91.816906 
L 391.870076 166.597916 
L 391.989497 92.191665 
L 392.228338 98.853437 
L 392.347759 93.04746 
L 392.46718 95.542128 
L 392.706021 91.816906 
L 392.825442 91.57499 
L 393.064283 98.816706 
L 393.183704 121.664997 
L 393.303125 92.225226 
L 393.422545 93.237636 
L 393.661387 98.182801 
L 393.780808 91.727588 
L 394.019649 98.942932 
L 394.25849 92.626554 
L 394.497332 96.493011 
L 394.616753 94.338143 
L 394.736173 98.445117 
L 394.975015 91.134507 
L 395.094436 97.824247 
L 395.333277 133.02542 
L 395.452698 91.134507 
L 395.572119 95.609249 
L 395.691539 92.29794 
L 395.81096 98.835259 
L 395.930381 91.509267 
L 396.049801 95.57856 
L 396.169222 91.749784 
L 396.288643 92.06861 
L 396.408064 98.443719 
L 396.527484 146.110035 
L 396.646905 90.508044 
L 396.766326 95.693607 
L 396.885747 93.774605 
L 397.005167 98.954119 
L 397.124588 96.355097 
L 397.244009 98.439524 
L 397.48285 91.509267 
L 397.721692 98.478678 
L 397.841112 93.342513 
L 397.960533 94.322761 
L 398.079954 97.993745 
L 398.318795 91.637916 
L 398.438216 99.576406 
L 398.915899 93.729858 
L 399.03532 94.931046 
L 399.15474 91.637916 
L 399.274161 93.931221 
L 399.393582 93.374825 
L 399.513003 91.749784 
L 399.632423 99.177856 
L 399.751844 92.067786 
L 399.990686 91.140101 
L 400.110106 97.018793 
L 400.348948 93.74524 
L 400.587789 95.318391 
L 400.70721 97.007606 
L 400.826631 90.586352 
L 400.946051 92.063016 
L 401.065472 97.14045 
L 401.304314 92.616766 
L 401.543155 98.450882 
L 401.662576 90.84404 
L 401.901417 98.036797 
L 402.020838 91.637916 
L 402.140259 91.4813 
L 402.259679 98.439524 
L 402.498521 91.559608 
L 402.617942 94.987294 
L 402.856783 93.357895 
L 402.976204 129.753011 
L 403.095625 95.609249 
L 403.215045 99.120593 
L 403.334466 92.063016 
L 403.453887 94.938038 
L 403.573307 91.559608 
L 403.93157 98.853437 
L 404.05099 92.611172 
L 404.170411 92.611172 
L 404.289832 95.318391 
L 404.409253 93.04746 
L 404.528673 95.412081 
L 404.648094 92.577612 
L 404.886936 97.81306 
L 405.006356 91.123321 
L 405.125777 91.742793 
L 405.245198 90.955518 
L 405.60346 97.007606 
L 405.842301 93.069833 
L 405.961722 97.107115 
L 406.081143 96.912127 
L 406.200564 99.249172 
L 406.558826 93.075427 
L 406.678246 92.97688 
L 406.797667 94.345135 
L 406.917088 97.958489 
L 407.155929 95.402293 
L 407.27535 98.439524 
L 407.394771 97.835434 
L 407.514192 98.959713 
L 407.633612 94.345135 
L 407.753033 95.85536 
L 407.872454 91.161076 
L 407.991875 115.412571 
L 408.111295 95.385512 
L 408.230716 104.90539 
L 408.350137 96.481824 
L 408.469557 96.03435 
L 408.588978 98.428337 
L 408.708399 98.439524 
L 408.94724 90.508044 
L 409.066661 93.774605 
L 409.186082 90.832462 
L 409.305503 97.936115 
L 409.424923 95.55751 
L 409.544344 155.452109 
L 409.663765 96.001627 
L 409.783186 98.439524 
L 410.022027 91.765166 
L 410.141448 94.949225 
L 410.260868 171.386248 
L 410.380289 90.351428 
L 410.619131 98.428337 
L 410.738551 92.174885 
L 410.857972 97.936115 
L 410.977393 92.577612 
L 411.096814 98.803097 
L 411.216234 98.786316 
L 411.455076 92.118951 
L 411.574496 98.942932 
L 411.693917 91.559608 
L 411.813338 97.958489 
L 411.932759 92.174885 
L 412.052179 92.190267 
L 412.1716 91.733004 
L 412.410442 96.1873 
L 412.529862 95.824739 
L 412.768704 91.813811 
L 412.888125 101.692402 
L 413.007545 93.04746 
L 413.246387 95.323985 
L 413.365807 95.832987 
L 413.485228 97.902555 
L 413.604649 91.145694 
L 413.72407 94.960412 
L 413.84349 198.643149 
L 413.962911 92.817149 
L 414.082332 97.896961 
L 414.201753 95.318391 
L 414.321173 99.356846 
L 414.440594 95.385512 
L 414.560015 98.344435 
L 414.679435 109.453106 
L 414.798856 91.559608 
L 414.918277 166.370341 
L 415.037698 95.827393 
L 415.157118 95.363139 
L 415.276539 91.414179 
L 415.39596 96.960001 
L 415.515381 96.03435 
L 415.754222 99.177856 
L 415.873643 93.192889 
L 416.112484 98.443719 
L 416.231905 91.637916 
L 416.351326 97.958489 
L 416.470746 95.609249 
L 416.590167 96.498604 
L 416.709588 93.774605 
L 416.829009 94.377297 
L 417.06785 98.958314 
L 417.187271 92.063016 
L 417.306692 98.6297 
L 417.426112 92.135731 
L 417.545533 138.450547 
L 417.664954 95.848368 
L 417.784374 96.493011 
L 418.023216 99.244977 
L 418.262057 90.720594 
L 418.381478 95.908038 
L 418.500899 93.237636 
L 418.62032 95.832987 
L 418.73974 91.749784 
L 418.978582 97.109184 
L 419.098003 98.823712 
L 419.217423 98.286907 
L 419.336844 95.385512 
L 419.575685 98.269919 
L 419.695106 90.832462 
L 419.814527 96.106736 
L 419.933948 91.145694 
L 420.172789 97.190791 
L 420.29221 99.368033 
L 420.531051 93.920034 
L 420.650472 241.198254 
L 420.769893 93.053053 
L 420.889313 91.784634 
L 421.128155 98.439524 
L 421.247576 97.759767 
L 421.366996 94.360517 
L 421.486417 96.10824 
L 421.605838 92.577612 
L 421.725259 134.050403 
L 421.844679 94.322761 
L 421.9641 98.786316 
L 422.202942 92.577612 
L 422.322362 97.511015 
L 422.441783 96.481824 
L 422.561204 97.936115 
L 422.680624 95.374325 
L 422.800045 98.470288 
L 422.919466 97.511015 
L 423.038887 92.611172 
L 423.158307 98.6297 
L 423.277728 92.063016 
L 423.397149 91.69385 
L 423.51657 90.66466 
L 423.63599 92.174885 
L 423.755411 91.492487 
L 423.874832 96.727935 
L 423.994252 90.575165 
L 424.113673 95.793833 
L 424.233094 93.339994 
L 424.352515 97.917937 
L 424.471935 95.233091 
L 424.591356 97.990651 
L 424.830198 93.327131 
L 424.949618 94.960412 
L 425.18846 91.57499 
L 425.307881 98.894171 
L 425.546722 90.748561 
L 425.666143 98.199006 
L 425.785563 96.923705 
L 426.024405 90.41428 
L 426.143826 91.576403 
L 426.263246 91.151288 
L 426.382667 98.182226 
L 426.502088 98.43393 
L 426.621509 93.114581 
L 426.740929 94.525903 
L 426.86035 91.772158 
L 426.979771 94.747862 
L 427.099191 91.414179 
L 427.218612 98.128299 
L 427.576874 91.49808 
L 427.696295 99.368033 
L 427.815716 93.931221 
L 427.935137 129.274682 
L 428.173978 94.345135 
L 428.293399 93.813633 
L 428.41282 92.223827 
L 428.53224 95.704338 
L 428.651661 91.358245 
L 428.890502 98.868819 
L 429.129344 90.720594 
L 429.248765 98.199006 
L 429.368185 97.951497 
L 429.607027 90.9709 
L 429.726448 92.074203 
L 429.845868 97.936115 
L 429.965289 97.944796 
L 430.08471 92.577612 
L 430.204131 97.108288 
L 430.323551 90.670253 
L 430.442972 90.575165 
L 430.681813 98.942932 
L 430.801234 93.920034 
L 430.920655 98.461897 
L 431.040076 97.527795 
L 431.159496 97.902555 
L 431.278917 91.654696 
L 431.398338 92.328704 
L 431.517759 99.177856 
L 431.637179 97.175409 
L 431.7566 98.819877 
L 431.876021 95.23449 
L 431.995441 138.474125 
L 432.114862 90.737374 
L 432.234283 92.08539 
L 432.353704 95.641412 
L 432.592545 91.201268 
L 432.711966 98.645082 
L 432.831387 90.832462 
L 432.950807 95.84227 
L 433.070228 95.698744 
L 433.30907 118.841709 
L 433.42849 92.197259 
L 433.547911 94.960412 
L 433.667332 92.208446 
L 433.786752 97.511015 
L 433.906173 91.749784 
L 434.025594 92.118951 
L 434.264435 95.698744 
L 434.503277 97.952896 
L 434.622698 96.91233 
L 434.742118 98.203201 
L 434.98096 97.715364 
L 435.219801 92.19398 
L 435.339222 99.177856 
L 435.458643 91.145694 
L 435.578063 116.836979 
L 435.697484 95.547722 
L 435.816905 97.908148 
L 435.936326 92.074203 
L 436.175167 99.368033 
L 436.294588 91.816906 
L 436.414009 95.304801 
L 436.65285 91.155483 
L 436.891691 97.81306 
L 437.011112 94.949225 
L 437.130533 99.23379 
L 437.249954 99.356846 
L 437.369374 93.364887 
L 437.608216 98.467491 
L 437.727637 91.123321 
L 437.847057 97.997643 
L 437.966478 92.118951 
L 438.205319 98.6297 
L 438.32474 94.966005 
L 438.444161 94.938038 
L 438.563582 99.356846 
L 438.802423 94.938038 
L 438.921844 94.339541 
L 439.041265 96.481824 
L 439.280106 93.099207 
L 439.399527 97.007606 
L 439.518948 97.125068 
L 439.638368 105.393888 
L 439.757789 90.351428 
L 439.99663 93.253018 
L 440.116051 139.907999 
L 440.354893 90.351428 
L 440.474313 97.089412 
L 440.951996 91.358245 
L 441.071417 90.956824 
L 441.310258 98.6297 
L 441.5491 92.29794 
L 441.787941 98.656269 
L 441.907362 91.145694 
L 442.026783 114.16854 
L 442.265624 91.414179 
L 442.385045 98.028228 
L 442.504466 91.4813 
L 442.743307 94.752057 
L 442.862728 90.720594 
L 442.982149 97.958489 
L 443.101569 91.731345 
L 443.22099 91.559608 
L 443.459832 96.185372 
L 443.579252 95.302087 
L 443.698673 90.351428 
L 443.818094 92.208446 
L 443.937515 96.498604 
L 444.056935 95.715525 
L 444.176356 96.045537 
L 444.415197 93.06424 
L 444.654039 97.986456 
L 444.89288 91.492487 
L 445.012301 231.790814 
L 445.131722 98.864624 
L 445.251143 95.167369 
L 445.370563 95.223303 
L 445.489984 97.828442 
L 445.609405 91.444943 
L 445.728826 95.23449 
L 445.848246 92.611172 
L 445.967667 93.069833 
L 446.087088 90.955518 
L 446.206508 94.345135 
L 446.325929 91.749784 
L 446.44535 92.627953 
L 446.564771 97.839629 
L 446.684191 95.65959 
L 446.803612 98.439524 
L 446.923033 95.318391 
L 447.042454 96.168592 
L 447.161874 99.385186 
L 447.281295 91.4813 
L 447.400716 137.891443 
L 447.520136 91.134507 
L 447.639557 98.316468 
L 447.758978 94.322761 
L 447.997819 96.03435 
L 448.236661 91.816906 
L 448.356082 98.942932 
L 448.475502 96.03435 
L 448.594923 134.892176 
L 448.714344 97.81306 
L 448.833765 223.105243 
L 448.953185 95.698744 
L 449.072606 97.175409 
L 449.192027 91.156881 
L 449.311447 108.294852 
L 449.430868 95.335171 
L 449.550289 99.250571 
L 449.66971 93.172615 
L 449.908551 96.03435 
L 450.027972 95.609249 
L 450.147393 99.177856 
L 450.266813 98.478678 
L 450.386234 91.134507 
L 450.505655 91.4813 
L 450.625075 94.345135 
L 450.744496 187.604172 
L 450.863917 91.502243 
L 450.983338 92.788368 
L 451.222179 99.373626 
L 451.461021 92.258731 
L 451.580441 94.938038 
L 451.699862 92.212641 
L 451.819283 133.264173 
L 451.938704 93.086614 
L 452.058124 93.327131 
L 452.177545 95.698744 
L 452.296966 171.793492 
L 452.416386 99.37922 
L 452.535807 96.743317 
L 452.655228 98.428337 
L 452.774649 96.493011 
L 452.894069 91.654696 
L 453.01349 98.316468 
L 453.132911 92.780177 
L 453.252332 94.747862 
L 453.371752 91.777752 
L 453.491173 98.182226 
L 453.610594 97.007606 
L 453.730015 97.891368 
L 453.849435 94.908673 
L 453.968856 98.645082 
L 454.088277 98.456304 
L 454.207697 99.356846 
L 454.56596 90.989078 
L 454.68538 99.948108 
L 454.804801 92.190267 
L 454.924222 109.96299 
L 455.043643 97.339742 
L 455.163063 98.214388 
L 455.282484 95.363139 
L 455.521325 111.282836 
L 455.760167 92.063016 
L 455.879588 97.157163 
L 455.999008 136.971025 
L 456.118429 90.372403 
L 456.23785 91.69385 
L 456.357271 90.98768 
L 456.476691 168.841214 
L 456.596112 98.461897 
L 456.834954 92.212641 
L 456.954374 97.996431 
L 457.073795 97.007606 
L 457.193216 99.375623 
L 457.312636 94.222079 
L 457.432057 97.824247 
L 457.551478 97.767592 
L 457.670899 91.149889 
L 458.029161 99.430004 
L 458.268002 96.497206 
L 458.387423 90.832462 
L 458.506844 109.221153 
L 458.626264 96.487418 
L 458.745685 98.191304 
L 458.865106 92.214039 
L 458.984527 93.785792 
L 459.103947 92.063016 
L 459.223368 98.053577 
L 459.342789 92.208446 
L 459.46221 92.079797 
L 459.58163 91.71063 
L 459.701051 92.078398 
L 459.820472 91.559608 
L 459.939893 253.985158 
L 460.059313 97.952896 
L 460.178734 91.742793 
L 460.298155 97.533388 
L 460.417575 95.85536 
L 460.656417 99.595868 
L 460.895258 92.627953 
L 461.1341 98.214388 
L 461.372941 93.069833 
L 461.492362 98.818478 
L 461.611783 92.079797 
L 461.731203 98.6297 
L 461.850624 91.145694 
L 462.089466 96.869379 
L 462.208886 93.074028 
L 462.447728 99.177856 
L 462.567149 90.373801 
L 462.80599 99.256164 
L 462.925411 156.281658 
L 463.044832 95.16597 
L 463.164252 91.375025 
L 463.283673 92.834489 
L 463.403094 99.373626 
L 463.522514 94.66296 
L 463.641935 97.175409 
L 463.880777 92.314721 
L 464.000197 97.007606 
L 464.119618 95.844173 
L 464.239039 98.819877 
L 464.35846 95.25127 
L 464.47788 95.8218 
L 464.597301 97.007606 
L 464.716722 96.744715 
L 464.955563 98.439524 
L 465.074984 91.749784 
L 465.194405 95.793833 
L 465.313825 92.208446 
L 465.433246 95.777052 
L 465.552667 91.727411 
L 465.672088 91.699444 
L 465.791508 97.078729 
L 465.910929 95.777052 
L 466.149771 90.842251 
L 466.388612 98.942932 
L 466.508033 96.498604 
L 466.746874 97.81306 
L 466.866295 97.880163 
L 466.985716 90.551113 
L 467.105136 98.786316 
L 467.224557 94.396137 
L 467.463399 97.232238 
L 467.582819 131.208146 
L 467.821661 98.456304 
L 468.060502 94.322761 
L 468.179923 97.839629 
L 468.299344 97.936115 
L 468.538185 91.173661 
L 468.777027 93.729858 
L 468.896447 91.71063 
L 469.015868 95.859555 
L 469.135289 91.670078 
L 469.37413 97.553564 
L 469.493551 118.100515 
L 469.732392 93.774605 
L 469.851813 97.835434 
L 469.971234 95.350553 
L 470.090655 98.316468 
L 470.210075 97.99205 
L 470.448917 95.335171 
L 470.568338 94.915664 
L 470.687758 99.250571 
L 470.9266 92.072805 
L 471.04602 132.774128 
L 471.284862 91.760971 
L 471.404283 99.373626 
L 471.523703 93.935416 
L 471.643124 121.903693 
L 471.762545 94.233266 
L 471.881966 95.727191 
L 472.001386 90.351428 
L 472.120807 97.936115 
L 472.240228 98.461897 
L 472.359649 97.253501 
L 472.479069 97.90675 
L 472.59849 99.23379 
L 472.837331 93.359293 
L 473.076173 98.428337 
L 473.195594 99.177856 
L 473.434435 97.14045 
L 473.553856 96.504198 
L 473.673277 92.197259 
L 473.792697 138.928158 
L 474.031539 92.627953 
L 474.27038 106.00405 
L 474.509222 91.140101 
L 474.628642 98.053577 
L 474.748063 91.134507 
L 474.867484 119.888859 
L 474.986905 93.108987 
L 475.225746 97.902555 
L 475.345167 95.827393 
L 475.464588 245.635658 
L 475.584008 99.384813 
L 475.703429 97.997643 
L 475.82285 92.254389 
L 475.94227 98.847844 
L 476.061691 91.396 
L 476.181112 98.482873 
L 476.419953 94.949225 
L 476.539374 98.552716 
L 476.658795 96.939087 
L 476.897636 91.744191 
L 477.017057 91.134507 
L 477.375319 96.292744 
L 477.49474 95.402212 
L 477.614161 91.85606 
L 477.853002 94.915664 
L 477.972423 97.12367 
L 478.091844 92.078398 
L 478.211264 97.980863 
L 478.330685 96.481824 
L 478.450106 92.208446 
L 478.569527 92.592994 
L 478.688947 94.747862 
L 478.808368 221.351396 
L 478.927789 90.955518 
L 479.047209 98.445117 
L 479.16663 91.086852 
L 479.286051 93.37048 
L 479.405472 97.980863 
L 479.524892 93.349505 
L 479.644313 134.295301 
L 479.763734 95.648403 
L 479.883155 94.361915 
L 480.002575 96.923705 
L 480.241417 93.774605 
L 480.360838 99.211417 
L 480.480258 92.079797 
L 480.599679 98.801698 
L 480.7191 91.726609 
L 480.83852 94.257572 
L 481.077362 132.50829 
L 481.196783 95.21771 
L 481.316203 93.155849 
L 481.435624 142.554904 
L 481.555045 94.222079 
L 481.674466 120.156802 
L 481.913307 92.303534 
L 482.152148 98.836657 
L 482.271569 98.853437 
L 482.510411 90.735976 
L 482.629831 90.9709 
L 482.749252 98.819877 
L 482.868673 114.452717 
L 483.107514 92.225226 
L 483.226935 99.075886 
L 483.346356 98.456304 
L 483.465777 91.69385 
L 483.585197 93.069833 
L 483.704618 98.6297 
L 483.824039 93.95779 
L 483.943459 98.646481 
L 484.06288 92.314721 
L 484.182301 97.108288 
L 484.421142 95.167369 
L 484.540563 97.839629 
L 484.659984 91.509267 
L 484.779405 91.134507 
L 484.898825 95.85536 
L 485.137667 91.134507 
L 485.257087 95.812143 
L 485.495929 94.984184 
L 485.61535 91.138703 
L 485.854191 96.481824 
L 485.973612 91.151288 
L 486.093033 95.333773 
L 486.212453 95.248473 
L 486.331874 109.760458 
L 486.451295 93.209669 
L 486.570716 98.819877 
L 486.690136 93.394252 
L 486.809557 93.079622 
L 486.928978 97.97279 
L 487.167819 92.174885 
L 487.28724 93.253018 
L 487.406661 95.385512 
L 487.526081 91.375025 
L 487.645502 91.358245 
L 487.764923 98.316468 
L 487.884344 94.992574 
L 488.003764 95.698744 
L 488.123185 183.645149 
L 488.242606 95.378521 
L 488.362026 97.024387 
L 488.481447 91.849068 
L 488.600868 98.445117 
L 488.720289 97.835434 
L 488.839709 91.358245 
L 488.95913 97.919335 
L 489.078551 117.754935 
L 489.197972 92.358158 
L 489.317392 94.322761 
L 489.436813 92.626554 
L 489.556234 99.398797 
L 489.675655 99.377821 
L 489.795075 94.966005 
L 490.033917 98.064989 
L 490.272758 94.932445 
L 490.392179 96.168592 
L 490.5116 92.095179 
L 490.63102 91.833686 
L 490.750441 94.992574 
L 490.869862 91.559608 
L 490.989283 98.461897 
L 491.108703 94.893291 
L 491.228124 99.189043 
L 491.347545 94.339541 
L 491.466965 95.400894 
L 491.586386 91.4813 
L 491.705807 93.085215 
L 491.825228 97.891368 
L 491.944648 95.902904 
L 492.064069 90.696822 
L 492.18349 94.795406 
L 492.302911 91.507869 
L 492.422331 93.2341 
L 492.541752 99.356846 
L 492.661173 99.23379 
L 492.780594 93.078223 
L 492.900014 95.665184 
L 493.019435 139.038889 
L 493.138856 92.29794 
L 493.258276 98.460499 
L 493.377697 94.322761 
L 493.497118 97.996245 
L 493.616539 95.150588 
L 493.735959 153.112605 
L 493.85538 94.768837 
L 493.974801 94.23886 
L 494.213642 91.721817 
L 494.333063 97.958489 
L 494.571905 92.940321 
L 494.691325 95.266652 
L 494.810746 91.602945 
L 495.049587 98.818478 
L 495.169008 91.4813 
L 495.40785 94.915664 
L 495.646691 92.248125 
L 495.766112 90.66466 
L 495.885533 99.250571 
L 496.124374 92.335696 
L 496.243795 96.504198 
L 496.602057 94.222079 
L 496.721478 90.530848 
L 496.960319 98.853437 
L 497.07974 99.612755 
L 497.199161 99.387688 
L 497.438002 92.290597 
L 497.557423 95.297415 
L 497.796264 91.358245 
L 497.915685 99.368033 
L 498.035106 98.461897 
L 498.154526 90.9709 
L 498.273947 92.006204 
L 498.393368 94.339541 
L 498.512789 91.408767 
L 498.632209 92.588799 
L 498.75163 90.591945 
L 498.871051 94.562751 
L 499.109892 90.832462 
L 499.348734 93.053053 
L 499.468154 98.461897 
L 499.587575 94.044706 
L 499.826417 95.350553 
L 499.945837 90.524824 
L 500.184679 95.919224 
L 500.3041 92.287272 
L 500.42352 93.06424 
L 500.542941 231.804884 
L 500.662362 95.558909 
L 500.781783 93.774605 
L 500.901203 97.125068 
L 501.020624 92.139926 
L 501.140045 93.069833 
L 501.259465 96.481824 
L 501.378886 91.4813 
L 501.498307 94.361915 
L 501.617728 169.65149 
L 501.737148 93.774605 
L 501.856569 90.545799 
L 501.97599 91.816906 
L 502.095411 121.803263 
L 502.334252 95.419073 
L 502.453673 93.192889 
L 502.573093 93.774605 
L 502.692514 91.196352 
L 502.811935 93.746638 
L 502.931356 93.785792 
L 503.050776 94.222079 
L 503.409039 99.177856 
L 503.528459 121.415272 
L 503.767301 92.208446 
L 503.886722 92.313322 
L 504.125563 98.461897 
L 504.364404 95.150588 
L 504.603246 98.645082 
L 504.722667 91.390407 
L 504.842087 98.954119 
L 505.080929 93.301961 
L 505.20035 95.150588 
L 505.31977 94.371704 
L 505.439191 91.145694 
L 505.558612 97.980863 
L 505.678032 90.508044 
L 505.916874 97.966879 
L 506.036295 95.870742 
L 506.155715 91.380618 
L 506.394557 95.665184 
L 506.513978 95.85536 
L 506.633398 92.230819 
L 506.752819 94.966005 
L 506.87224 94.764642 
L 506.991661 91.390407 
L 507.111081 95.385512 
L 507.230502 129.94259 
L 507.349923 95.834179 
L 507.588764 93.069833 
L 507.708185 90.536011 
L 507.827606 91.559608 
L 507.947026 98.036797 
L 508.066447 93.209669 
L 508.185868 97.902555 
L 508.305289 90.838056 
L 508.424709 95.641412 
L 508.54413 123.398505 
L 508.663551 90.863226 
L 508.782971 97.980863 
L 508.902392 90.351428 
L 509.141234 95.788239 
L 509.260654 92.462011 
L 509.499496 97.125068 
L 509.618917 95.653997 
L 509.738337 92.06861 
L 509.977179 98.450711 
L 510.0966 94.949225 
L 510.21602 95.25127 
L 510.454862 90.770935 
L 510.693703 95.887522 
L 510.932545 90.529019 
L 511.171386 93.062842 
L 511.290807 92.197259 
L 511.410228 231.762685 
L 511.529648 97.936115 
L 511.649069 92.063016 
L 511.76849 92.078398 
L 511.88791 97.666935 
L 512.126752 93.349505 
L 512.365593 97.961308 
L 512.485014 95.743492 
L 512.604435 97.902555 
L 512.723856 97.84662 
L 512.843276 98.182226 
L 512.962697 91.486893 
L 513.082118 98.514642 
L 513.201539 94.338143 
L 513.320959 181.481591 
L 513.44038 94.949225 
L 513.559801 96.233923 
L 513.679221 91.832288 
L 513.918063 93.791385 
L 514.037484 91.144296 
L 514.156904 90.9709 
L 514.276325 93.04746 
L 514.395746 231.82992 
L 514.515167 99.368033 
L 514.634587 92.078398 
L 514.754008 252.550998 
L 514.873429 91.231602 
L 514.992849 98.456304 
L 515.11227 91.709423 
L 515.231691 93.925628 
L 515.351112 93.767613 
L 515.470532 91.803775 
L 515.589953 97.845222 
L 515.709374 91.839279 
L 515.948215 95.385512 
L 516.067636 93.085215 
L 516.187057 93.062842 
L 516.306478 94.354923 
L 516.425898 91.756776 
L 516.545319 97.640631 
L 516.66474 97.824247 
L 516.78416 99.23379 
L 517.023002 91.49808 
L 517.261843 95.681825 
L 517.381264 99.256164 
L 517.500685 94.649858 
L 517.620106 95.177901 
L 517.739526 94.753455 
L 517.858947 91.528844 
L 518.097789 98.786316 
L 518.217209 91.140101 
L 518.33663 91.637916 
L 518.456051 96.183974 
L 518.575471 96.17276 
L 518.814313 93.240433 
L 518.933734 96.77772 
L 519.053154 94.40131 
L 519.172575 97.750691 
L 519.291996 94.93664 
L 519.411417 94.966005 
L 519.530837 95.631623 
L 519.650258 99.284131 
L 520.00852 93.746638 
L 520.127941 98.870218 
L 520.486203 93.963383 
L 520.725045 98.052179 
L 520.844465 97.527795 
L 520.963886 96.102225 
L 521.083307 96.343541 
L 521.202728 98.545799 
L 521.322148 92.626554 
L 521.441569 98.461897 
L 521.68041 90.624107 
L 521.799831 95.807816 
L 521.919252 93.15793 
L 522.038673 94.915664 
L 522.158093 230.213866 
L 522.277514 99.390406 
L 522.396935 140.987969 
L 522.516356 91.70224 
L 522.755197 90.762545 
L 522.874618 233.928733 
L 522.994038 92.262981 
L 523.113459 95.012151 
L 523.23288 91.595965 
L 523.352301 92.124544 
L 523.471721 155.515441 
L 523.591142 91.197433 
L 523.829984 91.766565 
L 523.949404 137.795985 
L 524.188246 91.613331 
L 524.307667 98.482873 
L 524.546508 98.49406 
L 524.785349 95.84697 
L 524.90477 97.828442 
L 525.143612 90.870218 
L 525.263032 98.075951 
L 525.382453 94.947827 
L 525.501874 95.287627 
L 525.621295 96.939087 
L 525.860136 92.260185 
L 525.979557 230.409994 
L 526.098977 95.686159 
L 526.218398 183.293928 
L 526.337819 95.385512 
L 526.57666 91.503674 
L 526.696081 99.236587 
L 526.815502 95.398098 
L 526.934923 98.518967 
L 527.054343 249.060109 
L 527.173764 97.20897 
L 527.293185 90.36681 
L 527.412606 93.079622 
L 527.532026 98.852039 
L 527.770868 91.446341 
L 528.009709 95.223303 
L 528.12913 90.638091 
L 528.248551 90.728984 
L 528.367971 100.907792 
L 528.487392 98.797503 
L 528.606813 127.261403 
L 528.726234 96.048008 
L 528.845654 98.661862 
L 528.965075 94.247965 
L 529.084496 94.931046 
L 529.203916 137.010391 
L 529.323337 97.902555 
L 529.442758 95.810613 
L 529.562179 90.695423 
L 529.681599 95.234544 
L 529.80102 93.939611 
L 530.039862 98.786316 
L 530.159282 94.986981 
L 530.278703 182.372995 
L 530.398124 97.23302 
L 530.517545 92.654521 
L 530.636965 96.049732 
L 530.756386 93.410989 
L 530.875807 95.870742 
L 530.995227 95.21771 
L 531.114648 95.402293 
L 531.234069 135.238381 
L 531.35349 97.81306 
L 531.47291 98.208795 
L 531.592331 92.641936 
L 531.711752 95.844173 
L 531.831173 92.615367 
L 531.950593 97.955692 
L 532.070014 91.777752 
L 532.189435 99.356846 
L 532.308855 97.564152 
L 532.428276 92.228023 
L 532.667118 95.311278 
L 532.786538 99.962493 
L 532.905959 92.265778 
L 533.02538 91.943115 
L 533.144801 91.155483 
L 533.503063 95.715525 
L 533.622484 91.198832 
L 533.741904 95.62603 
L 533.980746 90.737374 
L 534.100166 96.898061 
L 534.219587 90.386387 
L 534.339008 98.6297 
L 534.577849 91.798727 
L 534.69727 95.853962 
L 534.816691 90.710805 
L 534.936112 92.342319 
L 535.055532 98.15182 
L 535.174953 98.466093 
L 535.294374 95.674972 
L 535.413794 135.037585 
L 535.652636 92.191665 
L 535.772057 90.624107 
L 535.891477 91.679867 
L 536.010898 98.646481 
L 536.130319 97.975269 
L 536.36916 93.398447 
L 536.488581 94.975794 
L 536.608002 93.38726 
L 536.727423 98.492661 
L 536.846843 97.12367 
L 537.085685 93.383065 
L 537.205105 98.456304 
L 537.324526 96.525173 
L 537.443947 92.239209 
L 537.563368 125.049031 
L 537.682788 98.786316 
L 538.041051 92.609774 
L 538.160471 97.919335 
L 538.279892 91.507869 
L 538.399313 91.766565 
L 538.518734 95.346364 
L 538.638154 92.314721 
L 538.757575 179.334549 
L 538.876996 95.763069 
L 538.996416 97.174916 
L 539.115837 91.444943 
L 539.235258 97.980863 
L 539.354679 96.427093 
L 539.474099 192.267494 
L 539.59352 93.364887 
L 539.712941 94.946428 
L 539.832362 98.450711 
L 539.951782 147.214883 
L 540.071203 91.705037 
L 540.190624 97.917937 
L 540.310044 94.537417 
L 540.548886 98.661862 
L 540.668307 92.583205 
L 540.787727 93.920034 
L 541.026569 97.855011 
L 541.14599 91.401172 
L 541.26541 95.196734 
L 541.384831 91.847669 
L 541.623673 99.189043 
L 541.743093 92.309127 
L 541.862514 97.952896 
L 542.101355 92.239209 
L 542.220776 98.807292 
L 542.459618 91.654696 
L 542.579038 96.049732 
L 542.698459 94.975794 
L 542.81788 98.028407 
L 542.937301 95.298814 
L 543.176142 98.819877 
L 543.295563 97.971074 
L 543.414983 98.746581 
L 543.534404 98.473084 
L 543.653825 99.384876 
L 543.773246 99.298952 
L 543.892666 95.444666 
L 544.012087 96.210543 
L 544.131508 95.288845 
L 544.250929 95.810613 
L 544.370349 98.088403 
L 544.609191 92.308052 
L 544.848032 99.261554 
L 544.967453 96.558734 
L 545.206294 98.457702 
L 545.325715 96.097731 
L 545.445136 139.892206 
L 545.683977 91.635119 
L 545.803398 92.327306 
L 545.922819 98.962509 
L 546.04224 98.654871 
L 546.16166 97.386313 
L 546.281081 92.328704 
L 546.400502 96.115823 
L 546.519922 91.789473 
L 546.639343 98.035074 
L 546.758764 93.367305 
L 546.878185 98.930347 
L 546.997605 92.321712 
L 547.117026 96.469239 
L 547.236447 95.968627 
L 547.475288 91.967928 
L 547.594709 276.652915 
L 547.71413 98.225575 
L 547.833551 98.273119 
L 547.952971 98.628302 
L 548.072392 95.968035 
L 548.191813 96.023163 
L 548.311233 95.751882 
L 548.430654 92.351078 
L 548.788916 128.211244 
L 548.908337 90.035399 
L 549.147179 89.863401 
L 549.266599 92.640538 
L 549.38602 88.572537 
L 549.505441 97.085578 
L 549.744282 92.324509 
L 549.863703 133.444746 
L 549.983124 78.729684 
L 550.102544 84.521678 
L 550.221965 107.548377 
L 550.341386 81.868995 
L 550.580227 103.392878 
L 550.699648 78.12 
L 551.177331 97.543177 
L 551.296752 99.461723 
L 551.416172 92.837706 
L 551.655014 100.310359 
L 551.774435 102.406218 
L 552.132697 93.328529 
L 552.252118 99.540266 
L 552.371538 92.439174 
L 552.7298 94.159153 
L 552.849221 91.952546 
L 552.968642 98.836657 
L 553.088063 91.507939 
L 553.207483 97.975269 
L 553.326904 120.64012 
L 553.565746 95.693151 
L 553.685166 91.189043 
L 553.804587 93.843125 
L 554.043429 91.797329 
L 554.162849 99.398797 
L 554.28227 91.215612 
L 554.401691 91.941359 
L 554.521111 135.494979 
L 554.640532 92.670373 
L 554.759953 97.294269 
L 554.879374 91.251969 
L 554.998794 98.487068 
L 555.118215 97.620087 
L 555.237636 98.004828 
L 555.357057 92.388834 
L 555.476477 99.002419 
L 555.715319 92.471337 
L 555.834739 92.808341 
L 556.073581 98.487068 
L 556.193002 91.990072 
L 556.431843 98.895388 
L 556.551264 93.401244 
L 556.790105 99.224002 
L 556.909526 99.256164 
L 557.028947 93.543777 
L 557.148368 99.383415 
L 557.267788 95.691752 
L 557.387209 215.52965 
L 557.50663 97.21736 
L 557.62605 97.938912 
L 557.745471 91.86445 
L 557.864892 93.785523 
L 557.984313 99.250571 
L 558.103733 97.24253 
L 558.223154 92.095179 
L 558.581416 96.080496 
L 558.700837 240.87543 
L 558.820258 97.929123 
L 558.939679 94.925453 
L 559.059099 99.394601 
L 559.297941 93.978765 
L 559.417361 93.859905 
L 559.536782 96.513986 
L 559.656203 91.588973 
L 559.895044 97.295668 
L 560.014465 92.39163 
L 560.133886 93.240433 
L 560.253307 91.741394 
L 560.372727 95.570095 
L 560.372727 95.570095 
" clip-path="url(#p3abac9d8ed)" style="fill: none; stroke: #1f77b4; stroke-width: 1.5; stroke-linecap: square"/>
   </g>
   <g id="patch_3">
    <path d="M 81 448.56 
L 81 60.48 
" style="fill: none; stroke: #000000; stroke-width: 0.8; stroke-linejoin: miter; stroke-linecap: square"/>
   </g>
   <g id="patch_4">
    <path d="M 583.2 448.56 
L 583.2 60.48 
" style="fill: none; stroke: #000000; stroke-width: 0.8; stroke-linejoin: miter; stroke-linecap: square"/>
   </g>
   <g id="patch_5">
    <path d="M 81 448.56 
L 583.2 448.56 
" style="fill: none; stroke: #000000; stroke-width: 0.8; stroke-linejoin: miter; stroke-linecap: square"/>
   </g>
   <g id="patch_6">
    <path d="M 81 60.48 
L 583.2 60.48 
" style="fill: none; stroke: #000000; stroke-width: 0.8; stroke-linejoin: miter; stroke-linecap: square"/>
   </g>
  </g>
 </g>
 <defs>
  <clipPath id="p3abac9d8ed">
   <rect x="81" y="60.48" width="502.2" height="388.08"/>
  </clipPath>
 </defs>
</svg>
